G04 #@! TF.FileFunction,Copper,L2,Bot,Mixed*
%FSLAX46Y46*%
G04 Gerber Fmt 4.6, Leading zero omitted, Abs format (unit mm)*
G04 Created by KiCad (PCBNEW 4.0.4-stable) date Friday, October 14, 2016 'PMt' 06:06:23 PM*
%MOMM*%
%LPD*%
G01*
G04 APERTURE LIST*
%ADD10C,0.100000*%
%ADD11O,1.524000X2.540000*%
%ADD12R,1.300000X1.300000*%
%ADD13C,1.300000*%
%ADD14O,1.798320X1.798320*%
%ADD15R,2.032000X1.727200*%
%ADD16O,2.032000X1.727200*%
%ADD17O,1.524000X1.524000*%
%ADD18C,0.600000*%
%ADD19C,0.800000*%
%ADD20C,0.250000*%
%ADD21C,0.254000*%
G04 APERTURE END LIST*
D10*
D11*
X152950000Y-108529200D03*
X150410000Y-108529200D03*
X147870000Y-108529200D03*
X140250000Y-108529200D03*
X142790000Y-108529200D03*
X145330000Y-108529200D03*
X135170000Y-108529200D03*
X132630000Y-108529200D03*
X130090000Y-108529200D03*
X125010000Y-108529200D03*
X122470000Y-108529200D03*
X152950000Y-60269200D03*
X150410000Y-60269200D03*
X147870000Y-60269200D03*
X145330000Y-60269200D03*
X142790000Y-60269200D03*
X140250000Y-60269200D03*
X137710000Y-60269200D03*
X135170000Y-60269200D03*
X131106000Y-60269200D03*
X128566000Y-60269200D03*
X126026000Y-60269200D03*
X123486000Y-60269200D03*
X120946000Y-60269200D03*
X118406000Y-60269200D03*
X115866000Y-60269200D03*
X113326000Y-60269200D03*
X127550000Y-108529200D03*
X110786000Y-60269200D03*
X108246000Y-60269200D03*
X119930000Y-108529200D03*
X117390000Y-108529200D03*
D12*
X119500000Y-86500000D03*
D13*
X119500000Y-88500000D03*
D12*
X127000000Y-86500000D03*
D13*
X127000000Y-88500000D03*
D14*
X110750000Y-95500000D03*
X110750000Y-92002420D03*
D15*
X126000000Y-101500000D03*
D16*
X126000000Y-98960000D03*
X126000000Y-96420000D03*
D15*
X130500000Y-101500000D03*
D16*
X130500000Y-98960000D03*
X130500000Y-96420000D03*
D15*
X135000000Y-101500000D03*
D16*
X135000000Y-98960000D03*
X135000000Y-96420000D03*
D15*
X140000000Y-101500000D03*
D16*
X140000000Y-98960000D03*
X140000000Y-96420000D03*
D15*
X144500000Y-101500000D03*
D16*
X144500000Y-98960000D03*
X144500000Y-96420000D03*
D15*
X149500000Y-101500000D03*
D16*
X149500000Y-98960000D03*
X149500000Y-96420000D03*
D17*
X108500000Y-65000000D03*
X108500000Y-67540000D03*
X108500000Y-70080000D03*
X114500000Y-65000000D03*
X114500000Y-67540000D03*
X114500000Y-70080000D03*
X120500000Y-65000000D03*
X120500000Y-67540000D03*
X120500000Y-70080000D03*
X126500000Y-65000000D03*
X126500000Y-67540000D03*
X126500000Y-70080000D03*
X132500000Y-65000000D03*
X132500000Y-67540000D03*
X132500000Y-70080000D03*
X138500000Y-65000000D03*
X138500000Y-67540000D03*
X138500000Y-70080000D03*
X118000000Y-100000000D03*
X118000000Y-102540000D03*
D18*
X132750000Y-104250000D03*
X142000000Y-84250000D03*
X153000000Y-96500000D03*
X142000000Y-76250000D03*
X142000000Y-92250000D03*
D19*
X132500000Y-70080000D02*
X138500000Y-70080000D01*
X132630000Y-108529200D02*
X132630000Y-104370000D01*
X132630000Y-104370000D02*
X132750000Y-104250000D01*
D20*
X126500000Y-65000000D02*
X126500000Y-62500000D01*
X135979200Y-62000000D02*
X137710000Y-60269200D01*
X127000000Y-62000000D02*
X135979200Y-62000000D01*
X126500000Y-62500000D02*
X127000000Y-62000000D01*
X132500000Y-65000000D02*
X132500000Y-63000000D01*
X138019200Y-62500000D02*
X140250000Y-60269200D01*
X133000000Y-62500000D02*
X138019200Y-62500000D01*
X132500000Y-63000000D02*
X133000000Y-62500000D01*
X138500000Y-65000000D02*
X138500000Y-63250000D01*
X143349200Y-62250000D02*
X145330000Y-60269200D01*
X139500000Y-62250000D02*
X143349200Y-62250000D01*
X138500000Y-63250000D02*
X139500000Y-62250000D01*
D19*
X118000000Y-102540000D02*
X120290000Y-102540000D01*
X127550000Y-105550000D02*
X127550000Y-108529200D01*
X126500000Y-104500000D02*
X127550000Y-105550000D01*
X122250000Y-104500000D02*
X126500000Y-104500000D01*
X120290000Y-102540000D02*
X122250000Y-104500000D01*
D21*
G36*
X154759985Y-58725896D02*
X154768448Y-58731551D01*
X154774104Y-58740016D01*
X154790000Y-58819930D01*
X154790000Y-109680070D01*
X154774104Y-109759984D01*
X154768448Y-109768449D01*
X154759985Y-109774104D01*
X154680070Y-109790000D01*
X154119806Y-109790000D01*
X154240660Y-109609130D01*
X154347000Y-109074521D01*
X154347000Y-107983879D01*
X154240660Y-107449270D01*
X153937828Y-106996051D01*
X153484609Y-106693219D01*
X152950000Y-106586879D01*
X152415391Y-106693219D01*
X151962172Y-106996051D01*
X151680000Y-107418350D01*
X151397828Y-106996051D01*
X150944609Y-106693219D01*
X150410000Y-106586879D01*
X149875391Y-106693219D01*
X149422172Y-106996051D01*
X149140000Y-107418350D01*
X148857828Y-106996051D01*
X148404609Y-106693219D01*
X147870000Y-106586879D01*
X147335391Y-106693219D01*
X146882172Y-106996051D01*
X146600000Y-107418350D01*
X146317828Y-106996051D01*
X145864609Y-106693219D01*
X145330000Y-106586879D01*
X144795391Y-106693219D01*
X144342172Y-106996051D01*
X144060000Y-107418350D01*
X143777828Y-106996051D01*
X143324609Y-106693219D01*
X142790000Y-106586879D01*
X142255391Y-106693219D01*
X141802172Y-106996051D01*
X141520000Y-107418350D01*
X141237828Y-106996051D01*
X140784609Y-106693219D01*
X140250000Y-106586879D01*
X139715391Y-106693219D01*
X139262172Y-106996051D01*
X138959340Y-107449270D01*
X138853000Y-107983879D01*
X138853000Y-109074521D01*
X138959340Y-109609130D01*
X139080194Y-109790000D01*
X136339806Y-109790000D01*
X136460660Y-109609130D01*
X136567000Y-109074521D01*
X136567000Y-107983879D01*
X136460660Y-107449270D01*
X136157828Y-106996051D01*
X135704609Y-106693219D01*
X135170000Y-106586879D01*
X134635391Y-106693219D01*
X134182172Y-106996051D01*
X133900000Y-107418350D01*
X133665000Y-107066649D01*
X133665000Y-104707760D01*
X133706215Y-104646077D01*
X133785001Y-104250000D01*
X133706215Y-103853922D01*
X133481856Y-103518144D01*
X133146078Y-103293785D01*
X132750000Y-103214999D01*
X132353923Y-103293785D01*
X132018145Y-103518144D01*
X131898144Y-103638144D01*
X131673785Y-103973923D01*
X131594999Y-104370000D01*
X131595000Y-104370005D01*
X131595000Y-107066649D01*
X131360000Y-107418350D01*
X131077828Y-106996051D01*
X130624609Y-106693219D01*
X130090000Y-106586879D01*
X129555391Y-106693219D01*
X129102172Y-106996051D01*
X128820000Y-107418350D01*
X128585000Y-107066649D01*
X128585000Y-105550005D01*
X128585001Y-105550000D01*
X128506215Y-105153922D01*
X128416349Y-105019429D01*
X128281856Y-104818144D01*
X128281853Y-104818142D01*
X127231856Y-103768144D01*
X126896077Y-103543785D01*
X126500000Y-103464999D01*
X126499995Y-103465000D01*
X122678711Y-103465000D01*
X121021856Y-101808144D01*
X120686077Y-101583785D01*
X120290000Y-101504999D01*
X120289995Y-101505000D01*
X118944599Y-101505000D01*
X118562536Y-101249713D01*
X118835199Y-101119858D01*
X119200174Y-100714997D01*
X119232727Y-100636400D01*
X124336560Y-100636400D01*
X124336560Y-102363600D01*
X124380838Y-102598917D01*
X124519910Y-102815041D01*
X124732110Y-102960031D01*
X124984000Y-103011040D01*
X127016000Y-103011040D01*
X127251317Y-102966762D01*
X127467441Y-102827690D01*
X127612431Y-102615490D01*
X127663440Y-102363600D01*
X127663440Y-100636400D01*
X128836560Y-100636400D01*
X128836560Y-102363600D01*
X128880838Y-102598917D01*
X129019910Y-102815041D01*
X129232110Y-102960031D01*
X129484000Y-103011040D01*
X131516000Y-103011040D01*
X131751317Y-102966762D01*
X131967441Y-102827690D01*
X132112431Y-102615490D01*
X132163440Y-102363600D01*
X132163440Y-100636400D01*
X133336560Y-100636400D01*
X133336560Y-102363600D01*
X133380838Y-102598917D01*
X133519910Y-102815041D01*
X133732110Y-102960031D01*
X133984000Y-103011040D01*
X136016000Y-103011040D01*
X136251317Y-102966762D01*
X136467441Y-102827690D01*
X136612431Y-102615490D01*
X136663440Y-102363600D01*
X136663440Y-100636400D01*
X138336560Y-100636400D01*
X138336560Y-102363600D01*
X138380838Y-102598917D01*
X138519910Y-102815041D01*
X138732110Y-102960031D01*
X138984000Y-103011040D01*
X141016000Y-103011040D01*
X141251317Y-102966762D01*
X141467441Y-102827690D01*
X141612431Y-102615490D01*
X141663440Y-102363600D01*
X141663440Y-100636400D01*
X142836560Y-100636400D01*
X142836560Y-102363600D01*
X142880838Y-102598917D01*
X143019910Y-102815041D01*
X143232110Y-102960031D01*
X143484000Y-103011040D01*
X145516000Y-103011040D01*
X145751317Y-102966762D01*
X145967441Y-102827690D01*
X146112431Y-102615490D01*
X146163440Y-102363600D01*
X146163440Y-100636400D01*
X147836560Y-100636400D01*
X147836560Y-102363600D01*
X147880838Y-102598917D01*
X148019910Y-102815041D01*
X148232110Y-102960031D01*
X148484000Y-103011040D01*
X150516000Y-103011040D01*
X150751317Y-102966762D01*
X150967441Y-102827690D01*
X151112431Y-102615490D01*
X151163440Y-102363600D01*
X151163440Y-100636400D01*
X151119162Y-100401083D01*
X150980090Y-100184959D01*
X150767890Y-100039969D01*
X150673073Y-100020768D01*
X150850732Y-99862036D01*
X151104709Y-99334791D01*
X151107358Y-99319026D01*
X150986217Y-99087000D01*
X149627000Y-99087000D01*
X149627000Y-99107000D01*
X149373000Y-99107000D01*
X149373000Y-99087000D01*
X148013783Y-99087000D01*
X147892642Y-99319026D01*
X147895291Y-99334791D01*
X148149268Y-99862036D01*
X148324845Y-100018907D01*
X148248683Y-100033238D01*
X148032559Y-100172310D01*
X147887569Y-100384510D01*
X147836560Y-100636400D01*
X146163440Y-100636400D01*
X146119162Y-100401083D01*
X145980090Y-100184959D01*
X145767890Y-100039969D01*
X145673073Y-100020768D01*
X145850732Y-99862036D01*
X146104709Y-99334791D01*
X146107358Y-99319026D01*
X145986217Y-99087000D01*
X144627000Y-99087000D01*
X144627000Y-99107000D01*
X144373000Y-99107000D01*
X144373000Y-99087000D01*
X143013783Y-99087000D01*
X142892642Y-99319026D01*
X142895291Y-99334791D01*
X143149268Y-99862036D01*
X143324845Y-100018907D01*
X143248683Y-100033238D01*
X143032559Y-100172310D01*
X142887569Y-100384510D01*
X142836560Y-100636400D01*
X141663440Y-100636400D01*
X141619162Y-100401083D01*
X141480090Y-100184959D01*
X141267890Y-100039969D01*
X141173073Y-100020768D01*
X141350732Y-99862036D01*
X141604709Y-99334791D01*
X141607358Y-99319026D01*
X141486217Y-99087000D01*
X140127000Y-99087000D01*
X140127000Y-99107000D01*
X139873000Y-99107000D01*
X139873000Y-99087000D01*
X138513783Y-99087000D01*
X138392642Y-99319026D01*
X138395291Y-99334791D01*
X138649268Y-99862036D01*
X138824845Y-100018907D01*
X138748683Y-100033238D01*
X138532559Y-100172310D01*
X138387569Y-100384510D01*
X138336560Y-100636400D01*
X136663440Y-100636400D01*
X136619162Y-100401083D01*
X136480090Y-100184959D01*
X136267890Y-100039969D01*
X136173073Y-100020768D01*
X136350732Y-99862036D01*
X136604709Y-99334791D01*
X136607358Y-99319026D01*
X136486217Y-99087000D01*
X135127000Y-99087000D01*
X135127000Y-99107000D01*
X134873000Y-99107000D01*
X134873000Y-99087000D01*
X133513783Y-99087000D01*
X133392642Y-99319026D01*
X133395291Y-99334791D01*
X133649268Y-99862036D01*
X133824845Y-100018907D01*
X133748683Y-100033238D01*
X133532559Y-100172310D01*
X133387569Y-100384510D01*
X133336560Y-100636400D01*
X132163440Y-100636400D01*
X132119162Y-100401083D01*
X131980090Y-100184959D01*
X131767890Y-100039969D01*
X131673073Y-100020768D01*
X131850732Y-99862036D01*
X132104709Y-99334791D01*
X132107358Y-99319026D01*
X131986217Y-99087000D01*
X130627000Y-99087000D01*
X130627000Y-99107000D01*
X130373000Y-99107000D01*
X130373000Y-99087000D01*
X129013783Y-99087000D01*
X128892642Y-99319026D01*
X128895291Y-99334791D01*
X129149268Y-99862036D01*
X129324845Y-100018907D01*
X129248683Y-100033238D01*
X129032559Y-100172310D01*
X128887569Y-100384510D01*
X128836560Y-100636400D01*
X127663440Y-100636400D01*
X127619162Y-100401083D01*
X127480090Y-100184959D01*
X127267890Y-100039969D01*
X127173073Y-100020768D01*
X127350732Y-99862036D01*
X127604709Y-99334791D01*
X127607358Y-99319026D01*
X127486217Y-99087000D01*
X126127000Y-99087000D01*
X126127000Y-99107000D01*
X125873000Y-99107000D01*
X125873000Y-99087000D01*
X124513783Y-99087000D01*
X124392642Y-99319026D01*
X124395291Y-99334791D01*
X124649268Y-99862036D01*
X124824845Y-100018907D01*
X124748683Y-100033238D01*
X124532559Y-100172310D01*
X124387569Y-100384510D01*
X124336560Y-100636400D01*
X119232727Y-100636400D01*
X119354220Y-100343070D01*
X119231720Y-100127000D01*
X118127000Y-100127000D01*
X118127000Y-100147000D01*
X117873000Y-100147000D01*
X117873000Y-100127000D01*
X116768280Y-100127000D01*
X116645780Y-100343070D01*
X116799826Y-100714997D01*
X117164801Y-101119858D01*
X117437464Y-101249713D01*
X116984803Y-101552172D01*
X116681971Y-102005391D01*
X116575631Y-102540000D01*
X116681971Y-103074609D01*
X116984803Y-103527828D01*
X117438022Y-103830660D01*
X117972631Y-103937000D01*
X118027369Y-103937000D01*
X118561978Y-103830660D01*
X118944599Y-103575000D01*
X119861288Y-103575000D01*
X121518142Y-105231853D01*
X121518144Y-105231856D01*
X121853923Y-105456215D01*
X122250000Y-105535001D01*
X122250005Y-105535000D01*
X126071288Y-105535000D01*
X126515000Y-105978711D01*
X126515000Y-107066649D01*
X126280000Y-107418350D01*
X125997828Y-106996051D01*
X125544609Y-106693219D01*
X125010000Y-106586879D01*
X124475391Y-106693219D01*
X124022172Y-106996051D01*
X123740000Y-107418350D01*
X123457828Y-106996051D01*
X123004609Y-106693219D01*
X122470000Y-106586879D01*
X121935391Y-106693219D01*
X121482172Y-106996051D01*
X121200000Y-107418350D01*
X120917828Y-106996051D01*
X120464609Y-106693219D01*
X119930000Y-106586879D01*
X119395391Y-106693219D01*
X118942172Y-106996051D01*
X118660000Y-107418350D01*
X118377828Y-106996051D01*
X117924609Y-106693219D01*
X117390000Y-106586879D01*
X116855391Y-106693219D01*
X116402172Y-106996051D01*
X116099340Y-107449270D01*
X115993000Y-107983879D01*
X115993000Y-109074521D01*
X116099340Y-109609130D01*
X116220194Y-109790000D01*
X107569930Y-109790000D01*
X107490016Y-109774104D01*
X107481551Y-109768448D01*
X107475896Y-109759985D01*
X107460000Y-109680070D01*
X107460000Y-99656930D01*
X116645780Y-99656930D01*
X116768280Y-99873000D01*
X117873000Y-99873000D01*
X117873000Y-98767524D01*
X118127000Y-98767524D01*
X118127000Y-99873000D01*
X119231720Y-99873000D01*
X119354220Y-99656930D01*
X119200174Y-99285003D01*
X118835199Y-98880142D01*
X118343072Y-98645769D01*
X118127000Y-98767524D01*
X117873000Y-98767524D01*
X117656928Y-98645769D01*
X117164801Y-98880142D01*
X116799826Y-99285003D01*
X116645780Y-99656930D01*
X107460000Y-99656930D01*
X107460000Y-95469944D01*
X109215840Y-95469944D01*
X109215840Y-95530056D01*
X109332621Y-96117154D01*
X109665185Y-96614871D01*
X110162902Y-96947435D01*
X110750000Y-97064216D01*
X111337098Y-96947435D01*
X111834815Y-96614871D01*
X111965023Y-96420000D01*
X124316655Y-96420000D01*
X124430729Y-96993489D01*
X124755585Y-97479670D01*
X125065069Y-97686461D01*
X124649268Y-98057964D01*
X124395291Y-98585209D01*
X124392642Y-98600974D01*
X124513783Y-98833000D01*
X125873000Y-98833000D01*
X125873000Y-98813000D01*
X126127000Y-98813000D01*
X126127000Y-98833000D01*
X127486217Y-98833000D01*
X127607358Y-98600974D01*
X127604709Y-98585209D01*
X127350732Y-98057964D01*
X126934931Y-97686461D01*
X127244415Y-97479670D01*
X127569271Y-96993489D01*
X127683345Y-96420000D01*
X128816655Y-96420000D01*
X128930729Y-96993489D01*
X129255585Y-97479670D01*
X129565069Y-97686461D01*
X129149268Y-98057964D01*
X128895291Y-98585209D01*
X128892642Y-98600974D01*
X129013783Y-98833000D01*
X130373000Y-98833000D01*
X130373000Y-98813000D01*
X130627000Y-98813000D01*
X130627000Y-98833000D01*
X131986217Y-98833000D01*
X132107358Y-98600974D01*
X132104709Y-98585209D01*
X131850732Y-98057964D01*
X131434931Y-97686461D01*
X131744415Y-97479670D01*
X132069271Y-96993489D01*
X132183345Y-96420000D01*
X133316655Y-96420000D01*
X133430729Y-96993489D01*
X133755585Y-97479670D01*
X134065069Y-97686461D01*
X133649268Y-98057964D01*
X133395291Y-98585209D01*
X133392642Y-98600974D01*
X133513783Y-98833000D01*
X134873000Y-98833000D01*
X134873000Y-98813000D01*
X135127000Y-98813000D01*
X135127000Y-98833000D01*
X136486217Y-98833000D01*
X136607358Y-98600974D01*
X136604709Y-98585209D01*
X136350732Y-98057964D01*
X135934931Y-97686461D01*
X136244415Y-97479670D01*
X136569271Y-96993489D01*
X136683345Y-96420000D01*
X138316655Y-96420000D01*
X138430729Y-96993489D01*
X138755585Y-97479670D01*
X139065069Y-97686461D01*
X138649268Y-98057964D01*
X138395291Y-98585209D01*
X138392642Y-98600974D01*
X138513783Y-98833000D01*
X139873000Y-98833000D01*
X139873000Y-98813000D01*
X140127000Y-98813000D01*
X140127000Y-98833000D01*
X141486217Y-98833000D01*
X141607358Y-98600974D01*
X141604709Y-98585209D01*
X141350732Y-98057964D01*
X140934931Y-97686461D01*
X141244415Y-97479670D01*
X141569271Y-96993489D01*
X141683345Y-96420000D01*
X142816655Y-96420000D01*
X142930729Y-96993489D01*
X143255585Y-97479670D01*
X143565069Y-97686461D01*
X143149268Y-98057964D01*
X142895291Y-98585209D01*
X142892642Y-98600974D01*
X143013783Y-98833000D01*
X144373000Y-98833000D01*
X144373000Y-98813000D01*
X144627000Y-98813000D01*
X144627000Y-98833000D01*
X145986217Y-98833000D01*
X146107358Y-98600974D01*
X146104709Y-98585209D01*
X145850732Y-98057964D01*
X145434931Y-97686461D01*
X145744415Y-97479670D01*
X146069271Y-96993489D01*
X146183345Y-96420000D01*
X147816655Y-96420000D01*
X147930729Y-96993489D01*
X148255585Y-97479670D01*
X148565069Y-97686461D01*
X148149268Y-98057964D01*
X147895291Y-98585209D01*
X147892642Y-98600974D01*
X148013783Y-98833000D01*
X149373000Y-98833000D01*
X149373000Y-98813000D01*
X149627000Y-98813000D01*
X149627000Y-98833000D01*
X150986217Y-98833000D01*
X151107358Y-98600974D01*
X151104709Y-98585209D01*
X150850732Y-98057964D01*
X150434931Y-97686461D01*
X150744415Y-97479670D01*
X151069271Y-96993489D01*
X151183345Y-96420000D01*
X151069271Y-95846511D01*
X150744415Y-95360330D01*
X150258234Y-95035474D01*
X149684745Y-94921400D01*
X149315255Y-94921400D01*
X148741766Y-95035474D01*
X148255585Y-95360330D01*
X147930729Y-95846511D01*
X147816655Y-96420000D01*
X146183345Y-96420000D01*
X146069271Y-95846511D01*
X145744415Y-95360330D01*
X145258234Y-95035474D01*
X144684745Y-94921400D01*
X144315255Y-94921400D01*
X143741766Y-95035474D01*
X143255585Y-95360330D01*
X142930729Y-95846511D01*
X142816655Y-96420000D01*
X141683345Y-96420000D01*
X141569271Y-95846511D01*
X141244415Y-95360330D01*
X140758234Y-95035474D01*
X140184745Y-94921400D01*
X139815255Y-94921400D01*
X139241766Y-95035474D01*
X138755585Y-95360330D01*
X138430729Y-95846511D01*
X138316655Y-96420000D01*
X136683345Y-96420000D01*
X136569271Y-95846511D01*
X136244415Y-95360330D01*
X135758234Y-95035474D01*
X135184745Y-94921400D01*
X134815255Y-94921400D01*
X134241766Y-95035474D01*
X133755585Y-95360330D01*
X133430729Y-95846511D01*
X133316655Y-96420000D01*
X132183345Y-96420000D01*
X132069271Y-95846511D01*
X131744415Y-95360330D01*
X131258234Y-95035474D01*
X130684745Y-94921400D01*
X130315255Y-94921400D01*
X129741766Y-95035474D01*
X129255585Y-95360330D01*
X128930729Y-95846511D01*
X128816655Y-96420000D01*
X127683345Y-96420000D01*
X127569271Y-95846511D01*
X127244415Y-95360330D01*
X126758234Y-95035474D01*
X126184745Y-94921400D01*
X125815255Y-94921400D01*
X125241766Y-95035474D01*
X124755585Y-95360330D01*
X124430729Y-95846511D01*
X124316655Y-96420000D01*
X111965023Y-96420000D01*
X112167379Y-96117154D01*
X112284160Y-95530056D01*
X112284160Y-95469944D01*
X112167379Y-94882846D01*
X111834815Y-94385129D01*
X111337098Y-94052565D01*
X110750000Y-93935784D01*
X110162902Y-94052565D01*
X109665185Y-94385129D01*
X109332621Y-94882846D01*
X109215840Y-95469944D01*
X107460000Y-95469944D01*
X107460000Y-91972364D01*
X109215840Y-91972364D01*
X109215840Y-92032476D01*
X109332621Y-92619574D01*
X109665185Y-93117291D01*
X110162902Y-93449855D01*
X110750000Y-93566636D01*
X111337098Y-93449855D01*
X111834815Y-93117291D01*
X112167379Y-92619574D01*
X112284160Y-92032476D01*
X112284160Y-91972364D01*
X112167379Y-91385266D01*
X111834815Y-90887549D01*
X111337098Y-90554985D01*
X110750000Y-90438204D01*
X110162902Y-90554985D01*
X109665185Y-90887549D01*
X109332621Y-91385266D01*
X109215840Y-91972364D01*
X107460000Y-91972364D01*
X107460000Y-85850000D01*
X118202560Y-85850000D01*
X118202560Y-87150000D01*
X118246838Y-87385317D01*
X118385910Y-87601441D01*
X118501891Y-87680687D01*
X118411265Y-87771155D01*
X118215223Y-88243276D01*
X118214777Y-88754481D01*
X118409995Y-89226943D01*
X118771155Y-89588735D01*
X119243276Y-89784777D01*
X119754481Y-89785223D01*
X120226943Y-89590005D01*
X120588735Y-89228845D01*
X120784777Y-88756724D01*
X120784778Y-88754481D01*
X125714777Y-88754481D01*
X125909995Y-89226943D01*
X126271155Y-89588735D01*
X126743276Y-89784777D01*
X127254481Y-89785223D01*
X127726943Y-89590005D01*
X128088735Y-89228845D01*
X128284777Y-88756724D01*
X128285223Y-88245519D01*
X128090005Y-87773057D01*
X128006674Y-87689580D01*
X128009699Y-87688327D01*
X128188327Y-87509698D01*
X128285000Y-87276309D01*
X128285000Y-86785750D01*
X128126250Y-86627000D01*
X127127000Y-86627000D01*
X127127000Y-86647000D01*
X126873000Y-86647000D01*
X126873000Y-86627000D01*
X125873750Y-86627000D01*
X125715000Y-86785750D01*
X125715000Y-87276309D01*
X125811673Y-87509698D01*
X125990301Y-87688327D01*
X125993083Y-87689480D01*
X125911265Y-87771155D01*
X125715223Y-88243276D01*
X125714777Y-88754481D01*
X120784778Y-88754481D01*
X120785223Y-88245519D01*
X120590005Y-87773057D01*
X120497855Y-87680746D01*
X120601441Y-87614090D01*
X120746431Y-87401890D01*
X120797440Y-87150000D01*
X120797440Y-85850000D01*
X120773674Y-85723691D01*
X125715000Y-85723691D01*
X125715000Y-86214250D01*
X125873750Y-86373000D01*
X126873000Y-86373000D01*
X126873000Y-85373750D01*
X127127000Y-85373750D01*
X127127000Y-86373000D01*
X128126250Y-86373000D01*
X128285000Y-86214250D01*
X128285000Y-85723691D01*
X128188327Y-85490302D01*
X128009699Y-85311673D01*
X127776310Y-85215000D01*
X127285750Y-85215000D01*
X127127000Y-85373750D01*
X126873000Y-85373750D01*
X126714250Y-85215000D01*
X126223690Y-85215000D01*
X125990301Y-85311673D01*
X125811673Y-85490302D01*
X125715000Y-85723691D01*
X120773674Y-85723691D01*
X120753162Y-85614683D01*
X120614090Y-85398559D01*
X120401890Y-85253569D01*
X120150000Y-85202560D01*
X118850000Y-85202560D01*
X118614683Y-85246838D01*
X118398559Y-85385910D01*
X118253569Y-85598110D01*
X118202560Y-85850000D01*
X107460000Y-85850000D01*
X107460000Y-71030708D01*
X107484803Y-71067828D01*
X107938022Y-71370660D01*
X108472631Y-71477000D01*
X108527369Y-71477000D01*
X109061978Y-71370660D01*
X109515197Y-71067828D01*
X109818029Y-70614609D01*
X109924369Y-70080000D01*
X113075631Y-70080000D01*
X113181971Y-70614609D01*
X113484803Y-71067828D01*
X113938022Y-71370660D01*
X114472631Y-71477000D01*
X114527369Y-71477000D01*
X115061978Y-71370660D01*
X115515197Y-71067828D01*
X115818029Y-70614609D01*
X115924369Y-70080000D01*
X119075631Y-70080000D01*
X119181971Y-70614609D01*
X119484803Y-71067828D01*
X119938022Y-71370660D01*
X120472631Y-71477000D01*
X120527369Y-71477000D01*
X121061978Y-71370660D01*
X121515197Y-71067828D01*
X121818029Y-70614609D01*
X121924369Y-70080000D01*
X125075631Y-70080000D01*
X125181971Y-70614609D01*
X125484803Y-71067828D01*
X125938022Y-71370660D01*
X126472631Y-71477000D01*
X126527369Y-71477000D01*
X127061978Y-71370660D01*
X127515197Y-71067828D01*
X127818029Y-70614609D01*
X127924369Y-70080000D01*
X131075631Y-70080000D01*
X131181971Y-70614609D01*
X131484803Y-71067828D01*
X131938022Y-71370660D01*
X132472631Y-71477000D01*
X132527369Y-71477000D01*
X133061978Y-71370660D01*
X133444599Y-71115000D01*
X137555401Y-71115000D01*
X137938022Y-71370660D01*
X138472631Y-71477000D01*
X138527369Y-71477000D01*
X139061978Y-71370660D01*
X139515197Y-71067828D01*
X139818029Y-70614609D01*
X139924369Y-70080000D01*
X139818029Y-69545391D01*
X139515197Y-69092172D01*
X139062536Y-68789713D01*
X139335199Y-68659858D01*
X139700174Y-68254997D01*
X139854220Y-67883070D01*
X139731720Y-67667000D01*
X138627000Y-67667000D01*
X138627000Y-67687000D01*
X138373000Y-67687000D01*
X138373000Y-67667000D01*
X137268280Y-67667000D01*
X137145780Y-67883070D01*
X137299826Y-68254997D01*
X137664801Y-68659858D01*
X137937464Y-68789713D01*
X137555401Y-69045000D01*
X133444599Y-69045000D01*
X133062536Y-68789713D01*
X133335199Y-68659858D01*
X133700174Y-68254997D01*
X133854220Y-67883070D01*
X133731720Y-67667000D01*
X132627000Y-67667000D01*
X132627000Y-67687000D01*
X132373000Y-67687000D01*
X132373000Y-67667000D01*
X131268280Y-67667000D01*
X131145780Y-67883070D01*
X131299826Y-68254997D01*
X131664801Y-68659858D01*
X131937464Y-68789713D01*
X131484803Y-69092172D01*
X131181971Y-69545391D01*
X131075631Y-70080000D01*
X127924369Y-70080000D01*
X127818029Y-69545391D01*
X127515197Y-69092172D01*
X127062536Y-68789713D01*
X127335199Y-68659858D01*
X127700174Y-68254997D01*
X127854220Y-67883070D01*
X127731720Y-67667000D01*
X126627000Y-67667000D01*
X126627000Y-67687000D01*
X126373000Y-67687000D01*
X126373000Y-67667000D01*
X125268280Y-67667000D01*
X125145780Y-67883070D01*
X125299826Y-68254997D01*
X125664801Y-68659858D01*
X125937464Y-68789713D01*
X125484803Y-69092172D01*
X125181971Y-69545391D01*
X125075631Y-70080000D01*
X121924369Y-70080000D01*
X121818029Y-69545391D01*
X121515197Y-69092172D01*
X121062536Y-68789713D01*
X121335199Y-68659858D01*
X121700174Y-68254997D01*
X121854220Y-67883070D01*
X121731720Y-67667000D01*
X120627000Y-67667000D01*
X120627000Y-67687000D01*
X120373000Y-67687000D01*
X120373000Y-67667000D01*
X119268280Y-67667000D01*
X119145780Y-67883070D01*
X119299826Y-68254997D01*
X119664801Y-68659858D01*
X119937464Y-68789713D01*
X119484803Y-69092172D01*
X119181971Y-69545391D01*
X119075631Y-70080000D01*
X115924369Y-70080000D01*
X115818029Y-69545391D01*
X115515197Y-69092172D01*
X115062536Y-68789713D01*
X115335199Y-68659858D01*
X115700174Y-68254997D01*
X115854220Y-67883070D01*
X115731720Y-67667000D01*
X114627000Y-67667000D01*
X114627000Y-67687000D01*
X114373000Y-67687000D01*
X114373000Y-67667000D01*
X113268280Y-67667000D01*
X113145780Y-67883070D01*
X113299826Y-68254997D01*
X113664801Y-68659858D01*
X113937464Y-68789713D01*
X113484803Y-69092172D01*
X113181971Y-69545391D01*
X113075631Y-70080000D01*
X109924369Y-70080000D01*
X109818029Y-69545391D01*
X109515197Y-69092172D01*
X109062536Y-68789713D01*
X109335199Y-68659858D01*
X109700174Y-68254997D01*
X109854220Y-67883070D01*
X109731720Y-67667000D01*
X108627000Y-67667000D01*
X108627000Y-67687000D01*
X108373000Y-67687000D01*
X108373000Y-67667000D01*
X108353000Y-67667000D01*
X108353000Y-67413000D01*
X108373000Y-67413000D01*
X108373000Y-67393000D01*
X108627000Y-67393000D01*
X108627000Y-67413000D01*
X109731720Y-67413000D01*
X109854220Y-67196930D01*
X109700174Y-66825003D01*
X109335199Y-66420142D01*
X109062536Y-66290287D01*
X109515197Y-65987828D01*
X109818029Y-65534609D01*
X109924369Y-65000000D01*
X113075631Y-65000000D01*
X113181971Y-65534609D01*
X113484803Y-65987828D01*
X113937464Y-66290287D01*
X113664801Y-66420142D01*
X113299826Y-66825003D01*
X113145780Y-67196930D01*
X113268280Y-67413000D01*
X114373000Y-67413000D01*
X114373000Y-67393000D01*
X114627000Y-67393000D01*
X114627000Y-67413000D01*
X115731720Y-67413000D01*
X115854220Y-67196930D01*
X115700174Y-66825003D01*
X115335199Y-66420142D01*
X115062536Y-66290287D01*
X115515197Y-65987828D01*
X115818029Y-65534609D01*
X115924369Y-65000000D01*
X119075631Y-65000000D01*
X119181971Y-65534609D01*
X119484803Y-65987828D01*
X119937464Y-66290287D01*
X119664801Y-66420142D01*
X119299826Y-66825003D01*
X119145780Y-67196930D01*
X119268280Y-67413000D01*
X120373000Y-67413000D01*
X120373000Y-67393000D01*
X120627000Y-67393000D01*
X120627000Y-67413000D01*
X121731720Y-67413000D01*
X121854220Y-67196930D01*
X121700174Y-66825003D01*
X121335199Y-66420142D01*
X121062536Y-66290287D01*
X121515197Y-65987828D01*
X121818029Y-65534609D01*
X121924369Y-65000000D01*
X121818029Y-64465391D01*
X121515197Y-64012172D01*
X121061978Y-63709340D01*
X120527369Y-63603000D01*
X120472631Y-63603000D01*
X119938022Y-63709340D01*
X119484803Y-64012172D01*
X119181971Y-64465391D01*
X119075631Y-65000000D01*
X115924369Y-65000000D01*
X115818029Y-64465391D01*
X115515197Y-64012172D01*
X115061978Y-63709340D01*
X114527369Y-63603000D01*
X114472631Y-63603000D01*
X113938022Y-63709340D01*
X113484803Y-64012172D01*
X113181971Y-64465391D01*
X113075631Y-65000000D01*
X109924369Y-65000000D01*
X109818029Y-64465391D01*
X109515197Y-64012172D01*
X109061978Y-63709340D01*
X108527369Y-63603000D01*
X108472631Y-63603000D01*
X107938022Y-63709340D01*
X107484803Y-64012172D01*
X107460000Y-64049292D01*
X107460000Y-61937206D01*
X107711391Y-62105181D01*
X108246000Y-62211521D01*
X108780609Y-62105181D01*
X109233828Y-61802349D01*
X109516000Y-61380050D01*
X109798172Y-61802349D01*
X110251391Y-62105181D01*
X110786000Y-62211521D01*
X111320609Y-62105181D01*
X111773828Y-61802349D01*
X112056000Y-61380050D01*
X112338172Y-61802349D01*
X112791391Y-62105181D01*
X113326000Y-62211521D01*
X113860609Y-62105181D01*
X114313828Y-61802349D01*
X114596000Y-61380050D01*
X114878172Y-61802349D01*
X115331391Y-62105181D01*
X115866000Y-62211521D01*
X116400609Y-62105181D01*
X116853828Y-61802349D01*
X117136000Y-61380050D01*
X117418172Y-61802349D01*
X117871391Y-62105181D01*
X118406000Y-62211521D01*
X118940609Y-62105181D01*
X119393828Y-61802349D01*
X119676000Y-61380050D01*
X119958172Y-61802349D01*
X120411391Y-62105181D01*
X120946000Y-62211521D01*
X121480609Y-62105181D01*
X121933828Y-61802349D01*
X122216000Y-61380050D01*
X122498172Y-61802349D01*
X122951391Y-62105181D01*
X123486000Y-62211521D01*
X124020609Y-62105181D01*
X124473828Y-61802349D01*
X124756000Y-61380050D01*
X125038172Y-61802349D01*
X125491391Y-62105181D01*
X125823225Y-62171187D01*
X125797852Y-62209161D01*
X125740000Y-62500000D01*
X125740000Y-63841654D01*
X125484803Y-64012172D01*
X125181971Y-64465391D01*
X125075631Y-65000000D01*
X125181971Y-65534609D01*
X125484803Y-65987828D01*
X125937464Y-66290287D01*
X125664801Y-66420142D01*
X125299826Y-66825003D01*
X125145780Y-67196930D01*
X125268280Y-67413000D01*
X126373000Y-67413000D01*
X126373000Y-67393000D01*
X126627000Y-67393000D01*
X126627000Y-67413000D01*
X127731720Y-67413000D01*
X127854220Y-67196930D01*
X127700174Y-66825003D01*
X127335199Y-66420142D01*
X127062536Y-66290287D01*
X127515197Y-65987828D01*
X127818029Y-65534609D01*
X127924369Y-65000000D01*
X127818029Y-64465391D01*
X127515197Y-64012172D01*
X127260000Y-63841654D01*
X127260000Y-62814802D01*
X127314802Y-62760000D01*
X131787739Y-62760000D01*
X131740000Y-63000000D01*
X131740000Y-63841654D01*
X131484803Y-64012172D01*
X131181971Y-64465391D01*
X131075631Y-65000000D01*
X131181971Y-65534609D01*
X131484803Y-65987828D01*
X131937464Y-66290287D01*
X131664801Y-66420142D01*
X131299826Y-66825003D01*
X131145780Y-67196930D01*
X131268280Y-67413000D01*
X132373000Y-67413000D01*
X132373000Y-67393000D01*
X132627000Y-67393000D01*
X132627000Y-67413000D01*
X133731720Y-67413000D01*
X133854220Y-67196930D01*
X133700174Y-66825003D01*
X133335199Y-66420142D01*
X133062536Y-66290287D01*
X133515197Y-65987828D01*
X133818029Y-65534609D01*
X133924369Y-65000000D01*
X133818029Y-64465391D01*
X133515197Y-64012172D01*
X133260000Y-63841654D01*
X133260000Y-63314802D01*
X133314802Y-63260000D01*
X137740000Y-63260000D01*
X137740000Y-63841654D01*
X137484803Y-64012172D01*
X137181971Y-64465391D01*
X137075631Y-65000000D01*
X137181971Y-65534609D01*
X137484803Y-65987828D01*
X137937464Y-66290287D01*
X137664801Y-66420142D01*
X137299826Y-66825003D01*
X137145780Y-67196930D01*
X137268280Y-67413000D01*
X138373000Y-67413000D01*
X138373000Y-67393000D01*
X138627000Y-67393000D01*
X138627000Y-67413000D01*
X139731720Y-67413000D01*
X139854220Y-67196930D01*
X139700174Y-66825003D01*
X139335199Y-66420142D01*
X139062536Y-66290287D01*
X139515197Y-65987828D01*
X139818029Y-65534609D01*
X139924369Y-65000000D01*
X139818029Y-64465391D01*
X139515197Y-64012172D01*
X139260000Y-63841654D01*
X139260000Y-63564802D01*
X139814802Y-63010000D01*
X143349200Y-63010000D01*
X143640039Y-62952148D01*
X143886601Y-62787401D01*
X144659572Y-62014430D01*
X144795391Y-62105181D01*
X145330000Y-62211521D01*
X145864609Y-62105181D01*
X146317828Y-61802349D01*
X146600000Y-61380050D01*
X146882172Y-61802349D01*
X147335391Y-62105181D01*
X147870000Y-62211521D01*
X148404609Y-62105181D01*
X148857828Y-61802349D01*
X149140000Y-61380050D01*
X149422172Y-61802349D01*
X149875391Y-62105181D01*
X150410000Y-62211521D01*
X150944609Y-62105181D01*
X151397828Y-61802349D01*
X151680000Y-61380050D01*
X151962172Y-61802349D01*
X152415391Y-62105181D01*
X152950000Y-62211521D01*
X153484609Y-62105181D01*
X153937828Y-61802349D01*
X154240660Y-61349130D01*
X154347000Y-60814521D01*
X154347000Y-59723879D01*
X154240660Y-59189270D01*
X153937828Y-58736051D01*
X153898840Y-58710000D01*
X154680070Y-58710000D01*
X154759985Y-58725896D01*
X154759985Y-58725896D01*
G37*
X154759985Y-58725896D02*
X154768448Y-58731551D01*
X154774104Y-58740016D01*
X154790000Y-58819930D01*
X154790000Y-109680070D01*
X154774104Y-109759984D01*
X154768448Y-109768449D01*
X154759985Y-109774104D01*
X154680070Y-109790000D01*
X154119806Y-109790000D01*
X154240660Y-109609130D01*
X154347000Y-109074521D01*
X154347000Y-107983879D01*
X154240660Y-107449270D01*
X153937828Y-106996051D01*
X153484609Y-106693219D01*
X152950000Y-106586879D01*
X152415391Y-106693219D01*
X151962172Y-106996051D01*
X151680000Y-107418350D01*
X151397828Y-106996051D01*
X150944609Y-106693219D01*
X150410000Y-106586879D01*
X149875391Y-106693219D01*
X149422172Y-106996051D01*
X149140000Y-107418350D01*
X148857828Y-106996051D01*
X148404609Y-106693219D01*
X147870000Y-106586879D01*
X147335391Y-106693219D01*
X146882172Y-106996051D01*
X146600000Y-107418350D01*
X146317828Y-106996051D01*
X145864609Y-106693219D01*
X145330000Y-106586879D01*
X144795391Y-106693219D01*
X144342172Y-106996051D01*
X144060000Y-107418350D01*
X143777828Y-106996051D01*
X143324609Y-106693219D01*
X142790000Y-106586879D01*
X142255391Y-106693219D01*
X141802172Y-106996051D01*
X141520000Y-107418350D01*
X141237828Y-106996051D01*
X140784609Y-106693219D01*
X140250000Y-106586879D01*
X139715391Y-106693219D01*
X139262172Y-106996051D01*
X138959340Y-107449270D01*
X138853000Y-107983879D01*
X138853000Y-109074521D01*
X138959340Y-109609130D01*
X139080194Y-109790000D01*
X136339806Y-109790000D01*
X136460660Y-109609130D01*
X136567000Y-109074521D01*
X136567000Y-107983879D01*
X136460660Y-107449270D01*
X136157828Y-106996051D01*
X135704609Y-106693219D01*
X135170000Y-106586879D01*
X134635391Y-106693219D01*
X134182172Y-106996051D01*
X133900000Y-107418350D01*
X133665000Y-107066649D01*
X133665000Y-104707760D01*
X133706215Y-104646077D01*
X133785001Y-104250000D01*
X133706215Y-103853922D01*
X133481856Y-103518144D01*
X133146078Y-103293785D01*
X132750000Y-103214999D01*
X132353923Y-103293785D01*
X132018145Y-103518144D01*
X131898144Y-103638144D01*
X131673785Y-103973923D01*
X131594999Y-104370000D01*
X131595000Y-104370005D01*
X131595000Y-107066649D01*
X131360000Y-107418350D01*
X131077828Y-106996051D01*
X130624609Y-106693219D01*
X130090000Y-106586879D01*
X129555391Y-106693219D01*
X129102172Y-106996051D01*
X128820000Y-107418350D01*
X128585000Y-107066649D01*
X128585000Y-105550005D01*
X128585001Y-105550000D01*
X128506215Y-105153922D01*
X128416349Y-105019429D01*
X128281856Y-104818144D01*
X128281853Y-104818142D01*
X127231856Y-103768144D01*
X126896077Y-103543785D01*
X126500000Y-103464999D01*
X126499995Y-103465000D01*
X122678711Y-103465000D01*
X121021856Y-101808144D01*
X120686077Y-101583785D01*
X120290000Y-101504999D01*
X120289995Y-101505000D01*
X118944599Y-101505000D01*
X118562536Y-101249713D01*
X118835199Y-101119858D01*
X119200174Y-100714997D01*
X119232727Y-100636400D01*
X124336560Y-100636400D01*
X124336560Y-102363600D01*
X124380838Y-102598917D01*
X124519910Y-102815041D01*
X124732110Y-102960031D01*
X124984000Y-103011040D01*
X127016000Y-103011040D01*
X127251317Y-102966762D01*
X127467441Y-102827690D01*
X127612431Y-102615490D01*
X127663440Y-102363600D01*
X127663440Y-100636400D01*
X128836560Y-100636400D01*
X128836560Y-102363600D01*
X128880838Y-102598917D01*
X129019910Y-102815041D01*
X129232110Y-102960031D01*
X129484000Y-103011040D01*
X131516000Y-103011040D01*
X131751317Y-102966762D01*
X131967441Y-102827690D01*
X132112431Y-102615490D01*
X132163440Y-102363600D01*
X132163440Y-100636400D01*
X133336560Y-100636400D01*
X133336560Y-102363600D01*
X133380838Y-102598917D01*
X133519910Y-102815041D01*
X133732110Y-102960031D01*
X133984000Y-103011040D01*
X136016000Y-103011040D01*
X136251317Y-102966762D01*
X136467441Y-102827690D01*
X136612431Y-102615490D01*
X136663440Y-102363600D01*
X136663440Y-100636400D01*
X138336560Y-100636400D01*
X138336560Y-102363600D01*
X138380838Y-102598917D01*
X138519910Y-102815041D01*
X138732110Y-102960031D01*
X138984000Y-103011040D01*
X141016000Y-103011040D01*
X141251317Y-102966762D01*
X141467441Y-102827690D01*
X141612431Y-102615490D01*
X141663440Y-102363600D01*
X141663440Y-100636400D01*
X142836560Y-100636400D01*
X142836560Y-102363600D01*
X142880838Y-102598917D01*
X143019910Y-102815041D01*
X143232110Y-102960031D01*
X143484000Y-103011040D01*
X145516000Y-103011040D01*
X145751317Y-102966762D01*
X145967441Y-102827690D01*
X146112431Y-102615490D01*
X146163440Y-102363600D01*
X146163440Y-100636400D01*
X147836560Y-100636400D01*
X147836560Y-102363600D01*
X147880838Y-102598917D01*
X148019910Y-102815041D01*
X148232110Y-102960031D01*
X148484000Y-103011040D01*
X150516000Y-103011040D01*
X150751317Y-102966762D01*
X150967441Y-102827690D01*
X151112431Y-102615490D01*
X151163440Y-102363600D01*
X151163440Y-100636400D01*
X151119162Y-100401083D01*
X150980090Y-100184959D01*
X150767890Y-100039969D01*
X150673073Y-100020768D01*
X150850732Y-99862036D01*
X151104709Y-99334791D01*
X151107358Y-99319026D01*
X150986217Y-99087000D01*
X149627000Y-99087000D01*
X149627000Y-99107000D01*
X149373000Y-99107000D01*
X149373000Y-99087000D01*
X148013783Y-99087000D01*
X147892642Y-99319026D01*
X147895291Y-99334791D01*
X148149268Y-99862036D01*
X148324845Y-100018907D01*
X148248683Y-100033238D01*
X148032559Y-100172310D01*
X147887569Y-100384510D01*
X147836560Y-100636400D01*
X146163440Y-100636400D01*
X146119162Y-100401083D01*
X145980090Y-100184959D01*
X145767890Y-100039969D01*
X145673073Y-100020768D01*
X145850732Y-99862036D01*
X146104709Y-99334791D01*
X146107358Y-99319026D01*
X145986217Y-99087000D01*
X144627000Y-99087000D01*
X144627000Y-99107000D01*
X144373000Y-99107000D01*
X144373000Y-99087000D01*
X143013783Y-99087000D01*
X142892642Y-99319026D01*
X142895291Y-99334791D01*
X143149268Y-99862036D01*
X143324845Y-100018907D01*
X143248683Y-100033238D01*
X143032559Y-100172310D01*
X142887569Y-100384510D01*
X142836560Y-100636400D01*
X141663440Y-100636400D01*
X141619162Y-100401083D01*
X141480090Y-100184959D01*
X141267890Y-100039969D01*
X141173073Y-100020768D01*
X141350732Y-99862036D01*
X141604709Y-99334791D01*
X141607358Y-99319026D01*
X141486217Y-99087000D01*
X140127000Y-99087000D01*
X140127000Y-99107000D01*
X139873000Y-99107000D01*
X139873000Y-99087000D01*
X138513783Y-99087000D01*
X138392642Y-99319026D01*
X138395291Y-99334791D01*
X138649268Y-99862036D01*
X138824845Y-100018907D01*
X138748683Y-100033238D01*
X138532559Y-100172310D01*
X138387569Y-100384510D01*
X138336560Y-100636400D01*
X136663440Y-100636400D01*
X136619162Y-100401083D01*
X136480090Y-100184959D01*
X136267890Y-100039969D01*
X136173073Y-100020768D01*
X136350732Y-99862036D01*
X136604709Y-99334791D01*
X136607358Y-99319026D01*
X136486217Y-99087000D01*
X135127000Y-99087000D01*
X135127000Y-99107000D01*
X134873000Y-99107000D01*
X134873000Y-99087000D01*
X133513783Y-99087000D01*
X133392642Y-99319026D01*
X133395291Y-99334791D01*
X133649268Y-99862036D01*
X133824845Y-100018907D01*
X133748683Y-100033238D01*
X133532559Y-100172310D01*
X133387569Y-100384510D01*
X133336560Y-100636400D01*
X132163440Y-100636400D01*
X132119162Y-100401083D01*
X131980090Y-100184959D01*
X131767890Y-100039969D01*
X131673073Y-100020768D01*
X131850732Y-99862036D01*
X132104709Y-99334791D01*
X132107358Y-99319026D01*
X131986217Y-99087000D01*
X130627000Y-99087000D01*
X130627000Y-99107000D01*
X130373000Y-99107000D01*
X130373000Y-99087000D01*
X129013783Y-99087000D01*
X128892642Y-99319026D01*
X128895291Y-99334791D01*
X129149268Y-99862036D01*
X129324845Y-100018907D01*
X129248683Y-100033238D01*
X129032559Y-100172310D01*
X128887569Y-100384510D01*
X128836560Y-100636400D01*
X127663440Y-100636400D01*
X127619162Y-100401083D01*
X127480090Y-100184959D01*
X127267890Y-100039969D01*
X127173073Y-100020768D01*
X127350732Y-99862036D01*
X127604709Y-99334791D01*
X127607358Y-99319026D01*
X127486217Y-99087000D01*
X126127000Y-99087000D01*
X126127000Y-99107000D01*
X125873000Y-99107000D01*
X125873000Y-99087000D01*
X124513783Y-99087000D01*
X124392642Y-99319026D01*
X124395291Y-99334791D01*
X124649268Y-99862036D01*
X124824845Y-100018907D01*
X124748683Y-100033238D01*
X124532559Y-100172310D01*
X124387569Y-100384510D01*
X124336560Y-100636400D01*
X119232727Y-100636400D01*
X119354220Y-100343070D01*
X119231720Y-100127000D01*
X118127000Y-100127000D01*
X118127000Y-100147000D01*
X117873000Y-100147000D01*
X117873000Y-100127000D01*
X116768280Y-100127000D01*
X116645780Y-100343070D01*
X116799826Y-100714997D01*
X117164801Y-101119858D01*
X117437464Y-101249713D01*
X116984803Y-101552172D01*
X116681971Y-102005391D01*
X116575631Y-102540000D01*
X116681971Y-103074609D01*
X116984803Y-103527828D01*
X117438022Y-103830660D01*
X117972631Y-103937000D01*
X118027369Y-103937000D01*
X118561978Y-103830660D01*
X118944599Y-103575000D01*
X119861288Y-103575000D01*
X121518142Y-105231853D01*
X121518144Y-105231856D01*
X121853923Y-105456215D01*
X122250000Y-105535001D01*
X122250005Y-105535000D01*
X126071288Y-105535000D01*
X126515000Y-105978711D01*
X126515000Y-107066649D01*
X126280000Y-107418350D01*
X125997828Y-106996051D01*
X125544609Y-106693219D01*
X125010000Y-106586879D01*
X124475391Y-106693219D01*
X124022172Y-106996051D01*
X123740000Y-107418350D01*
X123457828Y-106996051D01*
X123004609Y-106693219D01*
X122470000Y-106586879D01*
X121935391Y-106693219D01*
X121482172Y-106996051D01*
X121200000Y-107418350D01*
X120917828Y-106996051D01*
X120464609Y-106693219D01*
X119930000Y-106586879D01*
X119395391Y-106693219D01*
X118942172Y-106996051D01*
X118660000Y-107418350D01*
X118377828Y-106996051D01*
X117924609Y-106693219D01*
X117390000Y-106586879D01*
X116855391Y-106693219D01*
X116402172Y-106996051D01*
X116099340Y-107449270D01*
X115993000Y-107983879D01*
X115993000Y-109074521D01*
X116099340Y-109609130D01*
X116220194Y-109790000D01*
X107569930Y-109790000D01*
X107490016Y-109774104D01*
X107481551Y-109768448D01*
X107475896Y-109759985D01*
X107460000Y-109680070D01*
X107460000Y-99656930D01*
X116645780Y-99656930D01*
X116768280Y-99873000D01*
X117873000Y-99873000D01*
X117873000Y-98767524D01*
X118127000Y-98767524D01*
X118127000Y-99873000D01*
X119231720Y-99873000D01*
X119354220Y-99656930D01*
X119200174Y-99285003D01*
X118835199Y-98880142D01*
X118343072Y-98645769D01*
X118127000Y-98767524D01*
X117873000Y-98767524D01*
X117656928Y-98645769D01*
X117164801Y-98880142D01*
X116799826Y-99285003D01*
X116645780Y-99656930D01*
X107460000Y-99656930D01*
X107460000Y-95469944D01*
X109215840Y-95469944D01*
X109215840Y-95530056D01*
X109332621Y-96117154D01*
X109665185Y-96614871D01*
X110162902Y-96947435D01*
X110750000Y-97064216D01*
X111337098Y-96947435D01*
X111834815Y-96614871D01*
X111965023Y-96420000D01*
X124316655Y-96420000D01*
X124430729Y-96993489D01*
X124755585Y-97479670D01*
X125065069Y-97686461D01*
X124649268Y-98057964D01*
X124395291Y-98585209D01*
X124392642Y-98600974D01*
X124513783Y-98833000D01*
X125873000Y-98833000D01*
X125873000Y-98813000D01*
X126127000Y-98813000D01*
X126127000Y-98833000D01*
X127486217Y-98833000D01*
X127607358Y-98600974D01*
X127604709Y-98585209D01*
X127350732Y-98057964D01*
X126934931Y-97686461D01*
X127244415Y-97479670D01*
X127569271Y-96993489D01*
X127683345Y-96420000D01*
X128816655Y-96420000D01*
X128930729Y-96993489D01*
X129255585Y-97479670D01*
X129565069Y-97686461D01*
X129149268Y-98057964D01*
X128895291Y-98585209D01*
X128892642Y-98600974D01*
X129013783Y-98833000D01*
X130373000Y-98833000D01*
X130373000Y-98813000D01*
X130627000Y-98813000D01*
X130627000Y-98833000D01*
X131986217Y-98833000D01*
X132107358Y-98600974D01*
X132104709Y-98585209D01*
X131850732Y-98057964D01*
X131434931Y-97686461D01*
X131744415Y-97479670D01*
X132069271Y-96993489D01*
X132183345Y-96420000D01*
X133316655Y-96420000D01*
X133430729Y-96993489D01*
X133755585Y-97479670D01*
X134065069Y-97686461D01*
X133649268Y-98057964D01*
X133395291Y-98585209D01*
X133392642Y-98600974D01*
X133513783Y-98833000D01*
X134873000Y-98833000D01*
X134873000Y-98813000D01*
X135127000Y-98813000D01*
X135127000Y-98833000D01*
X136486217Y-98833000D01*
X136607358Y-98600974D01*
X136604709Y-98585209D01*
X136350732Y-98057964D01*
X135934931Y-97686461D01*
X136244415Y-97479670D01*
X136569271Y-96993489D01*
X136683345Y-96420000D01*
X138316655Y-96420000D01*
X138430729Y-96993489D01*
X138755585Y-97479670D01*
X139065069Y-97686461D01*
X138649268Y-98057964D01*
X138395291Y-98585209D01*
X138392642Y-98600974D01*
X138513783Y-98833000D01*
X139873000Y-98833000D01*
X139873000Y-98813000D01*
X140127000Y-98813000D01*
X140127000Y-98833000D01*
X141486217Y-98833000D01*
X141607358Y-98600974D01*
X141604709Y-98585209D01*
X141350732Y-98057964D01*
X140934931Y-97686461D01*
X141244415Y-97479670D01*
X141569271Y-96993489D01*
X141683345Y-96420000D01*
X142816655Y-96420000D01*
X142930729Y-96993489D01*
X143255585Y-97479670D01*
X143565069Y-97686461D01*
X143149268Y-98057964D01*
X142895291Y-98585209D01*
X142892642Y-98600974D01*
X143013783Y-98833000D01*
X144373000Y-98833000D01*
X144373000Y-98813000D01*
X144627000Y-98813000D01*
X144627000Y-98833000D01*
X145986217Y-98833000D01*
X146107358Y-98600974D01*
X146104709Y-98585209D01*
X145850732Y-98057964D01*
X145434931Y-97686461D01*
X145744415Y-97479670D01*
X146069271Y-96993489D01*
X146183345Y-96420000D01*
X147816655Y-96420000D01*
X147930729Y-96993489D01*
X148255585Y-97479670D01*
X148565069Y-97686461D01*
X148149268Y-98057964D01*
X147895291Y-98585209D01*
X147892642Y-98600974D01*
X148013783Y-98833000D01*
X149373000Y-98833000D01*
X149373000Y-98813000D01*
X149627000Y-98813000D01*
X149627000Y-98833000D01*
X150986217Y-98833000D01*
X151107358Y-98600974D01*
X151104709Y-98585209D01*
X150850732Y-98057964D01*
X150434931Y-97686461D01*
X150744415Y-97479670D01*
X151069271Y-96993489D01*
X151183345Y-96420000D01*
X151069271Y-95846511D01*
X150744415Y-95360330D01*
X150258234Y-95035474D01*
X149684745Y-94921400D01*
X149315255Y-94921400D01*
X148741766Y-95035474D01*
X148255585Y-95360330D01*
X147930729Y-95846511D01*
X147816655Y-96420000D01*
X146183345Y-96420000D01*
X146069271Y-95846511D01*
X145744415Y-95360330D01*
X145258234Y-95035474D01*
X144684745Y-94921400D01*
X144315255Y-94921400D01*
X143741766Y-95035474D01*
X143255585Y-95360330D01*
X142930729Y-95846511D01*
X142816655Y-96420000D01*
X141683345Y-96420000D01*
X141569271Y-95846511D01*
X141244415Y-95360330D01*
X140758234Y-95035474D01*
X140184745Y-94921400D01*
X139815255Y-94921400D01*
X139241766Y-95035474D01*
X138755585Y-95360330D01*
X138430729Y-95846511D01*
X138316655Y-96420000D01*
X136683345Y-96420000D01*
X136569271Y-95846511D01*
X136244415Y-95360330D01*
X135758234Y-95035474D01*
X135184745Y-94921400D01*
X134815255Y-94921400D01*
X134241766Y-95035474D01*
X133755585Y-95360330D01*
X133430729Y-95846511D01*
X133316655Y-96420000D01*
X132183345Y-96420000D01*
X132069271Y-95846511D01*
X131744415Y-95360330D01*
X131258234Y-95035474D01*
X130684745Y-94921400D01*
X130315255Y-94921400D01*
X129741766Y-95035474D01*
X129255585Y-95360330D01*
X128930729Y-95846511D01*
X128816655Y-96420000D01*
X127683345Y-96420000D01*
X127569271Y-95846511D01*
X127244415Y-95360330D01*
X126758234Y-95035474D01*
X126184745Y-94921400D01*
X125815255Y-94921400D01*
X125241766Y-95035474D01*
X124755585Y-95360330D01*
X124430729Y-95846511D01*
X124316655Y-96420000D01*
X111965023Y-96420000D01*
X112167379Y-96117154D01*
X112284160Y-95530056D01*
X112284160Y-95469944D01*
X112167379Y-94882846D01*
X111834815Y-94385129D01*
X111337098Y-94052565D01*
X110750000Y-93935784D01*
X110162902Y-94052565D01*
X109665185Y-94385129D01*
X109332621Y-94882846D01*
X109215840Y-95469944D01*
X107460000Y-95469944D01*
X107460000Y-91972364D01*
X109215840Y-91972364D01*
X109215840Y-92032476D01*
X109332621Y-92619574D01*
X109665185Y-93117291D01*
X110162902Y-93449855D01*
X110750000Y-93566636D01*
X111337098Y-93449855D01*
X111834815Y-93117291D01*
X112167379Y-92619574D01*
X112284160Y-92032476D01*
X112284160Y-91972364D01*
X112167379Y-91385266D01*
X111834815Y-90887549D01*
X111337098Y-90554985D01*
X110750000Y-90438204D01*
X110162902Y-90554985D01*
X109665185Y-90887549D01*
X109332621Y-91385266D01*
X109215840Y-91972364D01*
X107460000Y-91972364D01*
X107460000Y-85850000D01*
X118202560Y-85850000D01*
X118202560Y-87150000D01*
X118246838Y-87385317D01*
X118385910Y-87601441D01*
X118501891Y-87680687D01*
X118411265Y-87771155D01*
X118215223Y-88243276D01*
X118214777Y-88754481D01*
X118409995Y-89226943D01*
X118771155Y-89588735D01*
X119243276Y-89784777D01*
X119754481Y-89785223D01*
X120226943Y-89590005D01*
X120588735Y-89228845D01*
X120784777Y-88756724D01*
X120784778Y-88754481D01*
X125714777Y-88754481D01*
X125909995Y-89226943D01*
X126271155Y-89588735D01*
X126743276Y-89784777D01*
X127254481Y-89785223D01*
X127726943Y-89590005D01*
X128088735Y-89228845D01*
X128284777Y-88756724D01*
X128285223Y-88245519D01*
X128090005Y-87773057D01*
X128006674Y-87689580D01*
X128009699Y-87688327D01*
X128188327Y-87509698D01*
X128285000Y-87276309D01*
X128285000Y-86785750D01*
X128126250Y-86627000D01*
X127127000Y-86627000D01*
X127127000Y-86647000D01*
X126873000Y-86647000D01*
X126873000Y-86627000D01*
X125873750Y-86627000D01*
X125715000Y-86785750D01*
X125715000Y-87276309D01*
X125811673Y-87509698D01*
X125990301Y-87688327D01*
X125993083Y-87689480D01*
X125911265Y-87771155D01*
X125715223Y-88243276D01*
X125714777Y-88754481D01*
X120784778Y-88754481D01*
X120785223Y-88245519D01*
X120590005Y-87773057D01*
X120497855Y-87680746D01*
X120601441Y-87614090D01*
X120746431Y-87401890D01*
X120797440Y-87150000D01*
X120797440Y-85850000D01*
X120773674Y-85723691D01*
X125715000Y-85723691D01*
X125715000Y-86214250D01*
X125873750Y-86373000D01*
X126873000Y-86373000D01*
X126873000Y-85373750D01*
X127127000Y-85373750D01*
X127127000Y-86373000D01*
X128126250Y-86373000D01*
X128285000Y-86214250D01*
X128285000Y-85723691D01*
X128188327Y-85490302D01*
X128009699Y-85311673D01*
X127776310Y-85215000D01*
X127285750Y-85215000D01*
X127127000Y-85373750D01*
X126873000Y-85373750D01*
X126714250Y-85215000D01*
X126223690Y-85215000D01*
X125990301Y-85311673D01*
X125811673Y-85490302D01*
X125715000Y-85723691D01*
X120773674Y-85723691D01*
X120753162Y-85614683D01*
X120614090Y-85398559D01*
X120401890Y-85253569D01*
X120150000Y-85202560D01*
X118850000Y-85202560D01*
X118614683Y-85246838D01*
X118398559Y-85385910D01*
X118253569Y-85598110D01*
X118202560Y-85850000D01*
X107460000Y-85850000D01*
X107460000Y-71030708D01*
X107484803Y-71067828D01*
X107938022Y-71370660D01*
X108472631Y-71477000D01*
X108527369Y-71477000D01*
X109061978Y-71370660D01*
X109515197Y-71067828D01*
X109818029Y-70614609D01*
X109924369Y-70080000D01*
X113075631Y-70080000D01*
X113181971Y-70614609D01*
X113484803Y-71067828D01*
X113938022Y-71370660D01*
X114472631Y-71477000D01*
X114527369Y-71477000D01*
X115061978Y-71370660D01*
X115515197Y-71067828D01*
X115818029Y-70614609D01*
X115924369Y-70080000D01*
X119075631Y-70080000D01*
X119181971Y-70614609D01*
X119484803Y-71067828D01*
X119938022Y-71370660D01*
X120472631Y-71477000D01*
X120527369Y-71477000D01*
X121061978Y-71370660D01*
X121515197Y-71067828D01*
X121818029Y-70614609D01*
X121924369Y-70080000D01*
X125075631Y-70080000D01*
X125181971Y-70614609D01*
X125484803Y-71067828D01*
X125938022Y-71370660D01*
X126472631Y-71477000D01*
X126527369Y-71477000D01*
X127061978Y-71370660D01*
X127515197Y-71067828D01*
X127818029Y-70614609D01*
X127924369Y-70080000D01*
X131075631Y-70080000D01*
X131181971Y-70614609D01*
X131484803Y-71067828D01*
X131938022Y-71370660D01*
X132472631Y-71477000D01*
X132527369Y-71477000D01*
X133061978Y-71370660D01*
X133444599Y-71115000D01*
X137555401Y-71115000D01*
X137938022Y-71370660D01*
X138472631Y-71477000D01*
X138527369Y-71477000D01*
X139061978Y-71370660D01*
X139515197Y-71067828D01*
X139818029Y-70614609D01*
X139924369Y-70080000D01*
X139818029Y-69545391D01*
X139515197Y-69092172D01*
X139062536Y-68789713D01*
X139335199Y-68659858D01*
X139700174Y-68254997D01*
X139854220Y-67883070D01*
X139731720Y-67667000D01*
X138627000Y-67667000D01*
X138627000Y-67687000D01*
X138373000Y-67687000D01*
X138373000Y-67667000D01*
X137268280Y-67667000D01*
X137145780Y-67883070D01*
X137299826Y-68254997D01*
X137664801Y-68659858D01*
X137937464Y-68789713D01*
X137555401Y-69045000D01*
X133444599Y-69045000D01*
X133062536Y-68789713D01*
X133335199Y-68659858D01*
X133700174Y-68254997D01*
X133854220Y-67883070D01*
X133731720Y-67667000D01*
X132627000Y-67667000D01*
X132627000Y-67687000D01*
X132373000Y-67687000D01*
X132373000Y-67667000D01*
X131268280Y-67667000D01*
X131145780Y-67883070D01*
X131299826Y-68254997D01*
X131664801Y-68659858D01*
X131937464Y-68789713D01*
X131484803Y-69092172D01*
X131181971Y-69545391D01*
X131075631Y-70080000D01*
X127924369Y-70080000D01*
X127818029Y-69545391D01*
X127515197Y-69092172D01*
X127062536Y-68789713D01*
X127335199Y-68659858D01*
X127700174Y-68254997D01*
X127854220Y-67883070D01*
X127731720Y-67667000D01*
X126627000Y-67667000D01*
X126627000Y-67687000D01*
X126373000Y-67687000D01*
X126373000Y-67667000D01*
X125268280Y-67667000D01*
X125145780Y-67883070D01*
X125299826Y-68254997D01*
X125664801Y-68659858D01*
X125937464Y-68789713D01*
X125484803Y-69092172D01*
X125181971Y-69545391D01*
X125075631Y-70080000D01*
X121924369Y-70080000D01*
X121818029Y-69545391D01*
X121515197Y-69092172D01*
X121062536Y-68789713D01*
X121335199Y-68659858D01*
X121700174Y-68254997D01*
X121854220Y-67883070D01*
X121731720Y-67667000D01*
X120627000Y-67667000D01*
X120627000Y-67687000D01*
X120373000Y-67687000D01*
X120373000Y-67667000D01*
X119268280Y-67667000D01*
X119145780Y-67883070D01*
X119299826Y-68254997D01*
X119664801Y-68659858D01*
X119937464Y-68789713D01*
X119484803Y-69092172D01*
X119181971Y-69545391D01*
X119075631Y-70080000D01*
X115924369Y-70080000D01*
X115818029Y-69545391D01*
X115515197Y-69092172D01*
X115062536Y-68789713D01*
X115335199Y-68659858D01*
X115700174Y-68254997D01*
X115854220Y-67883070D01*
X115731720Y-67667000D01*
X114627000Y-67667000D01*
X114627000Y-67687000D01*
X114373000Y-67687000D01*
X114373000Y-67667000D01*
X113268280Y-67667000D01*
X113145780Y-67883070D01*
X113299826Y-68254997D01*
X113664801Y-68659858D01*
X113937464Y-68789713D01*
X113484803Y-69092172D01*
X113181971Y-69545391D01*
X113075631Y-70080000D01*
X109924369Y-70080000D01*
X109818029Y-69545391D01*
X109515197Y-69092172D01*
X109062536Y-68789713D01*
X109335199Y-68659858D01*
X109700174Y-68254997D01*
X109854220Y-67883070D01*
X109731720Y-67667000D01*
X108627000Y-67667000D01*
X108627000Y-67687000D01*
X108373000Y-67687000D01*
X108373000Y-67667000D01*
X108353000Y-67667000D01*
X108353000Y-67413000D01*
X108373000Y-67413000D01*
X108373000Y-67393000D01*
X108627000Y-67393000D01*
X108627000Y-67413000D01*
X109731720Y-67413000D01*
X109854220Y-67196930D01*
X109700174Y-66825003D01*
X109335199Y-66420142D01*
X109062536Y-66290287D01*
X109515197Y-65987828D01*
X109818029Y-65534609D01*
X109924369Y-65000000D01*
X113075631Y-65000000D01*
X113181971Y-65534609D01*
X113484803Y-65987828D01*
X113937464Y-66290287D01*
X113664801Y-66420142D01*
X113299826Y-66825003D01*
X113145780Y-67196930D01*
X113268280Y-67413000D01*
X114373000Y-67413000D01*
X114373000Y-67393000D01*
X114627000Y-67393000D01*
X114627000Y-67413000D01*
X115731720Y-67413000D01*
X115854220Y-67196930D01*
X115700174Y-66825003D01*
X115335199Y-66420142D01*
X115062536Y-66290287D01*
X115515197Y-65987828D01*
X115818029Y-65534609D01*
X115924369Y-65000000D01*
X119075631Y-65000000D01*
X119181971Y-65534609D01*
X119484803Y-65987828D01*
X119937464Y-66290287D01*
X119664801Y-66420142D01*
X119299826Y-66825003D01*
X119145780Y-67196930D01*
X119268280Y-67413000D01*
X120373000Y-67413000D01*
X120373000Y-67393000D01*
X120627000Y-67393000D01*
X120627000Y-67413000D01*
X121731720Y-67413000D01*
X121854220Y-67196930D01*
X121700174Y-66825003D01*
X121335199Y-66420142D01*
X121062536Y-66290287D01*
X121515197Y-65987828D01*
X121818029Y-65534609D01*
X121924369Y-65000000D01*
X121818029Y-64465391D01*
X121515197Y-64012172D01*
X121061978Y-63709340D01*
X120527369Y-63603000D01*
X120472631Y-63603000D01*
X119938022Y-63709340D01*
X119484803Y-64012172D01*
X119181971Y-64465391D01*
X119075631Y-65000000D01*
X115924369Y-65000000D01*
X115818029Y-64465391D01*
X115515197Y-64012172D01*
X115061978Y-63709340D01*
X114527369Y-63603000D01*
X114472631Y-63603000D01*
X113938022Y-63709340D01*
X113484803Y-64012172D01*
X113181971Y-64465391D01*
X113075631Y-65000000D01*
X109924369Y-65000000D01*
X109818029Y-64465391D01*
X109515197Y-64012172D01*
X109061978Y-63709340D01*
X108527369Y-63603000D01*
X108472631Y-63603000D01*
X107938022Y-63709340D01*
X107484803Y-64012172D01*
X107460000Y-64049292D01*
X107460000Y-61937206D01*
X107711391Y-62105181D01*
X108246000Y-62211521D01*
X108780609Y-62105181D01*
X109233828Y-61802349D01*
X109516000Y-61380050D01*
X109798172Y-61802349D01*
X110251391Y-62105181D01*
X110786000Y-62211521D01*
X111320609Y-62105181D01*
X111773828Y-61802349D01*
X112056000Y-61380050D01*
X112338172Y-61802349D01*
X112791391Y-62105181D01*
X113326000Y-62211521D01*
X113860609Y-62105181D01*
X114313828Y-61802349D01*
X114596000Y-61380050D01*
X114878172Y-61802349D01*
X115331391Y-62105181D01*
X115866000Y-62211521D01*
X116400609Y-62105181D01*
X116853828Y-61802349D01*
X117136000Y-61380050D01*
X117418172Y-61802349D01*
X117871391Y-62105181D01*
X118406000Y-62211521D01*
X118940609Y-62105181D01*
X119393828Y-61802349D01*
X119676000Y-61380050D01*
X119958172Y-61802349D01*
X120411391Y-62105181D01*
X120946000Y-62211521D01*
X121480609Y-62105181D01*
X121933828Y-61802349D01*
X122216000Y-61380050D01*
X122498172Y-61802349D01*
X122951391Y-62105181D01*
X123486000Y-62211521D01*
X124020609Y-62105181D01*
X124473828Y-61802349D01*
X124756000Y-61380050D01*
X125038172Y-61802349D01*
X125491391Y-62105181D01*
X125823225Y-62171187D01*
X125797852Y-62209161D01*
X125740000Y-62500000D01*
X125740000Y-63841654D01*
X125484803Y-64012172D01*
X125181971Y-64465391D01*
X125075631Y-65000000D01*
X125181971Y-65534609D01*
X125484803Y-65987828D01*
X125937464Y-66290287D01*
X125664801Y-66420142D01*
X125299826Y-66825003D01*
X125145780Y-67196930D01*
X125268280Y-67413000D01*
X126373000Y-67413000D01*
X126373000Y-67393000D01*
X126627000Y-67393000D01*
X126627000Y-67413000D01*
X127731720Y-67413000D01*
X127854220Y-67196930D01*
X127700174Y-66825003D01*
X127335199Y-66420142D01*
X127062536Y-66290287D01*
X127515197Y-65987828D01*
X127818029Y-65534609D01*
X127924369Y-65000000D01*
X127818029Y-64465391D01*
X127515197Y-64012172D01*
X127260000Y-63841654D01*
X127260000Y-62814802D01*
X127314802Y-62760000D01*
X131787739Y-62760000D01*
X131740000Y-63000000D01*
X131740000Y-63841654D01*
X131484803Y-64012172D01*
X131181971Y-64465391D01*
X131075631Y-65000000D01*
X131181971Y-65534609D01*
X131484803Y-65987828D01*
X131937464Y-66290287D01*
X131664801Y-66420142D01*
X131299826Y-66825003D01*
X131145780Y-67196930D01*
X131268280Y-67413000D01*
X132373000Y-67413000D01*
X132373000Y-67393000D01*
X132627000Y-67393000D01*
X132627000Y-67413000D01*
X133731720Y-67413000D01*
X133854220Y-67196930D01*
X133700174Y-66825003D01*
X133335199Y-66420142D01*
X133062536Y-66290287D01*
X133515197Y-65987828D01*
X133818029Y-65534609D01*
X133924369Y-65000000D01*
X133818029Y-64465391D01*
X133515197Y-64012172D01*
X133260000Y-63841654D01*
X133260000Y-63314802D01*
X133314802Y-63260000D01*
X137740000Y-63260000D01*
X137740000Y-63841654D01*
X137484803Y-64012172D01*
X137181971Y-64465391D01*
X137075631Y-65000000D01*
X137181971Y-65534609D01*
X137484803Y-65987828D01*
X137937464Y-66290287D01*
X137664801Y-66420142D01*
X137299826Y-66825003D01*
X137145780Y-67196930D01*
X137268280Y-67413000D01*
X138373000Y-67413000D01*
X138373000Y-67393000D01*
X138627000Y-67393000D01*
X138627000Y-67413000D01*
X139731720Y-67413000D01*
X139854220Y-67196930D01*
X139700174Y-66825003D01*
X139335199Y-66420142D01*
X139062536Y-66290287D01*
X139515197Y-65987828D01*
X139818029Y-65534609D01*
X139924369Y-65000000D01*
X139818029Y-64465391D01*
X139515197Y-64012172D01*
X139260000Y-63841654D01*
X139260000Y-63564802D01*
X139814802Y-63010000D01*
X143349200Y-63010000D01*
X143640039Y-62952148D01*
X143886601Y-62787401D01*
X144659572Y-62014430D01*
X144795391Y-62105181D01*
X145330000Y-62211521D01*
X145864609Y-62105181D01*
X146317828Y-61802349D01*
X146600000Y-61380050D01*
X146882172Y-61802349D01*
X147335391Y-62105181D01*
X147870000Y-62211521D01*
X148404609Y-62105181D01*
X148857828Y-61802349D01*
X149140000Y-61380050D01*
X149422172Y-61802349D01*
X149875391Y-62105181D01*
X150410000Y-62211521D01*
X150944609Y-62105181D01*
X151397828Y-61802349D01*
X151680000Y-61380050D01*
X151962172Y-61802349D01*
X152415391Y-62105181D01*
X152950000Y-62211521D01*
X153484609Y-62105181D01*
X153937828Y-61802349D01*
X154240660Y-61349130D01*
X154347000Y-60814521D01*
X154347000Y-59723879D01*
X154240660Y-59189270D01*
X153937828Y-58736051D01*
X153898840Y-58710000D01*
X154680070Y-58710000D01*
X154759985Y-58725896D01*
M02*
