G04 #@! TF.FileFunction,Soldermask,Bot*
%FSLAX46Y46*%
G04 Gerber Fmt 4.6, Leading zero omitted, Abs format (unit mm)*
G04 Created by KiCad (PCBNEW 4.0.4-stable) date Friday, October 14, 2016 'PMt' 06:06:23 PM*
%MOMM*%
%LPD*%
G01*
G04 APERTURE LIST*
%ADD10C,0.100000*%
%ADD11O,1.924000X2.940000*%
%ADD12R,1.700000X1.700000*%
%ADD13C,1.700000*%
%ADD14O,2.198320X2.198320*%
%ADD15R,2.432000X2.127200*%
%ADD16O,2.432000X2.127200*%
%ADD17O,1.924000X1.924000*%
G04 APERTURE END LIST*
D10*
D11*
X152950000Y-108529200D03*
X150410000Y-108529200D03*
X147870000Y-108529200D03*
X140250000Y-108529200D03*
X142790000Y-108529200D03*
X145330000Y-108529200D03*
X135170000Y-108529200D03*
X132630000Y-108529200D03*
X130090000Y-108529200D03*
X125010000Y-108529200D03*
X122470000Y-108529200D03*
X152950000Y-60269200D03*
X150410000Y-60269200D03*
X147870000Y-60269200D03*
X145330000Y-60269200D03*
X142790000Y-60269200D03*
X140250000Y-60269200D03*
X137710000Y-60269200D03*
X135170000Y-60269200D03*
X131106000Y-60269200D03*
X128566000Y-60269200D03*
X126026000Y-60269200D03*
X123486000Y-60269200D03*
X120946000Y-60269200D03*
X118406000Y-60269200D03*
X115866000Y-60269200D03*
X113326000Y-60269200D03*
X127550000Y-108529200D03*
X110786000Y-60269200D03*
X108246000Y-60269200D03*
X119930000Y-108529200D03*
X117390000Y-108529200D03*
D12*
X119500000Y-86500000D03*
D13*
X119500000Y-88500000D03*
D12*
X127000000Y-86500000D03*
D13*
X127000000Y-88500000D03*
D14*
X110750000Y-95500000D03*
X110750000Y-92002420D03*
D15*
X126000000Y-101500000D03*
D16*
X126000000Y-98960000D03*
X126000000Y-96420000D03*
D15*
X130500000Y-101500000D03*
D16*
X130500000Y-98960000D03*
X130500000Y-96420000D03*
D15*
X135000000Y-101500000D03*
D16*
X135000000Y-98960000D03*
X135000000Y-96420000D03*
D15*
X140000000Y-101500000D03*
D16*
X140000000Y-98960000D03*
X140000000Y-96420000D03*
D15*
X144500000Y-101500000D03*
D16*
X144500000Y-98960000D03*
X144500000Y-96420000D03*
D15*
X149500000Y-101500000D03*
D16*
X149500000Y-98960000D03*
X149500000Y-96420000D03*
D17*
X108500000Y-65000000D03*
X108500000Y-67540000D03*
X108500000Y-70080000D03*
X114500000Y-65000000D03*
X114500000Y-67540000D03*
X114500000Y-70080000D03*
X120500000Y-65000000D03*
X120500000Y-67540000D03*
X120500000Y-70080000D03*
X126500000Y-65000000D03*
X126500000Y-67540000D03*
X126500000Y-70080000D03*
X132500000Y-65000000D03*
X132500000Y-67540000D03*
X132500000Y-70080000D03*
X138500000Y-65000000D03*
X138500000Y-67540000D03*
X138500000Y-70080000D03*
X118000000Y-100000000D03*
X118000000Y-102540000D03*
M02*
