G04 #@! TF.FileFunction,Legend,Bot*
%FSLAX46Y46*%
G04 Gerber Fmt 4.6, Leading zero omitted, Abs format (unit mm)*
G04 Created by KiCad (PCBNEW 4.0.4-stable) date Friday, October 14, 2016 'PMt' 06:06:23 PM*
%MOMM*%
%LPD*%
G01*
G04 APERTURE LIST*
%ADD10C,0.100000*%
%ADD11C,0.300000*%
%ADD12C,0.150000*%
G04 APERTURE END LIST*
D10*
D11*
X144857142Y-78378571D02*
X145357142Y-77664286D01*
X145714285Y-78378571D02*
X145714285Y-76878571D01*
X145142857Y-76878571D01*
X144999999Y-76950000D01*
X144928571Y-77021429D01*
X144857142Y-77164286D01*
X144857142Y-77378571D01*
X144928571Y-77521429D01*
X144999999Y-77592857D01*
X145142857Y-77664286D01*
X145714285Y-77664286D01*
X143999999Y-78378571D02*
X144142857Y-78307143D01*
X144214285Y-78235714D01*
X144285714Y-78092857D01*
X144285714Y-77664286D01*
X144214285Y-77521429D01*
X144142857Y-77450000D01*
X143999999Y-77378571D01*
X143785714Y-77378571D01*
X143642857Y-77450000D01*
X143571428Y-77521429D01*
X143499999Y-77664286D01*
X143499999Y-78092857D01*
X143571428Y-78235714D01*
X143642857Y-78307143D01*
X143785714Y-78378571D01*
X143999999Y-78378571D01*
X142857142Y-78378571D02*
X142857142Y-76878571D01*
X142857142Y-77450000D02*
X142714285Y-77378571D01*
X142428571Y-77378571D01*
X142285714Y-77450000D01*
X142214285Y-77521429D01*
X142142856Y-77664286D01*
X142142856Y-78092857D01*
X142214285Y-78235714D01*
X142285714Y-78307143D01*
X142428571Y-78378571D01*
X142714285Y-78378571D01*
X142857142Y-78307143D01*
X141285713Y-78378571D02*
X141428571Y-78307143D01*
X141499999Y-78235714D01*
X141571428Y-78092857D01*
X141571428Y-77664286D01*
X141499999Y-77521429D01*
X141428571Y-77450000D01*
X141285713Y-77378571D01*
X141071428Y-77378571D01*
X140928571Y-77450000D01*
X140857142Y-77521429D01*
X140785713Y-77664286D01*
X140785713Y-78092857D01*
X140857142Y-78235714D01*
X140928571Y-78307143D01*
X141071428Y-78378571D01*
X141285713Y-78378571D01*
X140357142Y-77378571D02*
X139785713Y-77378571D01*
X140142856Y-76878571D02*
X140142856Y-78164286D01*
X140071428Y-78307143D01*
X139928570Y-78378571D01*
X139785713Y-78378571D01*
X138214285Y-77950000D02*
X137499999Y-77950000D01*
X138357142Y-78378571D02*
X137857142Y-76878571D01*
X137357142Y-78378571D01*
X136857142Y-78378571D02*
X136857142Y-77378571D01*
X136857142Y-77664286D02*
X136785714Y-77521429D01*
X136714285Y-77450000D01*
X136571428Y-77378571D01*
X136428571Y-77378571D01*
X135928571Y-78378571D02*
X135928571Y-77378571D01*
X135928571Y-77521429D02*
X135857143Y-77450000D01*
X135714285Y-77378571D01*
X135500000Y-77378571D01*
X135357143Y-77450000D01*
X135285714Y-77592857D01*
X135285714Y-78378571D01*
X135285714Y-77592857D02*
X135214285Y-77450000D01*
X135071428Y-77378571D01*
X134857143Y-77378571D01*
X134714285Y-77450000D01*
X134642857Y-77592857D01*
X134642857Y-78378571D01*
X131928571Y-78235714D02*
X132000000Y-78307143D01*
X132214286Y-78378571D01*
X132357143Y-78378571D01*
X132571428Y-78307143D01*
X132714286Y-78164286D01*
X132785714Y-78021429D01*
X132857143Y-77735714D01*
X132857143Y-77521429D01*
X132785714Y-77235714D01*
X132714286Y-77092857D01*
X132571428Y-76950000D01*
X132357143Y-76878571D01*
X132214286Y-76878571D01*
X132000000Y-76950000D01*
X131928571Y-77021429D01*
X131071428Y-78378571D02*
X131214286Y-78307143D01*
X131285714Y-78235714D01*
X131357143Y-78092857D01*
X131357143Y-77664286D01*
X131285714Y-77521429D01*
X131214286Y-77450000D01*
X131071428Y-77378571D01*
X130857143Y-77378571D01*
X130714286Y-77450000D01*
X130642857Y-77521429D01*
X130571428Y-77664286D01*
X130571428Y-78092857D01*
X130642857Y-78235714D01*
X130714286Y-78307143D01*
X130857143Y-78378571D01*
X131071428Y-78378571D01*
X129928571Y-77378571D02*
X129928571Y-78378571D01*
X129928571Y-77521429D02*
X129857143Y-77450000D01*
X129714285Y-77378571D01*
X129500000Y-77378571D01*
X129357143Y-77450000D01*
X129285714Y-77592857D01*
X129285714Y-78378571D01*
X128785714Y-77378571D02*
X128214285Y-77378571D01*
X128571428Y-76878571D02*
X128571428Y-78164286D01*
X128500000Y-78307143D01*
X128357142Y-78378571D01*
X128214285Y-78378571D01*
X127714285Y-78378571D02*
X127714285Y-77378571D01*
X127714285Y-77664286D02*
X127642857Y-77521429D01*
X127571428Y-77450000D01*
X127428571Y-77378571D01*
X127285714Y-77378571D01*
X126571428Y-78378571D02*
X126714286Y-78307143D01*
X126785714Y-78235714D01*
X126857143Y-78092857D01*
X126857143Y-77664286D01*
X126785714Y-77521429D01*
X126714286Y-77450000D01*
X126571428Y-77378571D01*
X126357143Y-77378571D01*
X126214286Y-77450000D01*
X126142857Y-77521429D01*
X126071428Y-77664286D01*
X126071428Y-78092857D01*
X126142857Y-78235714D01*
X126214286Y-78307143D01*
X126357143Y-78378571D01*
X126571428Y-78378571D01*
X125214285Y-78378571D02*
X125357143Y-78307143D01*
X125428571Y-78164286D01*
X125428571Y-76878571D01*
X123571429Y-78307143D02*
X123357143Y-78378571D01*
X123000000Y-78378571D01*
X122857143Y-78307143D01*
X122785714Y-78235714D01*
X122714286Y-78092857D01*
X122714286Y-77950000D01*
X122785714Y-77807143D01*
X122857143Y-77735714D01*
X123000000Y-77664286D01*
X123285714Y-77592857D01*
X123428572Y-77521429D01*
X123500000Y-77450000D01*
X123571429Y-77307143D01*
X123571429Y-77164286D01*
X123500000Y-77021429D01*
X123428572Y-76950000D01*
X123285714Y-76878571D01*
X122928572Y-76878571D01*
X122714286Y-76950000D01*
X122071429Y-78378571D02*
X122071429Y-76878571D01*
X121428572Y-78378571D02*
X121428572Y-77592857D01*
X121500001Y-77450000D01*
X121642858Y-77378571D01*
X121857143Y-77378571D01*
X122000001Y-77450000D01*
X122071429Y-77521429D01*
X120714286Y-78378571D02*
X120714286Y-77378571D01*
X120714286Y-76878571D02*
X120785715Y-76950000D01*
X120714286Y-77021429D01*
X120642858Y-76950000D01*
X120714286Y-76878571D01*
X120714286Y-77021429D01*
X119428572Y-78307143D02*
X119571429Y-78378571D01*
X119857143Y-78378571D01*
X120000000Y-78307143D01*
X120071429Y-78164286D01*
X120071429Y-77592857D01*
X120000000Y-77450000D01*
X119857143Y-77378571D01*
X119571429Y-77378571D01*
X119428572Y-77450000D01*
X119357143Y-77592857D01*
X119357143Y-77735714D01*
X120071429Y-77878571D01*
X118500000Y-78378571D02*
X118642858Y-78307143D01*
X118714286Y-78164286D01*
X118714286Y-76878571D01*
X117285715Y-78378571D02*
X117285715Y-76878571D01*
X117285715Y-78307143D02*
X117428572Y-78378571D01*
X117714286Y-78378571D01*
X117857144Y-78307143D01*
X117928572Y-78235714D01*
X118000001Y-78092857D01*
X118000001Y-77664286D01*
X117928572Y-77521429D01*
X117857144Y-77450000D01*
X117714286Y-77378571D01*
X117428572Y-77378571D01*
X117285715Y-77450000D01*
X151499999Y-80928571D02*
X151499999Y-79428571D01*
X151142856Y-79428571D01*
X150928571Y-79500000D01*
X150785713Y-79642857D01*
X150714285Y-79785714D01*
X150642856Y-80071429D01*
X150642856Y-80285714D01*
X150714285Y-80571429D01*
X150785713Y-80714286D01*
X150928571Y-80857143D01*
X151142856Y-80928571D01*
X151499999Y-80928571D01*
X149428571Y-80857143D02*
X149571428Y-80928571D01*
X149857142Y-80928571D01*
X149999999Y-80857143D01*
X150071428Y-80714286D01*
X150071428Y-80142857D01*
X149999999Y-80000000D01*
X149857142Y-79928571D01*
X149571428Y-79928571D01*
X149428571Y-80000000D01*
X149357142Y-80142857D01*
X149357142Y-80285714D01*
X150071428Y-80428571D01*
X148785714Y-80857143D02*
X148642857Y-80928571D01*
X148357142Y-80928571D01*
X148214285Y-80857143D01*
X148142857Y-80714286D01*
X148142857Y-80642857D01*
X148214285Y-80500000D01*
X148357142Y-80428571D01*
X148571428Y-80428571D01*
X148714285Y-80357143D01*
X148785714Y-80214286D01*
X148785714Y-80142857D01*
X148714285Y-80000000D01*
X148571428Y-79928571D01*
X148357142Y-79928571D01*
X148214285Y-80000000D01*
X147499999Y-80928571D02*
X147499999Y-79928571D01*
X147499999Y-79428571D02*
X147571428Y-79500000D01*
X147499999Y-79571429D01*
X147428571Y-79500000D01*
X147499999Y-79428571D01*
X147499999Y-79571429D01*
X146142856Y-79928571D02*
X146142856Y-81142857D01*
X146214285Y-81285714D01*
X146285713Y-81357143D01*
X146428570Y-81428571D01*
X146642856Y-81428571D01*
X146785713Y-81357143D01*
X146142856Y-80857143D02*
X146285713Y-80928571D01*
X146571427Y-80928571D01*
X146714285Y-80857143D01*
X146785713Y-80785714D01*
X146857142Y-80642857D01*
X146857142Y-80214286D01*
X146785713Y-80071429D01*
X146714285Y-80000000D01*
X146571427Y-79928571D01*
X146285713Y-79928571D01*
X146142856Y-80000000D01*
X145428570Y-79928571D02*
X145428570Y-80928571D01*
X145428570Y-80071429D02*
X145357142Y-80000000D01*
X145214284Y-79928571D01*
X144999999Y-79928571D01*
X144857142Y-80000000D01*
X144785713Y-80142857D01*
X144785713Y-80928571D01*
X143499999Y-80857143D02*
X143642856Y-80928571D01*
X143928570Y-80928571D01*
X144071427Y-80857143D01*
X144142856Y-80714286D01*
X144142856Y-80142857D01*
X144071427Y-80000000D01*
X143928570Y-79928571D01*
X143642856Y-79928571D01*
X143499999Y-80000000D01*
X143428570Y-80142857D01*
X143428570Y-80285714D01*
X144142856Y-80428571D01*
X142142856Y-80928571D02*
X142142856Y-79428571D01*
X142142856Y-80857143D02*
X142285713Y-80928571D01*
X142571427Y-80928571D01*
X142714285Y-80857143D01*
X142785713Y-80785714D01*
X142857142Y-80642857D01*
X142857142Y-80214286D01*
X142785713Y-80071429D01*
X142714285Y-80000000D01*
X142571427Y-79928571D01*
X142285713Y-79928571D01*
X142142856Y-80000000D01*
X139785713Y-80142857D02*
X139571427Y-80214286D01*
X139499999Y-80285714D01*
X139428570Y-80428571D01*
X139428570Y-80642857D01*
X139499999Y-80785714D01*
X139571427Y-80857143D01*
X139714285Y-80928571D01*
X140285713Y-80928571D01*
X140285713Y-79428571D01*
X139785713Y-79428571D01*
X139642856Y-79500000D01*
X139571427Y-79571429D01*
X139499999Y-79714286D01*
X139499999Y-79857143D01*
X139571427Y-80000000D01*
X139642856Y-80071429D01*
X139785713Y-80142857D01*
X140285713Y-80142857D01*
X138928570Y-79928571D02*
X138571427Y-80928571D01*
X138214285Y-79928571D02*
X138571427Y-80928571D01*
X138714285Y-81285714D01*
X138785713Y-81357143D01*
X138928570Y-81428571D01*
X137642856Y-80785714D02*
X137571428Y-80857143D01*
X137642856Y-80928571D01*
X137714285Y-80857143D01*
X137642856Y-80785714D01*
X137642856Y-80928571D01*
X137642856Y-80000000D02*
X137571428Y-80071429D01*
X137642856Y-80142857D01*
X137714285Y-80071429D01*
X137642856Y-80000000D01*
X137642856Y-80142857D01*
X134928570Y-80785714D02*
X134999999Y-80857143D01*
X135214285Y-80928571D01*
X135357142Y-80928571D01*
X135571427Y-80857143D01*
X135714285Y-80714286D01*
X135785713Y-80571429D01*
X135857142Y-80285714D01*
X135857142Y-80071429D01*
X135785713Y-79785714D01*
X135714285Y-79642857D01*
X135571427Y-79500000D01*
X135357142Y-79428571D01*
X135214285Y-79428571D01*
X134999999Y-79500000D01*
X134928570Y-79571429D01*
X134071427Y-80928571D02*
X134214285Y-80857143D01*
X134285713Y-80785714D01*
X134357142Y-80642857D01*
X134357142Y-80214286D01*
X134285713Y-80071429D01*
X134214285Y-80000000D01*
X134071427Y-79928571D01*
X133857142Y-79928571D01*
X133714285Y-80000000D01*
X133642856Y-80071429D01*
X133571427Y-80214286D01*
X133571427Y-80642857D01*
X133642856Y-80785714D01*
X133714285Y-80857143D01*
X133857142Y-80928571D01*
X134071427Y-80928571D01*
X132714284Y-80928571D02*
X132857142Y-80857143D01*
X132928570Y-80714286D01*
X132928570Y-79428571D01*
X131571428Y-80857143D02*
X131714285Y-80928571D01*
X131999999Y-80928571D01*
X132142856Y-80857143D01*
X132214285Y-80714286D01*
X132214285Y-80142857D01*
X132142856Y-80000000D01*
X131999999Y-79928571D01*
X131714285Y-79928571D01*
X131571428Y-80000000D01*
X131499999Y-80142857D01*
X131499999Y-80285714D01*
X132214285Y-80428571D01*
X129714285Y-80928571D02*
X129714285Y-79428571D01*
X129214285Y-80500000D01*
X128714285Y-79428571D01*
X128714285Y-80928571D01*
X127785713Y-80928571D02*
X127928571Y-80857143D01*
X127999999Y-80785714D01*
X128071428Y-80642857D01*
X128071428Y-80214286D01*
X127999999Y-80071429D01*
X127928571Y-80000000D01*
X127785713Y-79928571D01*
X127571428Y-79928571D01*
X127428571Y-80000000D01*
X127357142Y-80071429D01*
X127285713Y-80214286D01*
X127285713Y-80642857D01*
X127357142Y-80785714D01*
X127428571Y-80857143D01*
X127571428Y-80928571D01*
X127785713Y-80928571D01*
X126642856Y-80928571D02*
X126642856Y-79928571D01*
X126642856Y-80214286D02*
X126571428Y-80071429D01*
X126499999Y-80000000D01*
X126357142Y-79928571D01*
X126214285Y-79928571D01*
X125928571Y-79928571D02*
X125357142Y-79928571D01*
X125714285Y-79428571D02*
X125714285Y-80714286D01*
X125642857Y-80857143D01*
X125499999Y-80928571D01*
X125357142Y-80928571D01*
X124285714Y-80857143D02*
X124428571Y-80928571D01*
X124714285Y-80928571D01*
X124857142Y-80857143D01*
X124928571Y-80714286D01*
X124928571Y-80142857D01*
X124857142Y-80000000D01*
X124714285Y-79928571D01*
X124428571Y-79928571D01*
X124285714Y-80000000D01*
X124214285Y-80142857D01*
X124214285Y-80285714D01*
X124928571Y-80428571D01*
X123571428Y-79928571D02*
X123571428Y-80928571D01*
X123571428Y-80071429D02*
X123500000Y-80000000D01*
X123357142Y-79928571D01*
X123142857Y-79928571D01*
X123000000Y-80000000D01*
X122928571Y-80142857D01*
X122928571Y-80928571D01*
X122285714Y-80857143D02*
X122142857Y-80928571D01*
X121857142Y-80928571D01*
X121714285Y-80857143D01*
X121642857Y-80714286D01*
X121642857Y-80642857D01*
X121714285Y-80500000D01*
X121857142Y-80428571D01*
X122071428Y-80428571D01*
X122214285Y-80357143D01*
X122285714Y-80214286D01*
X122285714Y-80142857D01*
X122214285Y-80000000D01*
X122071428Y-79928571D01*
X121857142Y-79928571D01*
X121714285Y-80000000D01*
X120428571Y-80857143D02*
X120571428Y-80928571D01*
X120857142Y-80928571D01*
X120999999Y-80857143D01*
X121071428Y-80714286D01*
X121071428Y-80142857D01*
X120999999Y-80000000D01*
X120857142Y-79928571D01*
X120571428Y-79928571D01*
X120428571Y-80000000D01*
X120357142Y-80142857D01*
X120357142Y-80285714D01*
X121071428Y-80428571D01*
X119714285Y-79928571D02*
X119714285Y-80928571D01*
X119714285Y-80071429D02*
X119642857Y-80000000D01*
X119499999Y-79928571D01*
X119285714Y-79928571D01*
X119142857Y-80000000D01*
X119071428Y-80142857D01*
X119071428Y-80928571D01*
X118285714Y-80857143D02*
X118285714Y-80928571D01*
X118357142Y-81071429D01*
X118428571Y-81142857D01*
X116571428Y-79571429D02*
X116499999Y-79500000D01*
X116357142Y-79428571D01*
X115999999Y-79428571D01*
X115857142Y-79500000D01*
X115785713Y-79571429D01*
X115714285Y-79714286D01*
X115714285Y-79857143D01*
X115785713Y-80071429D01*
X116642856Y-80928571D01*
X115714285Y-80928571D01*
X114785714Y-79428571D02*
X114642857Y-79428571D01*
X114500000Y-79500000D01*
X114428571Y-79571429D01*
X114357142Y-79714286D01*
X114285714Y-80000000D01*
X114285714Y-80357143D01*
X114357142Y-80642857D01*
X114428571Y-80785714D01*
X114500000Y-80857143D01*
X114642857Y-80928571D01*
X114785714Y-80928571D01*
X114928571Y-80857143D01*
X115000000Y-80785714D01*
X115071428Y-80642857D01*
X115142857Y-80357143D01*
X115142857Y-80000000D01*
X115071428Y-79714286D01*
X115000000Y-79571429D01*
X114928571Y-79500000D01*
X114785714Y-79428571D01*
X112857143Y-80928571D02*
X113714286Y-80928571D01*
X113285714Y-80928571D02*
X113285714Y-79428571D01*
X113428571Y-79642857D01*
X113571429Y-79785714D01*
X113714286Y-79857143D01*
X111571429Y-79428571D02*
X111857143Y-79428571D01*
X112000000Y-79500000D01*
X112071429Y-79571429D01*
X112214286Y-79785714D01*
X112285715Y-80071429D01*
X112285715Y-80642857D01*
X112214286Y-80785714D01*
X112142858Y-80857143D01*
X112000000Y-80928571D01*
X111714286Y-80928571D01*
X111571429Y-80857143D01*
X111500000Y-80785714D01*
X111428572Y-80642857D01*
X111428572Y-80285714D01*
X111500000Y-80142857D01*
X111571429Y-80071429D01*
X111714286Y-80000000D01*
X112000000Y-80000000D01*
X112142858Y-80071429D01*
X112214286Y-80142857D01*
X112285715Y-80285714D01*
X137642857Y-83478571D02*
X138142857Y-82764286D01*
X138500000Y-83478571D02*
X138500000Y-81978571D01*
X137928572Y-81978571D01*
X137785714Y-82050000D01*
X137714286Y-82121429D01*
X137642857Y-82264286D01*
X137642857Y-82478571D01*
X137714286Y-82621429D01*
X137785714Y-82692857D01*
X137928572Y-82764286D01*
X138500000Y-82764286D01*
X136428572Y-83407143D02*
X136571429Y-83478571D01*
X136857143Y-83478571D01*
X137000000Y-83407143D01*
X137071429Y-83264286D01*
X137071429Y-82692857D01*
X137000000Y-82550000D01*
X136857143Y-82478571D01*
X136571429Y-82478571D01*
X136428572Y-82550000D01*
X136357143Y-82692857D01*
X136357143Y-82835714D01*
X137071429Y-82978571D01*
X135857143Y-82478571D02*
X135500000Y-83478571D01*
X135142858Y-82478571D01*
X134571429Y-83478571D02*
X134571429Y-82478571D01*
X134571429Y-81978571D02*
X134642858Y-82050000D01*
X134571429Y-82121429D01*
X134500001Y-82050000D01*
X134571429Y-81978571D01*
X134571429Y-82121429D01*
X133928572Y-83407143D02*
X133785715Y-83478571D01*
X133500000Y-83478571D01*
X133357143Y-83407143D01*
X133285715Y-83264286D01*
X133285715Y-83192857D01*
X133357143Y-83050000D01*
X133500000Y-82978571D01*
X133714286Y-82978571D01*
X133857143Y-82907143D01*
X133928572Y-82764286D01*
X133928572Y-82692857D01*
X133857143Y-82550000D01*
X133714286Y-82478571D01*
X133500000Y-82478571D01*
X133357143Y-82550000D01*
X132642857Y-83478571D02*
X132642857Y-82478571D01*
X132642857Y-81978571D02*
X132714286Y-82050000D01*
X132642857Y-82121429D01*
X132571429Y-82050000D01*
X132642857Y-81978571D01*
X132642857Y-82121429D01*
X131714285Y-83478571D02*
X131857143Y-83407143D01*
X131928571Y-83335714D01*
X132000000Y-83192857D01*
X132000000Y-82764286D01*
X131928571Y-82621429D01*
X131857143Y-82550000D01*
X131714285Y-82478571D01*
X131500000Y-82478571D01*
X131357143Y-82550000D01*
X131285714Y-82621429D01*
X131214285Y-82764286D01*
X131214285Y-83192857D01*
X131285714Y-83335714D01*
X131357143Y-83407143D01*
X131500000Y-83478571D01*
X131714285Y-83478571D01*
X130571428Y-82478571D02*
X130571428Y-83478571D01*
X130571428Y-82621429D02*
X130500000Y-82550000D01*
X130357142Y-82478571D01*
X130142857Y-82478571D01*
X130000000Y-82550000D01*
X129928571Y-82692857D01*
X129928571Y-83478571D01*
X129214285Y-83335714D02*
X129142857Y-83407143D01*
X129214285Y-83478571D01*
X129285714Y-83407143D01*
X129214285Y-83335714D01*
X129214285Y-83478571D01*
X129214285Y-82550000D02*
X129142857Y-82621429D01*
X129214285Y-82692857D01*
X129285714Y-82621429D01*
X129214285Y-82550000D01*
X129214285Y-82692857D01*
X126571428Y-83478571D02*
X127428571Y-83478571D01*
X126999999Y-83478571D02*
X126999999Y-81978571D01*
X127142856Y-82192857D01*
X127285714Y-82335714D01*
X127428571Y-82407143D01*
X125928571Y-83335714D02*
X125857143Y-83407143D01*
X125928571Y-83478571D01*
X126000000Y-83407143D01*
X125928571Y-83335714D01*
X125928571Y-83478571D01*
X124928571Y-81978571D02*
X124785714Y-81978571D01*
X124642857Y-82050000D01*
X124571428Y-82121429D01*
X124499999Y-82264286D01*
X124428571Y-82550000D01*
X124428571Y-82907143D01*
X124499999Y-83192857D01*
X124571428Y-83335714D01*
X124642857Y-83407143D01*
X124785714Y-83478571D01*
X124928571Y-83478571D01*
X125071428Y-83407143D01*
X125142857Y-83335714D01*
X125214285Y-83192857D01*
X125285714Y-82907143D01*
X125285714Y-82550000D01*
X125214285Y-82264286D01*
X125142857Y-82121429D01*
X125071428Y-82050000D01*
X124928571Y-81978571D01*
D12*
X111581220Y-103939860D02*
X111220540Y-105410520D01*
X111220540Y-105410520D02*
X110941140Y-104348800D01*
X110941140Y-104348800D02*
X110631260Y-105420680D01*
X110631260Y-105420680D02*
X110290900Y-103970340D01*
X113001080Y-104630740D02*
X112211140Y-104620580D01*
X112211140Y-104620580D02*
X112200980Y-104630740D01*
X112200980Y-104630740D02*
X112200980Y-104620580D01*
X112160340Y-103909380D02*
X112160340Y-105451160D01*
X113049340Y-103899220D02*
X113049340Y-105468940D01*
X113049340Y-105468940D02*
X113039180Y-105458780D01*
X113600520Y-104000820D02*
X113951040Y-103919540D01*
X113951040Y-103919540D02*
X114271080Y-103909380D01*
X114271080Y-103909380D02*
X114509840Y-104110040D01*
X114509840Y-104110040D02*
X114540320Y-104379280D01*
X114540320Y-104379280D02*
X114299020Y-104620580D01*
X114299020Y-104620580D02*
X113910400Y-104750120D01*
X113910400Y-104750120D02*
X113730060Y-104910140D01*
X113730060Y-104910140D02*
X113689420Y-105209860D01*
X113689420Y-105209860D02*
X113920560Y-105430840D01*
X113920560Y-105430840D02*
X114240600Y-105458780D01*
X114240600Y-105458780D02*
X114591120Y-105349560D01*
X115629980Y-103899220D02*
X115878900Y-103919540D01*
X115878900Y-103919540D02*
X116120200Y-104160840D01*
X116120200Y-104160840D02*
X116209100Y-104651060D01*
X116209100Y-104651060D02*
X116181160Y-104999040D01*
X116181160Y-104999040D02*
X115980500Y-105319080D01*
X115980500Y-105319080D02*
X115729040Y-105441000D01*
X115729040Y-105441000D02*
X115419160Y-105369880D01*
X115419160Y-105369880D02*
X115200720Y-105189540D01*
X115200720Y-105189540D02*
X115129600Y-104729800D01*
X115129600Y-104729800D02*
X115180400Y-104320860D01*
X115180400Y-104320860D02*
X115289620Y-104038920D01*
X115289620Y-104038920D02*
X115650300Y-103909380D01*
X115030540Y-102179640D02*
X115289620Y-102740980D01*
X115289620Y-102740980D02*
X114751140Y-103259140D01*
X114751140Y-103259140D02*
X114230440Y-102989900D01*
X114230440Y-102989900D02*
X113951040Y-103149920D01*
X112510860Y-103129600D02*
X112180660Y-102939100D01*
X112180660Y-102939100D02*
X111741240Y-103269300D01*
X111741240Y-103269300D02*
X111268800Y-102779080D01*
X111268800Y-102779080D02*
X111550740Y-102299020D01*
X111550740Y-102299020D02*
X111360240Y-101829120D01*
X111360240Y-101829120D02*
X110750640Y-101641160D01*
X110750640Y-101641160D02*
X110750640Y-100960440D01*
X110750640Y-100960440D02*
X111309440Y-100820740D01*
X111309440Y-100820740D02*
X111510100Y-100249240D01*
X111510100Y-100249240D02*
X111240860Y-99779340D01*
X111240860Y-99779340D02*
X111710760Y-99268800D01*
X111710760Y-99268800D02*
X112228920Y-99530420D01*
X112228920Y-99530420D02*
X112698820Y-99329760D01*
X112698820Y-99329760D02*
X112869000Y-98788740D01*
X112869000Y-98788740D02*
X113559880Y-98770960D01*
X113559880Y-98770960D02*
X113770700Y-99319600D01*
X113770700Y-99319600D02*
X114189800Y-99489780D01*
X114189800Y-99489780D02*
X114740980Y-99220540D01*
X114740980Y-99220540D02*
X115259140Y-99748860D01*
X115259140Y-99748860D02*
X115010220Y-100289880D01*
X115010220Y-100289880D02*
X115180400Y-100769940D01*
X115180400Y-100769940D02*
X115729040Y-100869000D01*
X115729040Y-100869000D02*
X115739200Y-101570040D01*
X115739200Y-101570040D02*
X115180400Y-101770700D01*
X115180400Y-101770700D02*
X115040700Y-102169480D01*
X112899480Y-102149160D02*
X112599760Y-101999300D01*
X112599760Y-101999300D02*
X112399100Y-101801180D01*
X112399100Y-101801180D02*
X112249240Y-101399860D01*
X112249240Y-101399860D02*
X112249240Y-101001080D01*
X112249240Y-101001080D02*
X112399100Y-100650560D01*
X112399100Y-100650560D02*
X112851220Y-100300040D01*
X112851220Y-100300040D02*
X113300800Y-100249240D01*
X113300800Y-100249240D02*
X113699580Y-100350840D01*
X113699580Y-100350840D02*
X114100900Y-100698820D01*
X114100900Y-100698820D02*
X114250760Y-101150940D01*
X114250760Y-101150940D02*
X114199960Y-101648780D01*
X114199960Y-101648780D02*
X113951040Y-101951040D01*
X113951040Y-101951040D02*
X113600520Y-102149160D01*
X113600520Y-102149160D02*
X113951040Y-103149920D01*
X112899480Y-102149160D02*
X112500700Y-103149920D01*
M02*
