M48
;DRILL file {KiCad 4.0.4-stable} date Friday, October 14, 2016 'PMt' 06:21:07 PM
;FORMAT={-:-/ absolute / inch / decimal}
FMAT,2
INCH,TZ
T1C0.016
T2C0.031
T3C0.040
T4C0.047
%
G90
G05
M72
T1
X5.2264Y-4.1043
X5.5906Y-3.002
X5.5906Y-3.3169
X5.5906Y-3.6319
X6.0236Y-3.7992
T2
X4.7047Y-3.4055
X4.7047Y-3.4843
X5.Y-3.4055
X5.Y-3.4843
T3
X4.2617Y-2.3728
X4.2717Y-2.5591
X4.2717Y-2.6591
X4.2717Y-2.7591
X4.3617Y-2.3728
X4.4617Y-2.3728
X4.5079Y-2.5591
X4.5079Y-2.6591
X4.5079Y-2.7591
X4.5617Y-2.3728
X4.6217Y-4.2728
X4.6457Y-3.937
X4.6457Y-4.037
X4.6617Y-2.3728
X4.7217Y-4.2728
X4.7441Y-2.5591
X4.7441Y-2.6591
X4.7441Y-2.7591
X4.7617Y-2.3728
X4.8217Y-4.2728
X4.8617Y-2.3728
X4.9217Y-4.2728
X4.9606Y-3.7961
X4.9606Y-3.8961
X4.9606Y-3.9961
X4.9617Y-2.3728
X4.9803Y-2.5591
X4.9803Y-2.6591
X4.9803Y-2.7591
X5.0217Y-4.2728
X5.0617Y-2.3728
X5.1217Y-4.2728
X5.1378Y-3.7961
X5.1378Y-3.8961
X5.1378Y-3.9961
X5.1617Y-2.3728
X5.2165Y-2.5591
X5.2165Y-2.6591
X5.2165Y-2.7591
X5.2217Y-4.2728
X5.315Y-3.7961
X5.315Y-3.8961
X5.315Y-3.9961
X5.3217Y-2.3728
X5.3217Y-4.2728
X5.4217Y-2.3728
X5.4528Y-2.5591
X5.4528Y-2.6591
X5.4528Y-2.7591
X5.5118Y-3.7961
X5.5118Y-3.8961
X5.5118Y-3.9961
X5.5217Y-2.3728
X5.5217Y-4.2728
X5.6217Y-2.3728
X5.6217Y-4.2728
X5.689Y-3.7961
X5.689Y-3.8961
X5.689Y-3.9961
X5.7217Y-2.3728
X5.7217Y-4.2728
X5.8217Y-2.3728
X5.8217Y-4.2728
X5.8858Y-3.7961
X5.8858Y-3.8961
X5.8858Y-3.9961
X5.9217Y-2.3728
X5.9217Y-4.2728
X6.0217Y-2.3728
X6.0217Y-4.2728
T4
X4.3602Y-3.6221
X4.3602Y-3.7598
T0
M30
