G04 #@! TF.FileFunction,Copper,L1,Top,Mixed*
%FSLAX46Y46*%
G04 Gerber Fmt 4.6, Leading zero omitted, Abs format (unit mm)*
G04 Created by KiCad (PCBNEW 4.0.4-stable) date Friday, October 14, 2016 'PMt' 06:06:23 PM*
%MOMM*%
%LPD*%
G01*
G04 APERTURE LIST*
%ADD10C,0.100000*%
%ADD11O,1.524000X2.540000*%
%ADD12R,1.300000X1.300000*%
%ADD13C,1.300000*%
%ADD14R,3.200000X3.600000*%
%ADD15R,1.399540X1.198880*%
%ADD16O,1.798320X1.798320*%
%ADD17R,2.032000X1.727200*%
%ADD18O,2.032000X1.727200*%
%ADD19O,1.524000X1.524000*%
%ADD20R,1.700000X2.000000*%
%ADD21R,2.000000X1.700000*%
%ADD22R,1.550000X1.300000*%
%ADD23R,6.197600X5.397500*%
%ADD24R,1.597660X0.998220*%
%ADD25C,0.600000*%
%ADD26C,0.800000*%
%ADD27C,0.250000*%
%ADD28C,0.254000*%
G04 APERTURE END LIST*
D10*
D11*
X152950000Y-108529200D03*
X150410000Y-108529200D03*
X147870000Y-108529200D03*
X140250000Y-108529200D03*
X142790000Y-108529200D03*
X145330000Y-108529200D03*
X135170000Y-108529200D03*
X132630000Y-108529200D03*
X130090000Y-108529200D03*
X125010000Y-108529200D03*
X122470000Y-108529200D03*
X152950000Y-60269200D03*
X150410000Y-60269200D03*
X147870000Y-60269200D03*
X145330000Y-60269200D03*
X142790000Y-60269200D03*
X140250000Y-60269200D03*
X137710000Y-60269200D03*
X135170000Y-60269200D03*
X131106000Y-60269200D03*
X128566000Y-60269200D03*
X126026000Y-60269200D03*
X123486000Y-60269200D03*
X120946000Y-60269200D03*
X118406000Y-60269200D03*
X115866000Y-60269200D03*
X113326000Y-60269200D03*
X127550000Y-108529200D03*
X110786000Y-60269200D03*
X108246000Y-60269200D03*
X119930000Y-108529200D03*
X117390000Y-108529200D03*
D12*
X119500000Y-86500000D03*
D13*
X119500000Y-88500000D03*
D12*
X127000000Y-86500000D03*
D13*
X127000000Y-88500000D03*
D14*
X110750000Y-83600000D03*
X110750000Y-75400000D03*
D15*
X153000000Y-87748600D03*
X153000000Y-84751400D03*
X152500000Y-64001400D03*
X152500000Y-66998600D03*
D16*
X110750000Y-95500000D03*
X110750000Y-92002420D03*
D17*
X126000000Y-101500000D03*
D18*
X126000000Y-98960000D03*
X126000000Y-96420000D03*
D17*
X130500000Y-101500000D03*
D18*
X130500000Y-98960000D03*
X130500000Y-96420000D03*
D17*
X135000000Y-101500000D03*
D18*
X135000000Y-98960000D03*
X135000000Y-96420000D03*
D17*
X140000000Y-101500000D03*
D18*
X140000000Y-98960000D03*
X140000000Y-96420000D03*
D17*
X144500000Y-101500000D03*
D18*
X144500000Y-98960000D03*
X144500000Y-96420000D03*
D17*
X149500000Y-101500000D03*
D18*
X149500000Y-98960000D03*
X149500000Y-96420000D03*
D19*
X108500000Y-65000000D03*
X108500000Y-67540000D03*
X108500000Y-70080000D03*
X114500000Y-65000000D03*
X114500000Y-67540000D03*
X114500000Y-70080000D03*
X120500000Y-65000000D03*
X120500000Y-67540000D03*
X120500000Y-70080000D03*
X126500000Y-65000000D03*
X126500000Y-67540000D03*
X126500000Y-70080000D03*
X132500000Y-65000000D03*
X132500000Y-67540000D03*
X132500000Y-70080000D03*
X138500000Y-65000000D03*
X138500000Y-67540000D03*
X138500000Y-70080000D03*
X118000000Y-100000000D03*
X118000000Y-102540000D03*
D20*
X153000000Y-94750000D03*
X153000000Y-90750000D03*
D21*
X133500000Y-80000000D03*
X137500000Y-80000000D03*
X133500000Y-84000000D03*
X137500000Y-84000000D03*
X133500000Y-88500000D03*
X137500000Y-88500000D03*
X148000000Y-66000000D03*
X144000000Y-66000000D03*
D22*
X149975000Y-70250000D03*
X149975000Y-74750000D03*
X142025000Y-74750000D03*
X142025000Y-70250000D03*
X149975000Y-78250000D03*
X149975000Y-82750000D03*
X142025000Y-82750000D03*
X142025000Y-78250000D03*
X149975000Y-86250000D03*
X149975000Y-90750000D03*
X142025000Y-90750000D03*
X142025000Y-86250000D03*
D23*
X126999360Y-77500000D03*
D24*
X119701940Y-75221620D03*
X119701940Y-79778380D03*
D25*
X132750000Y-104250000D03*
X142000000Y-84250000D03*
X153000000Y-96500000D03*
X142000000Y-76250000D03*
X142000000Y-92250000D03*
D26*
X119500000Y-86500000D02*
X119500000Y-84750000D01*
X117250000Y-77000000D02*
X115471620Y-75221620D01*
X117250000Y-82500000D02*
X117250000Y-77000000D01*
X119500000Y-84750000D02*
X117250000Y-82500000D01*
X119701940Y-75221620D02*
X115471620Y-75221620D01*
X115471620Y-75221620D02*
X110928380Y-75221620D01*
X110928380Y-75221620D02*
X110750000Y-75400000D01*
X110678380Y-75221620D02*
X110500000Y-75400000D01*
X142025000Y-82750000D02*
X142025000Y-84225000D01*
X142025000Y-84225000D02*
X142000000Y-84250000D01*
X153000000Y-94750000D02*
X153000000Y-96500000D01*
X142025000Y-74750000D02*
X142025000Y-76225000D01*
X142025000Y-76225000D02*
X142000000Y-76250000D01*
X142025000Y-90750000D02*
X142025000Y-92225000D01*
X142025000Y-92225000D02*
X142000000Y-92250000D01*
X127000000Y-86500000D02*
X127000000Y-84250000D01*
X122000000Y-82500000D02*
X119701940Y-80201940D01*
X125250000Y-82500000D02*
X122000000Y-82500000D01*
X127000000Y-84250000D02*
X125250000Y-82500000D01*
X119701940Y-80201940D02*
X119701940Y-79778380D01*
X110750000Y-92002420D02*
X110750000Y-83850000D01*
X153000000Y-90750000D02*
X153000000Y-87748600D01*
D27*
X148000000Y-66000000D02*
X148000000Y-65000000D01*
X151248600Y-64001400D02*
X152500000Y-64001400D01*
X150750000Y-64500000D02*
X151248600Y-64001400D01*
X148500000Y-64500000D02*
X150750000Y-64500000D01*
X148000000Y-65000000D02*
X148500000Y-64500000D01*
X140250000Y-108529200D02*
X140250000Y-107000000D01*
X126000000Y-106500000D02*
X126000000Y-101500000D01*
X126250000Y-106750000D02*
X126000000Y-106500000D01*
X140000000Y-106750000D02*
X126250000Y-106750000D01*
X140250000Y-107000000D02*
X140000000Y-106750000D01*
X142790000Y-108529200D02*
X142790000Y-106540000D01*
X130500000Y-106000000D02*
X130500000Y-101500000D01*
X130750000Y-106250000D02*
X130500000Y-106000000D01*
X142500000Y-106250000D02*
X130750000Y-106250000D01*
X142790000Y-106540000D02*
X142500000Y-106250000D01*
X142750000Y-108489200D02*
X142790000Y-108529200D01*
X142500000Y-108239200D02*
X142790000Y-108529200D01*
X145330000Y-108529200D02*
X145330000Y-106080000D01*
X135000000Y-105500000D02*
X135000000Y-101500000D01*
X135250000Y-105750000D02*
X135000000Y-105500000D01*
X145000000Y-105750000D02*
X135250000Y-105750000D01*
X145330000Y-106080000D02*
X145000000Y-105750000D01*
X147870000Y-108529200D02*
X147870000Y-105620000D01*
X140000000Y-105000000D02*
X140000000Y-101500000D01*
X140250000Y-105250000D02*
X140000000Y-105000000D01*
X147500000Y-105250000D02*
X140250000Y-105250000D01*
X147870000Y-105620000D02*
X147500000Y-105250000D01*
X140000000Y-101500000D02*
X140840800Y-101500000D01*
X150410000Y-108529200D02*
X150410000Y-105160000D01*
X144500000Y-104500000D02*
X144500000Y-101500000D01*
X144750000Y-104750000D02*
X144500000Y-104500000D01*
X150000000Y-104750000D02*
X144750000Y-104750000D01*
X150410000Y-105160000D02*
X150000000Y-104750000D01*
X152950000Y-108529200D02*
X152950000Y-104700000D01*
X149500000Y-104000000D02*
X149500000Y-101500000D01*
X149799998Y-104299998D02*
X149500000Y-104000000D01*
X152549998Y-104299998D02*
X149799998Y-104299998D01*
X152950000Y-104700000D02*
X152549998Y-104299998D01*
X108500000Y-65000000D02*
X108500000Y-62500000D01*
X121755200Y-62000000D02*
X123486000Y-60269200D01*
X109000000Y-62000000D02*
X121755200Y-62000000D01*
X108500000Y-62500000D02*
X109000000Y-62000000D01*
X126026000Y-60269200D02*
X125980800Y-60269200D01*
X125980800Y-60269200D02*
X123500000Y-62750000D01*
X123500000Y-62750000D02*
X115000000Y-62750000D01*
X114500000Y-63250000D02*
X115000000Y-62750000D01*
X114500000Y-65000000D02*
X114500000Y-63250000D01*
X120500000Y-65000000D02*
X120500000Y-63750000D01*
X126835200Y-62000000D02*
X128566000Y-60269200D01*
X125750000Y-62000000D02*
X126835200Y-62000000D01*
X124500000Y-63250000D02*
X125750000Y-62000000D01*
X121000000Y-63250000D02*
X124500000Y-63250000D01*
X120500000Y-63750000D02*
X121000000Y-63250000D01*
X137710000Y-60790000D02*
X137710000Y-60269200D01*
X140230800Y-60269200D02*
X140250000Y-60269200D01*
X149975000Y-70250000D02*
X149975000Y-68975000D01*
X147870000Y-62880000D02*
X147870000Y-60269200D01*
X146000000Y-64750000D02*
X147870000Y-62880000D01*
X146000000Y-67500000D02*
X146000000Y-64750000D01*
X146500000Y-68000000D02*
X146000000Y-67500000D01*
X149000000Y-68000000D02*
X146500000Y-68000000D01*
X149975000Y-68975000D02*
X149000000Y-68000000D01*
X137500000Y-80000000D02*
X137500000Y-77750000D01*
X141000000Y-70250000D02*
X142025000Y-70250000D01*
X139750000Y-71500000D02*
X141000000Y-70250000D01*
X139750000Y-75500000D02*
X139750000Y-71500000D01*
X137500000Y-77750000D02*
X139750000Y-75500000D01*
X142025000Y-78250000D02*
X143500000Y-78250000D01*
X141250000Y-61809200D02*
X142790000Y-60269200D01*
X141250000Y-67500000D02*
X141250000Y-61809200D01*
X142000000Y-68250000D02*
X141250000Y-67500000D01*
X143500000Y-68250000D02*
X142000000Y-68250000D01*
X144500000Y-69250000D02*
X143500000Y-68250000D01*
X144500000Y-77250000D02*
X144500000Y-69250000D01*
X143500000Y-78250000D02*
X144500000Y-77250000D01*
X137500000Y-84000000D02*
X139000000Y-84000000D01*
X140500000Y-78500000D02*
X141775000Y-78500000D01*
X140250000Y-78750000D02*
X140500000Y-78500000D01*
X140250000Y-82750000D02*
X140250000Y-78750000D01*
X139000000Y-84000000D02*
X140250000Y-82750000D01*
X141775000Y-78500000D02*
X142025000Y-78250000D01*
X142025000Y-86250000D02*
X140750000Y-86250000D01*
X139250000Y-88500000D02*
X137500000Y-88500000D01*
X140000000Y-87750000D02*
X139250000Y-88500000D01*
X140000000Y-87000000D02*
X140000000Y-87750000D01*
X140750000Y-86250000D02*
X140000000Y-87000000D01*
X137500000Y-88500000D02*
X136000000Y-88500000D01*
X135500000Y-88000000D02*
X135500000Y-60599200D01*
X136000000Y-88500000D02*
X135500000Y-88000000D01*
X135500000Y-60599200D02*
X135170000Y-60269200D01*
X144000000Y-66000000D02*
X144000000Y-59000000D01*
X132875200Y-58500000D02*
X131106000Y-60269200D01*
X143500000Y-58500000D02*
X132875200Y-58500000D01*
X144000000Y-59000000D02*
X143500000Y-58500000D01*
D28*
G36*
X154759985Y-58725896D02*
X154768448Y-58731551D01*
X154774104Y-58740016D01*
X154790000Y-58819930D01*
X154790000Y-109680070D01*
X154774104Y-109759984D01*
X154768448Y-109768449D01*
X154759985Y-109774104D01*
X154680070Y-109790000D01*
X154119806Y-109790000D01*
X154240660Y-109609130D01*
X154347000Y-109074521D01*
X154347000Y-107983879D01*
X154240660Y-107449270D01*
X153937828Y-106996051D01*
X153710000Y-106843821D01*
X153710000Y-104700000D01*
X153652148Y-104409161D01*
X153652148Y-104409160D01*
X153487401Y-104162599D01*
X153087399Y-103762597D01*
X152840837Y-103597850D01*
X152549998Y-103539998D01*
X150260000Y-103539998D01*
X150260000Y-103011040D01*
X150516000Y-103011040D01*
X150751317Y-102966762D01*
X150967441Y-102827690D01*
X151112431Y-102615490D01*
X151163440Y-102363600D01*
X151163440Y-100636400D01*
X151119162Y-100401083D01*
X150980090Y-100184959D01*
X150767890Y-100039969D01*
X150726561Y-100031600D01*
X150744415Y-100019670D01*
X151069271Y-99533489D01*
X151183345Y-98960000D01*
X151069271Y-98386511D01*
X150744415Y-97900330D01*
X150434931Y-97693539D01*
X150850732Y-97322036D01*
X151104709Y-96794791D01*
X151107358Y-96779026D01*
X150986217Y-96547000D01*
X149627000Y-96547000D01*
X149627000Y-96567000D01*
X149373000Y-96567000D01*
X149373000Y-96547000D01*
X148013783Y-96547000D01*
X147892642Y-96779026D01*
X147895291Y-96794791D01*
X148149268Y-97322036D01*
X148565069Y-97693539D01*
X148255585Y-97900330D01*
X147930729Y-98386511D01*
X147816655Y-98960000D01*
X147930729Y-99533489D01*
X148255585Y-100019670D01*
X148269913Y-100029243D01*
X148248683Y-100033238D01*
X148032559Y-100172310D01*
X147887569Y-100384510D01*
X147836560Y-100636400D01*
X147836560Y-102363600D01*
X147880838Y-102598917D01*
X148019910Y-102815041D01*
X148232110Y-102960031D01*
X148484000Y-103011040D01*
X148740000Y-103011040D01*
X148740000Y-103990000D01*
X145260000Y-103990000D01*
X145260000Y-103011040D01*
X145516000Y-103011040D01*
X145751317Y-102966762D01*
X145967441Y-102827690D01*
X146112431Y-102615490D01*
X146163440Y-102363600D01*
X146163440Y-100636400D01*
X146119162Y-100401083D01*
X145980090Y-100184959D01*
X145767890Y-100039969D01*
X145726561Y-100031600D01*
X145744415Y-100019670D01*
X146069271Y-99533489D01*
X146183345Y-98960000D01*
X146069271Y-98386511D01*
X145744415Y-97900330D01*
X145434931Y-97693539D01*
X145850732Y-97322036D01*
X146104709Y-96794791D01*
X146107358Y-96779026D01*
X145986217Y-96547000D01*
X144627000Y-96547000D01*
X144627000Y-96567000D01*
X144373000Y-96567000D01*
X144373000Y-96547000D01*
X143013783Y-96547000D01*
X142892642Y-96779026D01*
X142895291Y-96794791D01*
X143149268Y-97322036D01*
X143565069Y-97693539D01*
X143255585Y-97900330D01*
X142930729Y-98386511D01*
X142816655Y-98960000D01*
X142930729Y-99533489D01*
X143255585Y-100019670D01*
X143269913Y-100029243D01*
X143248683Y-100033238D01*
X143032559Y-100172310D01*
X142887569Y-100384510D01*
X142836560Y-100636400D01*
X142836560Y-102363600D01*
X142880838Y-102598917D01*
X143019910Y-102815041D01*
X143232110Y-102960031D01*
X143484000Y-103011040D01*
X143740000Y-103011040D01*
X143740000Y-104490000D01*
X140760000Y-104490000D01*
X140760000Y-103011040D01*
X141016000Y-103011040D01*
X141251317Y-102966762D01*
X141467441Y-102827690D01*
X141612431Y-102615490D01*
X141663440Y-102363600D01*
X141663440Y-100636400D01*
X141619162Y-100401083D01*
X141480090Y-100184959D01*
X141267890Y-100039969D01*
X141226561Y-100031600D01*
X141244415Y-100019670D01*
X141569271Y-99533489D01*
X141683345Y-98960000D01*
X141569271Y-98386511D01*
X141244415Y-97900330D01*
X140934931Y-97693539D01*
X141350732Y-97322036D01*
X141604709Y-96794791D01*
X141607358Y-96779026D01*
X141486217Y-96547000D01*
X140127000Y-96547000D01*
X140127000Y-96567000D01*
X139873000Y-96567000D01*
X139873000Y-96547000D01*
X138513783Y-96547000D01*
X138392642Y-96779026D01*
X138395291Y-96794791D01*
X138649268Y-97322036D01*
X139065069Y-97693539D01*
X138755585Y-97900330D01*
X138430729Y-98386511D01*
X138316655Y-98960000D01*
X138430729Y-99533489D01*
X138755585Y-100019670D01*
X138769913Y-100029243D01*
X138748683Y-100033238D01*
X138532559Y-100172310D01*
X138387569Y-100384510D01*
X138336560Y-100636400D01*
X138336560Y-102363600D01*
X138380838Y-102598917D01*
X138519910Y-102815041D01*
X138732110Y-102960031D01*
X138984000Y-103011040D01*
X139240000Y-103011040D01*
X139240000Y-104990000D01*
X135760000Y-104990000D01*
X135760000Y-103011040D01*
X136016000Y-103011040D01*
X136251317Y-102966762D01*
X136467441Y-102827690D01*
X136612431Y-102615490D01*
X136663440Y-102363600D01*
X136663440Y-100636400D01*
X136619162Y-100401083D01*
X136480090Y-100184959D01*
X136267890Y-100039969D01*
X136226561Y-100031600D01*
X136244415Y-100019670D01*
X136569271Y-99533489D01*
X136683345Y-98960000D01*
X136569271Y-98386511D01*
X136244415Y-97900330D01*
X135934931Y-97693539D01*
X136350732Y-97322036D01*
X136604709Y-96794791D01*
X136607358Y-96779026D01*
X136486217Y-96547000D01*
X135127000Y-96547000D01*
X135127000Y-96567000D01*
X134873000Y-96567000D01*
X134873000Y-96547000D01*
X133513783Y-96547000D01*
X133392642Y-96779026D01*
X133395291Y-96794791D01*
X133649268Y-97322036D01*
X134065069Y-97693539D01*
X133755585Y-97900330D01*
X133430729Y-98386511D01*
X133316655Y-98960000D01*
X133430729Y-99533489D01*
X133755585Y-100019670D01*
X133769913Y-100029243D01*
X133748683Y-100033238D01*
X133532559Y-100172310D01*
X133387569Y-100384510D01*
X133336560Y-100636400D01*
X133336560Y-102363600D01*
X133380838Y-102598917D01*
X133519910Y-102815041D01*
X133732110Y-102960031D01*
X133984000Y-103011040D01*
X134240000Y-103011040D01*
X134240000Y-105490000D01*
X131260000Y-105490000D01*
X131260000Y-103011040D01*
X131516000Y-103011040D01*
X131751317Y-102966762D01*
X131967441Y-102827690D01*
X132112431Y-102615490D01*
X132163440Y-102363600D01*
X132163440Y-100636400D01*
X132119162Y-100401083D01*
X131980090Y-100184959D01*
X131767890Y-100039969D01*
X131726561Y-100031600D01*
X131744415Y-100019670D01*
X132069271Y-99533489D01*
X132183345Y-98960000D01*
X132069271Y-98386511D01*
X131744415Y-97900330D01*
X131434931Y-97693539D01*
X131850732Y-97322036D01*
X132104709Y-96794791D01*
X132107358Y-96779026D01*
X131986217Y-96547000D01*
X130627000Y-96547000D01*
X130627000Y-96567000D01*
X130373000Y-96567000D01*
X130373000Y-96547000D01*
X129013783Y-96547000D01*
X128892642Y-96779026D01*
X128895291Y-96794791D01*
X129149268Y-97322036D01*
X129565069Y-97693539D01*
X129255585Y-97900330D01*
X128930729Y-98386511D01*
X128816655Y-98960000D01*
X128930729Y-99533489D01*
X129255585Y-100019670D01*
X129269913Y-100029243D01*
X129248683Y-100033238D01*
X129032559Y-100172310D01*
X128887569Y-100384510D01*
X128836560Y-100636400D01*
X128836560Y-102363600D01*
X128880838Y-102598917D01*
X129019910Y-102815041D01*
X129232110Y-102960031D01*
X129484000Y-103011040D01*
X129740000Y-103011040D01*
X129740000Y-105990000D01*
X126760000Y-105990000D01*
X126760000Y-103011040D01*
X127016000Y-103011040D01*
X127251317Y-102966762D01*
X127467441Y-102827690D01*
X127612431Y-102615490D01*
X127663440Y-102363600D01*
X127663440Y-100636400D01*
X127619162Y-100401083D01*
X127480090Y-100184959D01*
X127267890Y-100039969D01*
X127226561Y-100031600D01*
X127244415Y-100019670D01*
X127569271Y-99533489D01*
X127683345Y-98960000D01*
X127569271Y-98386511D01*
X127244415Y-97900330D01*
X126934931Y-97693539D01*
X127350732Y-97322036D01*
X127604709Y-96794791D01*
X127607358Y-96779026D01*
X127486217Y-96547000D01*
X126127000Y-96547000D01*
X126127000Y-96567000D01*
X125873000Y-96567000D01*
X125873000Y-96547000D01*
X124513783Y-96547000D01*
X124392642Y-96779026D01*
X124395291Y-96794791D01*
X124649268Y-97322036D01*
X125065069Y-97693539D01*
X124755585Y-97900330D01*
X124430729Y-98386511D01*
X124316655Y-98960000D01*
X124430729Y-99533489D01*
X124755585Y-100019670D01*
X124769913Y-100029243D01*
X124748683Y-100033238D01*
X124532559Y-100172310D01*
X124387569Y-100384510D01*
X124336560Y-100636400D01*
X124336560Y-102363600D01*
X124380838Y-102598917D01*
X124519910Y-102815041D01*
X124732110Y-102960031D01*
X124984000Y-103011040D01*
X125240000Y-103011040D01*
X125240000Y-106500000D01*
X125267469Y-106638093D01*
X125010000Y-106586879D01*
X124475391Y-106693219D01*
X124022172Y-106996051D01*
X123740000Y-107418350D01*
X123457828Y-106996051D01*
X123004609Y-106693219D01*
X122470000Y-106586879D01*
X121935391Y-106693219D01*
X121482172Y-106996051D01*
X121200000Y-107418350D01*
X120917828Y-106996051D01*
X120464609Y-106693219D01*
X119930000Y-106586879D01*
X119395391Y-106693219D01*
X118942172Y-106996051D01*
X118660000Y-107418350D01*
X118377828Y-106996051D01*
X117924609Y-106693219D01*
X117390000Y-106586879D01*
X116855391Y-106693219D01*
X116402172Y-106996051D01*
X116099340Y-107449270D01*
X115993000Y-107983879D01*
X115993000Y-109074521D01*
X116099340Y-109609130D01*
X116220194Y-109790000D01*
X107569930Y-109790000D01*
X107490016Y-109774104D01*
X107481551Y-109768448D01*
X107475896Y-109759985D01*
X107460000Y-109680070D01*
X107460000Y-100000000D01*
X116575631Y-100000000D01*
X116681971Y-100534609D01*
X116984803Y-100987828D01*
X117407102Y-101270000D01*
X116984803Y-101552172D01*
X116681971Y-102005391D01*
X116575631Y-102540000D01*
X116681971Y-103074609D01*
X116984803Y-103527828D01*
X117438022Y-103830660D01*
X117972631Y-103937000D01*
X118027369Y-103937000D01*
X118561978Y-103830660D01*
X119015197Y-103527828D01*
X119318029Y-103074609D01*
X119424369Y-102540000D01*
X119318029Y-102005391D01*
X119015197Y-101552172D01*
X118592898Y-101270000D01*
X119015197Y-100987828D01*
X119318029Y-100534609D01*
X119424369Y-100000000D01*
X119318029Y-99465391D01*
X119015197Y-99012172D01*
X118561978Y-98709340D01*
X118027369Y-98603000D01*
X117972631Y-98603000D01*
X117438022Y-98709340D01*
X116984803Y-99012172D01*
X116681971Y-99465391D01*
X116575631Y-100000000D01*
X107460000Y-100000000D01*
X107460000Y-95864610D01*
X109259787Y-95864610D01*
X109512753Y-96407136D01*
X109954079Y-96811558D01*
X110385392Y-96990204D01*
X110623000Y-96869534D01*
X110623000Y-95627000D01*
X110877000Y-95627000D01*
X110877000Y-96869534D01*
X111114608Y-96990204D01*
X111545921Y-96811558D01*
X111987247Y-96407136D01*
X112148653Y-96060974D01*
X124392642Y-96060974D01*
X124513783Y-96293000D01*
X125873000Y-96293000D01*
X125873000Y-95079076D01*
X126127000Y-95079076D01*
X126127000Y-96293000D01*
X127486217Y-96293000D01*
X127607358Y-96060974D01*
X128892642Y-96060974D01*
X129013783Y-96293000D01*
X130373000Y-96293000D01*
X130373000Y-95079076D01*
X130627000Y-95079076D01*
X130627000Y-96293000D01*
X131986217Y-96293000D01*
X132107358Y-96060974D01*
X133392642Y-96060974D01*
X133513783Y-96293000D01*
X134873000Y-96293000D01*
X134873000Y-95079076D01*
X135127000Y-95079076D01*
X135127000Y-96293000D01*
X136486217Y-96293000D01*
X136607358Y-96060974D01*
X138392642Y-96060974D01*
X138513783Y-96293000D01*
X139873000Y-96293000D01*
X139873000Y-95079076D01*
X140127000Y-95079076D01*
X140127000Y-96293000D01*
X141486217Y-96293000D01*
X141607358Y-96060974D01*
X142892642Y-96060974D01*
X143013783Y-96293000D01*
X144373000Y-96293000D01*
X144373000Y-95079076D01*
X144627000Y-95079076D01*
X144627000Y-96293000D01*
X145986217Y-96293000D01*
X146107358Y-96060974D01*
X147892642Y-96060974D01*
X148013783Y-96293000D01*
X149373000Y-96293000D01*
X149373000Y-95079076D01*
X149627000Y-95079076D01*
X149627000Y-96293000D01*
X150986217Y-96293000D01*
X151107358Y-96060974D01*
X151104709Y-96045209D01*
X150850732Y-95517964D01*
X150414320Y-95128046D01*
X149861913Y-94934816D01*
X149627000Y-95079076D01*
X149373000Y-95079076D01*
X149138087Y-94934816D01*
X148585680Y-95128046D01*
X148149268Y-95517964D01*
X147895291Y-96045209D01*
X147892642Y-96060974D01*
X146107358Y-96060974D01*
X146104709Y-96045209D01*
X145850732Y-95517964D01*
X145414320Y-95128046D01*
X144861913Y-94934816D01*
X144627000Y-95079076D01*
X144373000Y-95079076D01*
X144138087Y-94934816D01*
X143585680Y-95128046D01*
X143149268Y-95517964D01*
X142895291Y-96045209D01*
X142892642Y-96060974D01*
X141607358Y-96060974D01*
X141604709Y-96045209D01*
X141350732Y-95517964D01*
X140914320Y-95128046D01*
X140361913Y-94934816D01*
X140127000Y-95079076D01*
X139873000Y-95079076D01*
X139638087Y-94934816D01*
X139085680Y-95128046D01*
X138649268Y-95517964D01*
X138395291Y-96045209D01*
X138392642Y-96060974D01*
X136607358Y-96060974D01*
X136604709Y-96045209D01*
X136350732Y-95517964D01*
X135914320Y-95128046D01*
X135361913Y-94934816D01*
X135127000Y-95079076D01*
X134873000Y-95079076D01*
X134638087Y-94934816D01*
X134085680Y-95128046D01*
X133649268Y-95517964D01*
X133395291Y-96045209D01*
X133392642Y-96060974D01*
X132107358Y-96060974D01*
X132104709Y-96045209D01*
X131850732Y-95517964D01*
X131414320Y-95128046D01*
X130861913Y-94934816D01*
X130627000Y-95079076D01*
X130373000Y-95079076D01*
X130138087Y-94934816D01*
X129585680Y-95128046D01*
X129149268Y-95517964D01*
X128895291Y-96045209D01*
X128892642Y-96060974D01*
X127607358Y-96060974D01*
X127604709Y-96045209D01*
X127350732Y-95517964D01*
X126914320Y-95128046D01*
X126361913Y-94934816D01*
X126127000Y-95079076D01*
X125873000Y-95079076D01*
X125638087Y-94934816D01*
X125085680Y-95128046D01*
X124649268Y-95517964D01*
X124395291Y-96045209D01*
X124392642Y-96060974D01*
X112148653Y-96060974D01*
X112240213Y-95864610D01*
X112120154Y-95627000D01*
X110877000Y-95627000D01*
X110623000Y-95627000D01*
X109379846Y-95627000D01*
X109259787Y-95864610D01*
X107460000Y-95864610D01*
X107460000Y-95135390D01*
X109259787Y-95135390D01*
X109379846Y-95373000D01*
X110623000Y-95373000D01*
X110623000Y-94130466D01*
X110877000Y-94130466D01*
X110877000Y-95373000D01*
X112120154Y-95373000D01*
X112240213Y-95135390D01*
X111987247Y-94592864D01*
X111545921Y-94188442D01*
X111114608Y-94009796D01*
X110877000Y-94130466D01*
X110623000Y-94130466D01*
X110385392Y-94009796D01*
X109954079Y-94188442D01*
X109512753Y-94592864D01*
X109259787Y-95135390D01*
X107460000Y-95135390D01*
X107460000Y-93750000D01*
X151502560Y-93750000D01*
X151502560Y-95750000D01*
X151546838Y-95985317D01*
X151685910Y-96201441D01*
X151898110Y-96346431D01*
X151965000Y-96359977D01*
X151965000Y-96500000D01*
X152043785Y-96896077D01*
X152268144Y-97231856D01*
X152603923Y-97456215D01*
X153000000Y-97535000D01*
X153396077Y-97456215D01*
X153731856Y-97231856D01*
X153956215Y-96896077D01*
X154035000Y-96500000D01*
X154035000Y-96362630D01*
X154085317Y-96353162D01*
X154301441Y-96214090D01*
X154446431Y-96001890D01*
X154497440Y-95750000D01*
X154497440Y-93750000D01*
X154453162Y-93514683D01*
X154314090Y-93298559D01*
X154101890Y-93153569D01*
X153850000Y-93102560D01*
X152150000Y-93102560D01*
X151914683Y-93146838D01*
X151698559Y-93285910D01*
X151553569Y-93498110D01*
X151502560Y-93750000D01*
X107460000Y-93750000D01*
X107460000Y-81800000D01*
X108502560Y-81800000D01*
X108502560Y-85400000D01*
X108546838Y-85635317D01*
X108685910Y-85851441D01*
X108898110Y-85996431D01*
X109150000Y-86047440D01*
X109715000Y-86047440D01*
X109715000Y-90854264D01*
X109665185Y-90887549D01*
X109332621Y-91385266D01*
X109215840Y-91972364D01*
X109215840Y-92032476D01*
X109332621Y-92619574D01*
X109665185Y-93117291D01*
X110162902Y-93449855D01*
X110750000Y-93566636D01*
X111337098Y-93449855D01*
X111834815Y-93117291D01*
X112167379Y-92619574D01*
X112284160Y-92032476D01*
X112284160Y-91972364D01*
X112167379Y-91385266D01*
X111834815Y-90887549D01*
X111785000Y-90854264D01*
X111785000Y-90100000D01*
X140602560Y-90100000D01*
X140602560Y-91400000D01*
X140646838Y-91635317D01*
X140785910Y-91851441D01*
X140990000Y-91990890D01*
X140990000Y-92124314D01*
X140964999Y-92250000D01*
X141043785Y-92646077D01*
X141268144Y-92981856D01*
X141603923Y-93206215D01*
X142000000Y-93285001D01*
X142396077Y-93206215D01*
X142731856Y-92981856D01*
X142756853Y-92956858D01*
X142756856Y-92956856D01*
X142964511Y-92646077D01*
X142981215Y-92621078D01*
X143060000Y-92225000D01*
X143060000Y-91987279D01*
X143251441Y-91864090D01*
X143396431Y-91651890D01*
X143447440Y-91400000D01*
X143447440Y-90100000D01*
X148552560Y-90100000D01*
X148552560Y-91400000D01*
X148596838Y-91635317D01*
X148735910Y-91851441D01*
X148948110Y-91996431D01*
X149200000Y-92047440D01*
X150750000Y-92047440D01*
X150985317Y-92003162D01*
X151201441Y-91864090D01*
X151346431Y-91651890D01*
X151397440Y-91400000D01*
X151397440Y-90100000D01*
X151353162Y-89864683D01*
X151279366Y-89750000D01*
X151502560Y-89750000D01*
X151502560Y-91750000D01*
X151546838Y-91985317D01*
X151685910Y-92201441D01*
X151898110Y-92346431D01*
X152150000Y-92397440D01*
X153850000Y-92397440D01*
X154085317Y-92353162D01*
X154301441Y-92214090D01*
X154446431Y-92001890D01*
X154497440Y-91750000D01*
X154497440Y-89750000D01*
X154453162Y-89514683D01*
X154314090Y-89298559D01*
X154101890Y-89153569D01*
X154035000Y-89140023D01*
X154035000Y-88886910D01*
X154151211Y-88812130D01*
X154296201Y-88599930D01*
X154347210Y-88348040D01*
X154347210Y-87149160D01*
X154302932Y-86913843D01*
X154163860Y-86697719D01*
X153951660Y-86552729D01*
X153699770Y-86501720D01*
X152300230Y-86501720D01*
X152064913Y-86545998D01*
X151848789Y-86685070D01*
X151703799Y-86897270D01*
X151652790Y-87149160D01*
X151652790Y-88348040D01*
X151697068Y-88583357D01*
X151836140Y-88799481D01*
X151965000Y-88887527D01*
X151965000Y-89137370D01*
X151914683Y-89146838D01*
X151698559Y-89285910D01*
X151553569Y-89498110D01*
X151502560Y-89750000D01*
X151279366Y-89750000D01*
X151214090Y-89648559D01*
X151001890Y-89503569D01*
X150750000Y-89452560D01*
X149200000Y-89452560D01*
X148964683Y-89496838D01*
X148748559Y-89635910D01*
X148603569Y-89848110D01*
X148552560Y-90100000D01*
X143447440Y-90100000D01*
X143403162Y-89864683D01*
X143264090Y-89648559D01*
X143051890Y-89503569D01*
X142800000Y-89452560D01*
X141250000Y-89452560D01*
X141014683Y-89496838D01*
X140798559Y-89635910D01*
X140653569Y-89848110D01*
X140602560Y-90100000D01*
X111785000Y-90100000D01*
X111785000Y-89399016D01*
X118780590Y-89399016D01*
X118836271Y-89629611D01*
X119319078Y-89797622D01*
X119829428Y-89768083D01*
X120163729Y-89629611D01*
X120219410Y-89399016D01*
X126280590Y-89399016D01*
X126336271Y-89629611D01*
X126819078Y-89797622D01*
X127329428Y-89768083D01*
X127663729Y-89629611D01*
X127719410Y-89399016D01*
X127000000Y-88679605D01*
X126280590Y-89399016D01*
X120219410Y-89399016D01*
X119500000Y-88679605D01*
X118780590Y-89399016D01*
X111785000Y-89399016D01*
X111785000Y-86047440D01*
X112350000Y-86047440D01*
X112585317Y-86003162D01*
X112801441Y-85864090D01*
X112946431Y-85651890D01*
X112997440Y-85400000D01*
X112997440Y-81800000D01*
X112953162Y-81564683D01*
X112814090Y-81348559D01*
X112601890Y-81203569D01*
X112350000Y-81152560D01*
X109150000Y-81152560D01*
X108914683Y-81196838D01*
X108698559Y-81335910D01*
X108553569Y-81548110D01*
X108502560Y-81800000D01*
X107460000Y-81800000D01*
X107460000Y-73600000D01*
X108502560Y-73600000D01*
X108502560Y-77200000D01*
X108546838Y-77435317D01*
X108685910Y-77651441D01*
X108898110Y-77796431D01*
X109150000Y-77847440D01*
X112350000Y-77847440D01*
X112585317Y-77803162D01*
X112801441Y-77664090D01*
X112946431Y-77451890D01*
X112997440Y-77200000D01*
X112997440Y-76256620D01*
X115042908Y-76256620D01*
X116215000Y-77428711D01*
X116215000Y-82499995D01*
X116214999Y-82500000D01*
X116293785Y-82896077D01*
X116518144Y-83231856D01*
X118465000Y-85178711D01*
X118465000Y-85343156D01*
X118398559Y-85385910D01*
X118253569Y-85598110D01*
X118202560Y-85850000D01*
X118202560Y-87150000D01*
X118246838Y-87385317D01*
X118385910Y-87601441D01*
X118499329Y-87678937D01*
X118600982Y-87780590D01*
X118370389Y-87836271D01*
X118202378Y-88319078D01*
X118231917Y-88829428D01*
X118370389Y-89163729D01*
X118600984Y-89219410D01*
X119320395Y-88500000D01*
X119306252Y-88485858D01*
X119485858Y-88306252D01*
X119500000Y-88320395D01*
X119514142Y-88306252D01*
X119693748Y-88485858D01*
X119679605Y-88500000D01*
X120399016Y-89219410D01*
X120629611Y-89163729D01*
X120797622Y-88680922D01*
X120768083Y-88170572D01*
X120629611Y-87836271D01*
X120399018Y-87780590D01*
X120500680Y-87678928D01*
X120601441Y-87614090D01*
X120746431Y-87401890D01*
X120797440Y-87150000D01*
X120797440Y-85850000D01*
X120753162Y-85614683D01*
X120614090Y-85398559D01*
X120535000Y-85344519D01*
X120535000Y-84750005D01*
X120535001Y-84750000D01*
X120456215Y-84353923D01*
X120414064Y-84290839D01*
X120231856Y-84018144D01*
X120231853Y-84018142D01*
X118285000Y-82071288D01*
X118285000Y-80433365D01*
X118299948Y-80512807D01*
X118439020Y-80728931D01*
X118651220Y-80873921D01*
X118903110Y-80924930D01*
X118964160Y-80924930D01*
X118970084Y-80933796D01*
X121268142Y-83231853D01*
X121268144Y-83231856D01*
X121519791Y-83400000D01*
X121603923Y-83456215D01*
X122000000Y-83535001D01*
X122000005Y-83535000D01*
X124821288Y-83535000D01*
X125965000Y-84678711D01*
X125965000Y-85343156D01*
X125898559Y-85385910D01*
X125753569Y-85598110D01*
X125702560Y-85850000D01*
X125702560Y-87150000D01*
X125746838Y-87385317D01*
X125885910Y-87601441D01*
X125999329Y-87678937D01*
X126100982Y-87780590D01*
X125870389Y-87836271D01*
X125702378Y-88319078D01*
X125731917Y-88829428D01*
X125870389Y-89163729D01*
X126100984Y-89219410D01*
X126820395Y-88500000D01*
X126806252Y-88485858D01*
X126985858Y-88306252D01*
X127000000Y-88320395D01*
X127014142Y-88306252D01*
X127193748Y-88485858D01*
X127179605Y-88500000D01*
X127899016Y-89219410D01*
X128129611Y-89163729D01*
X128261143Y-88785750D01*
X131865000Y-88785750D01*
X131865000Y-89476310D01*
X131961673Y-89709699D01*
X132140302Y-89888327D01*
X132373691Y-89985000D01*
X133214250Y-89985000D01*
X133373000Y-89826250D01*
X133373000Y-88627000D01*
X132023750Y-88627000D01*
X131865000Y-88785750D01*
X128261143Y-88785750D01*
X128297622Y-88680922D01*
X128268083Y-88170572D01*
X128129611Y-87836271D01*
X127899018Y-87780590D01*
X128000680Y-87678928D01*
X128101441Y-87614090D01*
X128163208Y-87523690D01*
X131865000Y-87523690D01*
X131865000Y-88214250D01*
X132023750Y-88373000D01*
X133373000Y-88373000D01*
X133373000Y-87173750D01*
X133214250Y-87015000D01*
X132373691Y-87015000D01*
X132140302Y-87111673D01*
X131961673Y-87290301D01*
X131865000Y-87523690D01*
X128163208Y-87523690D01*
X128246431Y-87401890D01*
X128297440Y-87150000D01*
X128297440Y-85850000D01*
X128253162Y-85614683D01*
X128114090Y-85398559D01*
X128035000Y-85344519D01*
X128035000Y-84285750D01*
X131865000Y-84285750D01*
X131865000Y-84976310D01*
X131961673Y-85209699D01*
X132140302Y-85388327D01*
X132373691Y-85485000D01*
X133214250Y-85485000D01*
X133373000Y-85326250D01*
X133373000Y-84127000D01*
X132023750Y-84127000D01*
X131865000Y-84285750D01*
X128035000Y-84285750D01*
X128035000Y-84250005D01*
X128035001Y-84250000D01*
X127956215Y-83853923D01*
X127867437Y-83721057D01*
X127731856Y-83518144D01*
X127731853Y-83518142D01*
X127237402Y-83023690D01*
X131865000Y-83023690D01*
X131865000Y-83714250D01*
X132023750Y-83873000D01*
X133373000Y-83873000D01*
X133373000Y-82673750D01*
X133214250Y-82515000D01*
X132373691Y-82515000D01*
X132140302Y-82611673D01*
X131961673Y-82790301D01*
X131865000Y-83023690D01*
X127237402Y-83023690D01*
X125981856Y-81768144D01*
X125646077Y-81543785D01*
X125250000Y-81464999D01*
X125249995Y-81465000D01*
X122428711Y-81465000D01*
X121148210Y-80184498D01*
X121148210Y-79279270D01*
X121103932Y-79043953D01*
X120964860Y-78827829D01*
X120752660Y-78682839D01*
X120500770Y-78631830D01*
X118903110Y-78631830D01*
X118667793Y-78676108D01*
X118451669Y-78815180D01*
X118306679Y-79027380D01*
X118285000Y-79134434D01*
X118285000Y-77785750D01*
X123265560Y-77785750D01*
X123265560Y-80325059D01*
X123362233Y-80558448D01*
X123540861Y-80737077D01*
X123774250Y-80833750D01*
X126713610Y-80833750D01*
X126872360Y-80675000D01*
X126872360Y-77627000D01*
X127126360Y-77627000D01*
X127126360Y-80675000D01*
X127285110Y-80833750D01*
X130224470Y-80833750D01*
X130457859Y-80737077D01*
X130636487Y-80558448D01*
X130733160Y-80325059D01*
X130733160Y-80285750D01*
X131865000Y-80285750D01*
X131865000Y-80976310D01*
X131961673Y-81209699D01*
X132140302Y-81388327D01*
X132373691Y-81485000D01*
X133214250Y-81485000D01*
X133373000Y-81326250D01*
X133373000Y-80127000D01*
X132023750Y-80127000D01*
X131865000Y-80285750D01*
X130733160Y-80285750D01*
X130733160Y-79023690D01*
X131865000Y-79023690D01*
X131865000Y-79714250D01*
X132023750Y-79873000D01*
X133373000Y-79873000D01*
X133373000Y-78673750D01*
X133214250Y-78515000D01*
X132373691Y-78515000D01*
X132140302Y-78611673D01*
X131961673Y-78790301D01*
X131865000Y-79023690D01*
X130733160Y-79023690D01*
X130733160Y-77785750D01*
X130574410Y-77627000D01*
X127126360Y-77627000D01*
X126872360Y-77627000D01*
X123424310Y-77627000D01*
X123265560Y-77785750D01*
X118285000Y-77785750D01*
X118285000Y-77000005D01*
X118285001Y-77000000D01*
X118206215Y-76603923D01*
X118168750Y-76547852D01*
X117981856Y-76268144D01*
X117981853Y-76268142D01*
X117970331Y-76256620D01*
X118562615Y-76256620D01*
X118651220Y-76317161D01*
X118903110Y-76368170D01*
X120500770Y-76368170D01*
X120736087Y-76323892D01*
X120952211Y-76184820D01*
X121097201Y-75972620D01*
X121148210Y-75720730D01*
X121148210Y-74722510D01*
X121139260Y-74674941D01*
X123265560Y-74674941D01*
X123265560Y-77214250D01*
X123424310Y-77373000D01*
X126872360Y-77373000D01*
X126872360Y-74325000D01*
X127126360Y-74325000D01*
X127126360Y-77373000D01*
X130574410Y-77373000D01*
X130733160Y-77214250D01*
X130733160Y-74674941D01*
X130636487Y-74441552D01*
X130457859Y-74262923D01*
X130224470Y-74166250D01*
X127285110Y-74166250D01*
X127126360Y-74325000D01*
X126872360Y-74325000D01*
X126713610Y-74166250D01*
X123774250Y-74166250D01*
X123540861Y-74262923D01*
X123362233Y-74441552D01*
X123265560Y-74674941D01*
X121139260Y-74674941D01*
X121103932Y-74487193D01*
X120964860Y-74271069D01*
X120752660Y-74126079D01*
X120500770Y-74075070D01*
X118903110Y-74075070D01*
X118667793Y-74119348D01*
X118563249Y-74186620D01*
X115471625Y-74186620D01*
X115471620Y-74186619D01*
X115471615Y-74186620D01*
X112997440Y-74186620D01*
X112997440Y-73600000D01*
X112953162Y-73364683D01*
X112814090Y-73148559D01*
X112601890Y-73003569D01*
X112350000Y-72952560D01*
X109150000Y-72952560D01*
X108914683Y-72996838D01*
X108698559Y-73135910D01*
X108553569Y-73348110D01*
X108502560Y-73600000D01*
X107460000Y-73600000D01*
X107460000Y-70972675D01*
X107664801Y-71199858D01*
X108156928Y-71434231D01*
X108373000Y-71312476D01*
X108373000Y-70207000D01*
X108627000Y-70207000D01*
X108627000Y-71312476D01*
X108843072Y-71434231D01*
X109335199Y-71199858D01*
X109700174Y-70794997D01*
X109854220Y-70423070D01*
X113145780Y-70423070D01*
X113299826Y-70794997D01*
X113664801Y-71199858D01*
X114156928Y-71434231D01*
X114373000Y-71312476D01*
X114373000Y-70207000D01*
X114627000Y-70207000D01*
X114627000Y-71312476D01*
X114843072Y-71434231D01*
X115335199Y-71199858D01*
X115700174Y-70794997D01*
X115854220Y-70423070D01*
X119145780Y-70423070D01*
X119299826Y-70794997D01*
X119664801Y-71199858D01*
X120156928Y-71434231D01*
X120373000Y-71312476D01*
X120373000Y-70207000D01*
X120627000Y-70207000D01*
X120627000Y-71312476D01*
X120843072Y-71434231D01*
X121335199Y-71199858D01*
X121700174Y-70794997D01*
X121854220Y-70423070D01*
X125145780Y-70423070D01*
X125299826Y-70794997D01*
X125664801Y-71199858D01*
X126156928Y-71434231D01*
X126373000Y-71312476D01*
X126373000Y-70207000D01*
X126627000Y-70207000D01*
X126627000Y-71312476D01*
X126843072Y-71434231D01*
X127335199Y-71199858D01*
X127700174Y-70794997D01*
X127854220Y-70423070D01*
X131145780Y-70423070D01*
X131299826Y-70794997D01*
X131664801Y-71199858D01*
X132156928Y-71434231D01*
X132373000Y-71312476D01*
X132373000Y-70207000D01*
X132627000Y-70207000D01*
X132627000Y-71312476D01*
X132843072Y-71434231D01*
X133335199Y-71199858D01*
X133700174Y-70794997D01*
X133854220Y-70423070D01*
X133731720Y-70207000D01*
X132627000Y-70207000D01*
X132373000Y-70207000D01*
X131268280Y-70207000D01*
X131145780Y-70423070D01*
X127854220Y-70423070D01*
X127731720Y-70207000D01*
X126627000Y-70207000D01*
X126373000Y-70207000D01*
X125268280Y-70207000D01*
X125145780Y-70423070D01*
X121854220Y-70423070D01*
X121731720Y-70207000D01*
X120627000Y-70207000D01*
X120373000Y-70207000D01*
X119268280Y-70207000D01*
X119145780Y-70423070D01*
X115854220Y-70423070D01*
X115731720Y-70207000D01*
X114627000Y-70207000D01*
X114373000Y-70207000D01*
X113268280Y-70207000D01*
X113145780Y-70423070D01*
X109854220Y-70423070D01*
X109731720Y-70207000D01*
X108627000Y-70207000D01*
X108373000Y-70207000D01*
X108353000Y-70207000D01*
X108353000Y-69953000D01*
X108373000Y-69953000D01*
X108373000Y-69933000D01*
X108627000Y-69933000D01*
X108627000Y-69953000D01*
X109731720Y-69953000D01*
X109854220Y-69736930D01*
X109700174Y-69365003D01*
X109335199Y-68960142D01*
X109062536Y-68830287D01*
X109515197Y-68527828D01*
X109818029Y-68074609D01*
X109924369Y-67540000D01*
X109818029Y-67005391D01*
X109515197Y-66552172D01*
X109092898Y-66270000D01*
X109515197Y-65987828D01*
X109818029Y-65534609D01*
X109924369Y-65000000D01*
X109818029Y-64465391D01*
X109515197Y-64012172D01*
X109260000Y-63841654D01*
X109260000Y-62814802D01*
X109314802Y-62760000D01*
X113930927Y-62760000D01*
X113797852Y-62959161D01*
X113740000Y-63250000D01*
X113740000Y-63841654D01*
X113484803Y-64012172D01*
X113181971Y-64465391D01*
X113075631Y-65000000D01*
X113181971Y-65534609D01*
X113484803Y-65987828D01*
X113907102Y-66270000D01*
X113484803Y-66552172D01*
X113181971Y-67005391D01*
X113075631Y-67540000D01*
X113181971Y-68074609D01*
X113484803Y-68527828D01*
X113937464Y-68830287D01*
X113664801Y-68960142D01*
X113299826Y-69365003D01*
X113145780Y-69736930D01*
X113268280Y-69953000D01*
X114373000Y-69953000D01*
X114373000Y-69933000D01*
X114627000Y-69933000D01*
X114627000Y-69953000D01*
X115731720Y-69953000D01*
X115854220Y-69736930D01*
X115700174Y-69365003D01*
X115335199Y-68960142D01*
X115062536Y-68830287D01*
X115515197Y-68527828D01*
X115818029Y-68074609D01*
X115924369Y-67540000D01*
X115818029Y-67005391D01*
X115515197Y-66552172D01*
X115092898Y-66270000D01*
X115515197Y-65987828D01*
X115818029Y-65534609D01*
X115924369Y-65000000D01*
X115818029Y-64465391D01*
X115515197Y-64012172D01*
X115260000Y-63841654D01*
X115260000Y-63564802D01*
X115314802Y-63510000D01*
X119787739Y-63510000D01*
X119740000Y-63750000D01*
X119740000Y-63841654D01*
X119484803Y-64012172D01*
X119181971Y-64465391D01*
X119075631Y-65000000D01*
X119181971Y-65534609D01*
X119484803Y-65987828D01*
X119907102Y-66270000D01*
X119484803Y-66552172D01*
X119181971Y-67005391D01*
X119075631Y-67540000D01*
X119181971Y-68074609D01*
X119484803Y-68527828D01*
X119937464Y-68830287D01*
X119664801Y-68960142D01*
X119299826Y-69365003D01*
X119145780Y-69736930D01*
X119268280Y-69953000D01*
X120373000Y-69953000D01*
X120373000Y-69933000D01*
X120627000Y-69933000D01*
X120627000Y-69953000D01*
X121731720Y-69953000D01*
X121854220Y-69736930D01*
X121700174Y-69365003D01*
X121335199Y-68960142D01*
X121062536Y-68830287D01*
X121515197Y-68527828D01*
X121818029Y-68074609D01*
X121924369Y-67540000D01*
X121818029Y-67005391D01*
X121515197Y-66552172D01*
X121092898Y-66270000D01*
X121515197Y-65987828D01*
X121818029Y-65534609D01*
X121924369Y-65000000D01*
X125075631Y-65000000D01*
X125181971Y-65534609D01*
X125484803Y-65987828D01*
X125907102Y-66270000D01*
X125484803Y-66552172D01*
X125181971Y-67005391D01*
X125075631Y-67540000D01*
X125181971Y-68074609D01*
X125484803Y-68527828D01*
X125937464Y-68830287D01*
X125664801Y-68960142D01*
X125299826Y-69365003D01*
X125145780Y-69736930D01*
X125268280Y-69953000D01*
X126373000Y-69953000D01*
X126373000Y-69933000D01*
X126627000Y-69933000D01*
X126627000Y-69953000D01*
X127731720Y-69953000D01*
X127854220Y-69736930D01*
X127700174Y-69365003D01*
X127335199Y-68960142D01*
X127062536Y-68830287D01*
X127515197Y-68527828D01*
X127818029Y-68074609D01*
X127924369Y-67540000D01*
X127818029Y-67005391D01*
X127515197Y-66552172D01*
X127092898Y-66270000D01*
X127515197Y-65987828D01*
X127818029Y-65534609D01*
X127924369Y-65000000D01*
X131075631Y-65000000D01*
X131181971Y-65534609D01*
X131484803Y-65987828D01*
X131907102Y-66270000D01*
X131484803Y-66552172D01*
X131181971Y-67005391D01*
X131075631Y-67540000D01*
X131181971Y-68074609D01*
X131484803Y-68527828D01*
X131937464Y-68830287D01*
X131664801Y-68960142D01*
X131299826Y-69365003D01*
X131145780Y-69736930D01*
X131268280Y-69953000D01*
X132373000Y-69953000D01*
X132373000Y-69933000D01*
X132627000Y-69933000D01*
X132627000Y-69953000D01*
X133731720Y-69953000D01*
X133854220Y-69736930D01*
X133700174Y-69365003D01*
X133335199Y-68960142D01*
X133062536Y-68830287D01*
X133515197Y-68527828D01*
X133818029Y-68074609D01*
X133924369Y-67540000D01*
X133818029Y-67005391D01*
X133515197Y-66552172D01*
X133092898Y-66270000D01*
X133515197Y-65987828D01*
X133818029Y-65534609D01*
X133924369Y-65000000D01*
X133818029Y-64465391D01*
X133515197Y-64012172D01*
X133061978Y-63709340D01*
X132527369Y-63603000D01*
X132472631Y-63603000D01*
X131938022Y-63709340D01*
X131484803Y-64012172D01*
X131181971Y-64465391D01*
X131075631Y-65000000D01*
X127924369Y-65000000D01*
X127818029Y-64465391D01*
X127515197Y-64012172D01*
X127061978Y-63709340D01*
X126527369Y-63603000D01*
X126472631Y-63603000D01*
X125938022Y-63709340D01*
X125484803Y-64012172D01*
X125181971Y-64465391D01*
X125075631Y-65000000D01*
X121924369Y-65000000D01*
X121818029Y-64465391D01*
X121515197Y-64012172D01*
X121511946Y-64010000D01*
X124500000Y-64010000D01*
X124790839Y-63952148D01*
X125037401Y-63787401D01*
X126064802Y-62760000D01*
X126835200Y-62760000D01*
X127126039Y-62702148D01*
X127372601Y-62537401D01*
X127895572Y-62014430D01*
X128031391Y-62105181D01*
X128566000Y-62211521D01*
X129100609Y-62105181D01*
X129553828Y-61802349D01*
X129836000Y-61380050D01*
X130118172Y-61802349D01*
X130571391Y-62105181D01*
X131106000Y-62211521D01*
X131640609Y-62105181D01*
X132093828Y-61802349D01*
X132396660Y-61349130D01*
X132503000Y-60814521D01*
X132503000Y-59947002D01*
X133190002Y-59260000D01*
X133865271Y-59260000D01*
X133773000Y-59723879D01*
X133773000Y-60814521D01*
X133879340Y-61349130D01*
X134182172Y-61802349D01*
X134635391Y-62105181D01*
X134740000Y-62125989D01*
X134740000Y-78562092D01*
X134626309Y-78515000D01*
X133785750Y-78515000D01*
X133627000Y-78673750D01*
X133627000Y-79873000D01*
X133647000Y-79873000D01*
X133647000Y-80127000D01*
X133627000Y-80127000D01*
X133627000Y-81326250D01*
X133785750Y-81485000D01*
X134626309Y-81485000D01*
X134740000Y-81437908D01*
X134740000Y-82562092D01*
X134626309Y-82515000D01*
X133785750Y-82515000D01*
X133627000Y-82673750D01*
X133627000Y-83873000D01*
X133647000Y-83873000D01*
X133647000Y-84127000D01*
X133627000Y-84127000D01*
X133627000Y-85326250D01*
X133785750Y-85485000D01*
X134626309Y-85485000D01*
X134740000Y-85437908D01*
X134740000Y-87062092D01*
X134626309Y-87015000D01*
X133785750Y-87015000D01*
X133627000Y-87173750D01*
X133627000Y-88373000D01*
X133647000Y-88373000D01*
X133647000Y-88627000D01*
X133627000Y-88627000D01*
X133627000Y-89826250D01*
X133785750Y-89985000D01*
X134626309Y-89985000D01*
X134859698Y-89888327D01*
X135038327Y-89709699D01*
X135135000Y-89476310D01*
X135135000Y-88785750D01*
X134976252Y-88627002D01*
X135052200Y-88627002D01*
X135462599Y-89037401D01*
X135709161Y-89202148D01*
X135852560Y-89230672D01*
X135852560Y-89350000D01*
X135896838Y-89585317D01*
X136035910Y-89801441D01*
X136248110Y-89946431D01*
X136500000Y-89997440D01*
X138500000Y-89997440D01*
X138735317Y-89953162D01*
X138951441Y-89814090D01*
X139096431Y-89601890D01*
X139147440Y-89350000D01*
X139147440Y-89260000D01*
X139250000Y-89260000D01*
X139540839Y-89202148D01*
X139787401Y-89037401D01*
X140537401Y-88287401D01*
X140702148Y-88040840D01*
X140760000Y-87750000D01*
X140760000Y-87314802D01*
X140761420Y-87313382D01*
X140785910Y-87351441D01*
X140998110Y-87496431D01*
X141250000Y-87547440D01*
X142800000Y-87547440D01*
X143035317Y-87503162D01*
X143251441Y-87364090D01*
X143396431Y-87151890D01*
X143447440Y-86900000D01*
X143447440Y-85600000D01*
X148552560Y-85600000D01*
X148552560Y-86900000D01*
X148596838Y-87135317D01*
X148735910Y-87351441D01*
X148948110Y-87496431D01*
X149200000Y-87547440D01*
X150750000Y-87547440D01*
X150985317Y-87503162D01*
X151201441Y-87364090D01*
X151346431Y-87151890D01*
X151397440Y-86900000D01*
X151397440Y-85600000D01*
X151353162Y-85364683D01*
X151214090Y-85148559D01*
X151051038Y-85037150D01*
X151665230Y-85037150D01*
X151665230Y-85477149D01*
X151761903Y-85710538D01*
X151940531Y-85889167D01*
X152173920Y-85985840D01*
X152714250Y-85985840D01*
X152873000Y-85827090D01*
X152873000Y-84878400D01*
X153127000Y-84878400D01*
X153127000Y-85827090D01*
X153285750Y-85985840D01*
X153826080Y-85985840D01*
X154059469Y-85889167D01*
X154238097Y-85710538D01*
X154334770Y-85477149D01*
X154334770Y-85037150D01*
X154176020Y-84878400D01*
X153127000Y-84878400D01*
X152873000Y-84878400D01*
X151823980Y-84878400D01*
X151665230Y-85037150D01*
X151051038Y-85037150D01*
X151001890Y-85003569D01*
X150750000Y-84952560D01*
X149200000Y-84952560D01*
X148964683Y-84996838D01*
X148748559Y-85135910D01*
X148603569Y-85348110D01*
X148552560Y-85600000D01*
X143447440Y-85600000D01*
X143403162Y-85364683D01*
X143264090Y-85148559D01*
X143051890Y-85003569D01*
X142800000Y-84952560D01*
X142759726Y-84952560D01*
X142895072Y-84750000D01*
X142981215Y-84621078D01*
X143060000Y-84225000D01*
X143060000Y-83987279D01*
X143251441Y-83864090D01*
X143396431Y-83651890D01*
X143447440Y-83400000D01*
X143447440Y-82100000D01*
X148552560Y-82100000D01*
X148552560Y-83400000D01*
X148596838Y-83635317D01*
X148735910Y-83851441D01*
X148948110Y-83996431D01*
X149200000Y-84047440D01*
X150750000Y-84047440D01*
X150865798Y-84025651D01*
X151665230Y-84025651D01*
X151665230Y-84465650D01*
X151823980Y-84624400D01*
X152873000Y-84624400D01*
X152873000Y-83675710D01*
X153127000Y-83675710D01*
X153127000Y-84624400D01*
X154176020Y-84624400D01*
X154334770Y-84465650D01*
X154334770Y-84025651D01*
X154238097Y-83792262D01*
X154059469Y-83613633D01*
X153826080Y-83516960D01*
X153285750Y-83516960D01*
X153127000Y-83675710D01*
X152873000Y-83675710D01*
X152714250Y-83516960D01*
X152173920Y-83516960D01*
X151940531Y-83613633D01*
X151761903Y-83792262D01*
X151665230Y-84025651D01*
X150865798Y-84025651D01*
X150985317Y-84003162D01*
X151201441Y-83864090D01*
X151346431Y-83651890D01*
X151397440Y-83400000D01*
X151397440Y-82100000D01*
X151353162Y-81864683D01*
X151214090Y-81648559D01*
X151001890Y-81503569D01*
X150750000Y-81452560D01*
X149200000Y-81452560D01*
X148964683Y-81496838D01*
X148748559Y-81635910D01*
X148603569Y-81848110D01*
X148552560Y-82100000D01*
X143447440Y-82100000D01*
X143403162Y-81864683D01*
X143264090Y-81648559D01*
X143051890Y-81503569D01*
X142800000Y-81452560D01*
X141250000Y-81452560D01*
X141014683Y-81496838D01*
X141010000Y-81499851D01*
X141010000Y-79498839D01*
X141250000Y-79547440D01*
X142800000Y-79547440D01*
X143035317Y-79503162D01*
X143251441Y-79364090D01*
X143396431Y-79151890D01*
X143425164Y-79010000D01*
X143500000Y-79010000D01*
X143790839Y-78952148D01*
X144037401Y-78787401D01*
X145037401Y-77787401D01*
X145162617Y-77600000D01*
X148552560Y-77600000D01*
X148552560Y-78900000D01*
X148596838Y-79135317D01*
X148735910Y-79351441D01*
X148948110Y-79496431D01*
X149200000Y-79547440D01*
X150750000Y-79547440D01*
X150985317Y-79503162D01*
X151201441Y-79364090D01*
X151346431Y-79151890D01*
X151397440Y-78900000D01*
X151397440Y-77600000D01*
X151353162Y-77364683D01*
X151214090Y-77148559D01*
X151001890Y-77003569D01*
X150750000Y-76952560D01*
X149200000Y-76952560D01*
X148964683Y-76996838D01*
X148748559Y-77135910D01*
X148603569Y-77348110D01*
X148552560Y-77600000D01*
X145162617Y-77600000D01*
X145202148Y-77540839D01*
X145260000Y-77250000D01*
X145260000Y-74100000D01*
X148552560Y-74100000D01*
X148552560Y-75400000D01*
X148596838Y-75635317D01*
X148735910Y-75851441D01*
X148948110Y-75996431D01*
X149200000Y-76047440D01*
X150750000Y-76047440D01*
X150985317Y-76003162D01*
X151201441Y-75864090D01*
X151346431Y-75651890D01*
X151397440Y-75400000D01*
X151397440Y-74100000D01*
X151353162Y-73864683D01*
X151214090Y-73648559D01*
X151001890Y-73503569D01*
X150750000Y-73452560D01*
X149200000Y-73452560D01*
X148964683Y-73496838D01*
X148748559Y-73635910D01*
X148603569Y-73848110D01*
X148552560Y-74100000D01*
X145260000Y-74100000D01*
X145260000Y-69250000D01*
X145202148Y-68959161D01*
X145037401Y-68712599D01*
X144037401Y-67712599D01*
X143790839Y-67547852D01*
X143537403Y-67497440D01*
X145000000Y-67497440D01*
X145235317Y-67453162D01*
X145240000Y-67450149D01*
X145240000Y-67500000D01*
X145297852Y-67790839D01*
X145462599Y-68037401D01*
X145962599Y-68537401D01*
X146209161Y-68702148D01*
X146500000Y-68760000D01*
X148685198Y-68760000D01*
X148938734Y-69013536D01*
X148748559Y-69135910D01*
X148603569Y-69348110D01*
X148552560Y-69600000D01*
X148552560Y-70900000D01*
X148596838Y-71135317D01*
X148735910Y-71351441D01*
X148948110Y-71496431D01*
X149200000Y-71547440D01*
X150750000Y-71547440D01*
X150985317Y-71503162D01*
X151201441Y-71364090D01*
X151346431Y-71151890D01*
X151397440Y-70900000D01*
X151397440Y-69600000D01*
X151353162Y-69364683D01*
X151214090Y-69148559D01*
X151001890Y-69003569D01*
X150750000Y-68952560D01*
X150730536Y-68952560D01*
X150697684Y-68787401D01*
X150677148Y-68684160D01*
X150512401Y-68437599D01*
X149537401Y-67462599D01*
X149382008Y-67358769D01*
X149451441Y-67314090D01*
X149471761Y-67284350D01*
X151165230Y-67284350D01*
X151165230Y-67724349D01*
X151261903Y-67957738D01*
X151440531Y-68136367D01*
X151673920Y-68233040D01*
X152214250Y-68233040D01*
X152373000Y-68074290D01*
X152373000Y-67125600D01*
X152627000Y-67125600D01*
X152627000Y-68074290D01*
X152785750Y-68233040D01*
X153326080Y-68233040D01*
X153559469Y-68136367D01*
X153738097Y-67957738D01*
X153834770Y-67724349D01*
X153834770Y-67284350D01*
X153676020Y-67125600D01*
X152627000Y-67125600D01*
X152373000Y-67125600D01*
X151323980Y-67125600D01*
X151165230Y-67284350D01*
X149471761Y-67284350D01*
X149596431Y-67101890D01*
X149647440Y-66850000D01*
X149647440Y-66272851D01*
X151165230Y-66272851D01*
X151165230Y-66712850D01*
X151323980Y-66871600D01*
X152373000Y-66871600D01*
X152373000Y-65922910D01*
X152627000Y-65922910D01*
X152627000Y-66871600D01*
X153676020Y-66871600D01*
X153834770Y-66712850D01*
X153834770Y-66272851D01*
X153738097Y-66039462D01*
X153559469Y-65860833D01*
X153326080Y-65764160D01*
X152785750Y-65764160D01*
X152627000Y-65922910D01*
X152373000Y-65922910D01*
X152214250Y-65764160D01*
X151673920Y-65764160D01*
X151440531Y-65860833D01*
X151261903Y-66039462D01*
X151165230Y-66272851D01*
X149647440Y-66272851D01*
X149647440Y-65260000D01*
X150750000Y-65260000D01*
X151040839Y-65202148D01*
X151287401Y-65037401D01*
X151311231Y-65013571D01*
X151336140Y-65052281D01*
X151548340Y-65197271D01*
X151800230Y-65248280D01*
X153199770Y-65248280D01*
X153435087Y-65204002D01*
X153651211Y-65064930D01*
X153796201Y-64852730D01*
X153847210Y-64600840D01*
X153847210Y-63401960D01*
X153802932Y-63166643D01*
X153663860Y-62950519D01*
X153451660Y-62805529D01*
X153199770Y-62754520D01*
X151800230Y-62754520D01*
X151564913Y-62798798D01*
X151348789Y-62937870D01*
X151203799Y-63150070D01*
X151182648Y-63254519D01*
X150957761Y-63299252D01*
X150711199Y-63463999D01*
X150435198Y-63740000D01*
X148500000Y-63740000D01*
X148209161Y-63797852D01*
X147962599Y-63962599D01*
X147462599Y-64462599D01*
X147435898Y-64502560D01*
X147322242Y-64502560D01*
X148407401Y-63417401D01*
X148572148Y-63170840D01*
X148630000Y-62880000D01*
X148630000Y-61954579D01*
X148857828Y-61802349D01*
X149140000Y-61380050D01*
X149422172Y-61802349D01*
X149875391Y-62105181D01*
X150410000Y-62211521D01*
X150944609Y-62105181D01*
X151397828Y-61802349D01*
X151680000Y-61380050D01*
X151962172Y-61802349D01*
X152415391Y-62105181D01*
X152950000Y-62211521D01*
X153484609Y-62105181D01*
X153937828Y-61802349D01*
X154240660Y-61349130D01*
X154347000Y-60814521D01*
X154347000Y-59723879D01*
X154240660Y-59189270D01*
X153937828Y-58736051D01*
X153898840Y-58710000D01*
X154680070Y-58710000D01*
X154759985Y-58725896D01*
X154759985Y-58725896D01*
G37*
X154759985Y-58725896D02*
X154768448Y-58731551D01*
X154774104Y-58740016D01*
X154790000Y-58819930D01*
X154790000Y-109680070D01*
X154774104Y-109759984D01*
X154768448Y-109768449D01*
X154759985Y-109774104D01*
X154680070Y-109790000D01*
X154119806Y-109790000D01*
X154240660Y-109609130D01*
X154347000Y-109074521D01*
X154347000Y-107983879D01*
X154240660Y-107449270D01*
X153937828Y-106996051D01*
X153710000Y-106843821D01*
X153710000Y-104700000D01*
X153652148Y-104409161D01*
X153652148Y-104409160D01*
X153487401Y-104162599D01*
X153087399Y-103762597D01*
X152840837Y-103597850D01*
X152549998Y-103539998D01*
X150260000Y-103539998D01*
X150260000Y-103011040D01*
X150516000Y-103011040D01*
X150751317Y-102966762D01*
X150967441Y-102827690D01*
X151112431Y-102615490D01*
X151163440Y-102363600D01*
X151163440Y-100636400D01*
X151119162Y-100401083D01*
X150980090Y-100184959D01*
X150767890Y-100039969D01*
X150726561Y-100031600D01*
X150744415Y-100019670D01*
X151069271Y-99533489D01*
X151183345Y-98960000D01*
X151069271Y-98386511D01*
X150744415Y-97900330D01*
X150434931Y-97693539D01*
X150850732Y-97322036D01*
X151104709Y-96794791D01*
X151107358Y-96779026D01*
X150986217Y-96547000D01*
X149627000Y-96547000D01*
X149627000Y-96567000D01*
X149373000Y-96567000D01*
X149373000Y-96547000D01*
X148013783Y-96547000D01*
X147892642Y-96779026D01*
X147895291Y-96794791D01*
X148149268Y-97322036D01*
X148565069Y-97693539D01*
X148255585Y-97900330D01*
X147930729Y-98386511D01*
X147816655Y-98960000D01*
X147930729Y-99533489D01*
X148255585Y-100019670D01*
X148269913Y-100029243D01*
X148248683Y-100033238D01*
X148032559Y-100172310D01*
X147887569Y-100384510D01*
X147836560Y-100636400D01*
X147836560Y-102363600D01*
X147880838Y-102598917D01*
X148019910Y-102815041D01*
X148232110Y-102960031D01*
X148484000Y-103011040D01*
X148740000Y-103011040D01*
X148740000Y-103990000D01*
X145260000Y-103990000D01*
X145260000Y-103011040D01*
X145516000Y-103011040D01*
X145751317Y-102966762D01*
X145967441Y-102827690D01*
X146112431Y-102615490D01*
X146163440Y-102363600D01*
X146163440Y-100636400D01*
X146119162Y-100401083D01*
X145980090Y-100184959D01*
X145767890Y-100039969D01*
X145726561Y-100031600D01*
X145744415Y-100019670D01*
X146069271Y-99533489D01*
X146183345Y-98960000D01*
X146069271Y-98386511D01*
X145744415Y-97900330D01*
X145434931Y-97693539D01*
X145850732Y-97322036D01*
X146104709Y-96794791D01*
X146107358Y-96779026D01*
X145986217Y-96547000D01*
X144627000Y-96547000D01*
X144627000Y-96567000D01*
X144373000Y-96567000D01*
X144373000Y-96547000D01*
X143013783Y-96547000D01*
X142892642Y-96779026D01*
X142895291Y-96794791D01*
X143149268Y-97322036D01*
X143565069Y-97693539D01*
X143255585Y-97900330D01*
X142930729Y-98386511D01*
X142816655Y-98960000D01*
X142930729Y-99533489D01*
X143255585Y-100019670D01*
X143269913Y-100029243D01*
X143248683Y-100033238D01*
X143032559Y-100172310D01*
X142887569Y-100384510D01*
X142836560Y-100636400D01*
X142836560Y-102363600D01*
X142880838Y-102598917D01*
X143019910Y-102815041D01*
X143232110Y-102960031D01*
X143484000Y-103011040D01*
X143740000Y-103011040D01*
X143740000Y-104490000D01*
X140760000Y-104490000D01*
X140760000Y-103011040D01*
X141016000Y-103011040D01*
X141251317Y-102966762D01*
X141467441Y-102827690D01*
X141612431Y-102615490D01*
X141663440Y-102363600D01*
X141663440Y-100636400D01*
X141619162Y-100401083D01*
X141480090Y-100184959D01*
X141267890Y-100039969D01*
X141226561Y-100031600D01*
X141244415Y-100019670D01*
X141569271Y-99533489D01*
X141683345Y-98960000D01*
X141569271Y-98386511D01*
X141244415Y-97900330D01*
X140934931Y-97693539D01*
X141350732Y-97322036D01*
X141604709Y-96794791D01*
X141607358Y-96779026D01*
X141486217Y-96547000D01*
X140127000Y-96547000D01*
X140127000Y-96567000D01*
X139873000Y-96567000D01*
X139873000Y-96547000D01*
X138513783Y-96547000D01*
X138392642Y-96779026D01*
X138395291Y-96794791D01*
X138649268Y-97322036D01*
X139065069Y-97693539D01*
X138755585Y-97900330D01*
X138430729Y-98386511D01*
X138316655Y-98960000D01*
X138430729Y-99533489D01*
X138755585Y-100019670D01*
X138769913Y-100029243D01*
X138748683Y-100033238D01*
X138532559Y-100172310D01*
X138387569Y-100384510D01*
X138336560Y-100636400D01*
X138336560Y-102363600D01*
X138380838Y-102598917D01*
X138519910Y-102815041D01*
X138732110Y-102960031D01*
X138984000Y-103011040D01*
X139240000Y-103011040D01*
X139240000Y-104990000D01*
X135760000Y-104990000D01*
X135760000Y-103011040D01*
X136016000Y-103011040D01*
X136251317Y-102966762D01*
X136467441Y-102827690D01*
X136612431Y-102615490D01*
X136663440Y-102363600D01*
X136663440Y-100636400D01*
X136619162Y-100401083D01*
X136480090Y-100184959D01*
X136267890Y-100039969D01*
X136226561Y-100031600D01*
X136244415Y-100019670D01*
X136569271Y-99533489D01*
X136683345Y-98960000D01*
X136569271Y-98386511D01*
X136244415Y-97900330D01*
X135934931Y-97693539D01*
X136350732Y-97322036D01*
X136604709Y-96794791D01*
X136607358Y-96779026D01*
X136486217Y-96547000D01*
X135127000Y-96547000D01*
X135127000Y-96567000D01*
X134873000Y-96567000D01*
X134873000Y-96547000D01*
X133513783Y-96547000D01*
X133392642Y-96779026D01*
X133395291Y-96794791D01*
X133649268Y-97322036D01*
X134065069Y-97693539D01*
X133755585Y-97900330D01*
X133430729Y-98386511D01*
X133316655Y-98960000D01*
X133430729Y-99533489D01*
X133755585Y-100019670D01*
X133769913Y-100029243D01*
X133748683Y-100033238D01*
X133532559Y-100172310D01*
X133387569Y-100384510D01*
X133336560Y-100636400D01*
X133336560Y-102363600D01*
X133380838Y-102598917D01*
X133519910Y-102815041D01*
X133732110Y-102960031D01*
X133984000Y-103011040D01*
X134240000Y-103011040D01*
X134240000Y-105490000D01*
X131260000Y-105490000D01*
X131260000Y-103011040D01*
X131516000Y-103011040D01*
X131751317Y-102966762D01*
X131967441Y-102827690D01*
X132112431Y-102615490D01*
X132163440Y-102363600D01*
X132163440Y-100636400D01*
X132119162Y-100401083D01*
X131980090Y-100184959D01*
X131767890Y-100039969D01*
X131726561Y-100031600D01*
X131744415Y-100019670D01*
X132069271Y-99533489D01*
X132183345Y-98960000D01*
X132069271Y-98386511D01*
X131744415Y-97900330D01*
X131434931Y-97693539D01*
X131850732Y-97322036D01*
X132104709Y-96794791D01*
X132107358Y-96779026D01*
X131986217Y-96547000D01*
X130627000Y-96547000D01*
X130627000Y-96567000D01*
X130373000Y-96567000D01*
X130373000Y-96547000D01*
X129013783Y-96547000D01*
X128892642Y-96779026D01*
X128895291Y-96794791D01*
X129149268Y-97322036D01*
X129565069Y-97693539D01*
X129255585Y-97900330D01*
X128930729Y-98386511D01*
X128816655Y-98960000D01*
X128930729Y-99533489D01*
X129255585Y-100019670D01*
X129269913Y-100029243D01*
X129248683Y-100033238D01*
X129032559Y-100172310D01*
X128887569Y-100384510D01*
X128836560Y-100636400D01*
X128836560Y-102363600D01*
X128880838Y-102598917D01*
X129019910Y-102815041D01*
X129232110Y-102960031D01*
X129484000Y-103011040D01*
X129740000Y-103011040D01*
X129740000Y-105990000D01*
X126760000Y-105990000D01*
X126760000Y-103011040D01*
X127016000Y-103011040D01*
X127251317Y-102966762D01*
X127467441Y-102827690D01*
X127612431Y-102615490D01*
X127663440Y-102363600D01*
X127663440Y-100636400D01*
X127619162Y-100401083D01*
X127480090Y-100184959D01*
X127267890Y-100039969D01*
X127226561Y-100031600D01*
X127244415Y-100019670D01*
X127569271Y-99533489D01*
X127683345Y-98960000D01*
X127569271Y-98386511D01*
X127244415Y-97900330D01*
X126934931Y-97693539D01*
X127350732Y-97322036D01*
X127604709Y-96794791D01*
X127607358Y-96779026D01*
X127486217Y-96547000D01*
X126127000Y-96547000D01*
X126127000Y-96567000D01*
X125873000Y-96567000D01*
X125873000Y-96547000D01*
X124513783Y-96547000D01*
X124392642Y-96779026D01*
X124395291Y-96794791D01*
X124649268Y-97322036D01*
X125065069Y-97693539D01*
X124755585Y-97900330D01*
X124430729Y-98386511D01*
X124316655Y-98960000D01*
X124430729Y-99533489D01*
X124755585Y-100019670D01*
X124769913Y-100029243D01*
X124748683Y-100033238D01*
X124532559Y-100172310D01*
X124387569Y-100384510D01*
X124336560Y-100636400D01*
X124336560Y-102363600D01*
X124380838Y-102598917D01*
X124519910Y-102815041D01*
X124732110Y-102960031D01*
X124984000Y-103011040D01*
X125240000Y-103011040D01*
X125240000Y-106500000D01*
X125267469Y-106638093D01*
X125010000Y-106586879D01*
X124475391Y-106693219D01*
X124022172Y-106996051D01*
X123740000Y-107418350D01*
X123457828Y-106996051D01*
X123004609Y-106693219D01*
X122470000Y-106586879D01*
X121935391Y-106693219D01*
X121482172Y-106996051D01*
X121200000Y-107418350D01*
X120917828Y-106996051D01*
X120464609Y-106693219D01*
X119930000Y-106586879D01*
X119395391Y-106693219D01*
X118942172Y-106996051D01*
X118660000Y-107418350D01*
X118377828Y-106996051D01*
X117924609Y-106693219D01*
X117390000Y-106586879D01*
X116855391Y-106693219D01*
X116402172Y-106996051D01*
X116099340Y-107449270D01*
X115993000Y-107983879D01*
X115993000Y-109074521D01*
X116099340Y-109609130D01*
X116220194Y-109790000D01*
X107569930Y-109790000D01*
X107490016Y-109774104D01*
X107481551Y-109768448D01*
X107475896Y-109759985D01*
X107460000Y-109680070D01*
X107460000Y-100000000D01*
X116575631Y-100000000D01*
X116681971Y-100534609D01*
X116984803Y-100987828D01*
X117407102Y-101270000D01*
X116984803Y-101552172D01*
X116681971Y-102005391D01*
X116575631Y-102540000D01*
X116681971Y-103074609D01*
X116984803Y-103527828D01*
X117438022Y-103830660D01*
X117972631Y-103937000D01*
X118027369Y-103937000D01*
X118561978Y-103830660D01*
X119015197Y-103527828D01*
X119318029Y-103074609D01*
X119424369Y-102540000D01*
X119318029Y-102005391D01*
X119015197Y-101552172D01*
X118592898Y-101270000D01*
X119015197Y-100987828D01*
X119318029Y-100534609D01*
X119424369Y-100000000D01*
X119318029Y-99465391D01*
X119015197Y-99012172D01*
X118561978Y-98709340D01*
X118027369Y-98603000D01*
X117972631Y-98603000D01*
X117438022Y-98709340D01*
X116984803Y-99012172D01*
X116681971Y-99465391D01*
X116575631Y-100000000D01*
X107460000Y-100000000D01*
X107460000Y-95864610D01*
X109259787Y-95864610D01*
X109512753Y-96407136D01*
X109954079Y-96811558D01*
X110385392Y-96990204D01*
X110623000Y-96869534D01*
X110623000Y-95627000D01*
X110877000Y-95627000D01*
X110877000Y-96869534D01*
X111114608Y-96990204D01*
X111545921Y-96811558D01*
X111987247Y-96407136D01*
X112148653Y-96060974D01*
X124392642Y-96060974D01*
X124513783Y-96293000D01*
X125873000Y-96293000D01*
X125873000Y-95079076D01*
X126127000Y-95079076D01*
X126127000Y-96293000D01*
X127486217Y-96293000D01*
X127607358Y-96060974D01*
X128892642Y-96060974D01*
X129013783Y-96293000D01*
X130373000Y-96293000D01*
X130373000Y-95079076D01*
X130627000Y-95079076D01*
X130627000Y-96293000D01*
X131986217Y-96293000D01*
X132107358Y-96060974D01*
X133392642Y-96060974D01*
X133513783Y-96293000D01*
X134873000Y-96293000D01*
X134873000Y-95079076D01*
X135127000Y-95079076D01*
X135127000Y-96293000D01*
X136486217Y-96293000D01*
X136607358Y-96060974D01*
X138392642Y-96060974D01*
X138513783Y-96293000D01*
X139873000Y-96293000D01*
X139873000Y-95079076D01*
X140127000Y-95079076D01*
X140127000Y-96293000D01*
X141486217Y-96293000D01*
X141607358Y-96060974D01*
X142892642Y-96060974D01*
X143013783Y-96293000D01*
X144373000Y-96293000D01*
X144373000Y-95079076D01*
X144627000Y-95079076D01*
X144627000Y-96293000D01*
X145986217Y-96293000D01*
X146107358Y-96060974D01*
X147892642Y-96060974D01*
X148013783Y-96293000D01*
X149373000Y-96293000D01*
X149373000Y-95079076D01*
X149627000Y-95079076D01*
X149627000Y-96293000D01*
X150986217Y-96293000D01*
X151107358Y-96060974D01*
X151104709Y-96045209D01*
X150850732Y-95517964D01*
X150414320Y-95128046D01*
X149861913Y-94934816D01*
X149627000Y-95079076D01*
X149373000Y-95079076D01*
X149138087Y-94934816D01*
X148585680Y-95128046D01*
X148149268Y-95517964D01*
X147895291Y-96045209D01*
X147892642Y-96060974D01*
X146107358Y-96060974D01*
X146104709Y-96045209D01*
X145850732Y-95517964D01*
X145414320Y-95128046D01*
X144861913Y-94934816D01*
X144627000Y-95079076D01*
X144373000Y-95079076D01*
X144138087Y-94934816D01*
X143585680Y-95128046D01*
X143149268Y-95517964D01*
X142895291Y-96045209D01*
X142892642Y-96060974D01*
X141607358Y-96060974D01*
X141604709Y-96045209D01*
X141350732Y-95517964D01*
X140914320Y-95128046D01*
X140361913Y-94934816D01*
X140127000Y-95079076D01*
X139873000Y-95079076D01*
X139638087Y-94934816D01*
X139085680Y-95128046D01*
X138649268Y-95517964D01*
X138395291Y-96045209D01*
X138392642Y-96060974D01*
X136607358Y-96060974D01*
X136604709Y-96045209D01*
X136350732Y-95517964D01*
X135914320Y-95128046D01*
X135361913Y-94934816D01*
X135127000Y-95079076D01*
X134873000Y-95079076D01*
X134638087Y-94934816D01*
X134085680Y-95128046D01*
X133649268Y-95517964D01*
X133395291Y-96045209D01*
X133392642Y-96060974D01*
X132107358Y-96060974D01*
X132104709Y-96045209D01*
X131850732Y-95517964D01*
X131414320Y-95128046D01*
X130861913Y-94934816D01*
X130627000Y-95079076D01*
X130373000Y-95079076D01*
X130138087Y-94934816D01*
X129585680Y-95128046D01*
X129149268Y-95517964D01*
X128895291Y-96045209D01*
X128892642Y-96060974D01*
X127607358Y-96060974D01*
X127604709Y-96045209D01*
X127350732Y-95517964D01*
X126914320Y-95128046D01*
X126361913Y-94934816D01*
X126127000Y-95079076D01*
X125873000Y-95079076D01*
X125638087Y-94934816D01*
X125085680Y-95128046D01*
X124649268Y-95517964D01*
X124395291Y-96045209D01*
X124392642Y-96060974D01*
X112148653Y-96060974D01*
X112240213Y-95864610D01*
X112120154Y-95627000D01*
X110877000Y-95627000D01*
X110623000Y-95627000D01*
X109379846Y-95627000D01*
X109259787Y-95864610D01*
X107460000Y-95864610D01*
X107460000Y-95135390D01*
X109259787Y-95135390D01*
X109379846Y-95373000D01*
X110623000Y-95373000D01*
X110623000Y-94130466D01*
X110877000Y-94130466D01*
X110877000Y-95373000D01*
X112120154Y-95373000D01*
X112240213Y-95135390D01*
X111987247Y-94592864D01*
X111545921Y-94188442D01*
X111114608Y-94009796D01*
X110877000Y-94130466D01*
X110623000Y-94130466D01*
X110385392Y-94009796D01*
X109954079Y-94188442D01*
X109512753Y-94592864D01*
X109259787Y-95135390D01*
X107460000Y-95135390D01*
X107460000Y-93750000D01*
X151502560Y-93750000D01*
X151502560Y-95750000D01*
X151546838Y-95985317D01*
X151685910Y-96201441D01*
X151898110Y-96346431D01*
X151965000Y-96359977D01*
X151965000Y-96500000D01*
X152043785Y-96896077D01*
X152268144Y-97231856D01*
X152603923Y-97456215D01*
X153000000Y-97535000D01*
X153396077Y-97456215D01*
X153731856Y-97231856D01*
X153956215Y-96896077D01*
X154035000Y-96500000D01*
X154035000Y-96362630D01*
X154085317Y-96353162D01*
X154301441Y-96214090D01*
X154446431Y-96001890D01*
X154497440Y-95750000D01*
X154497440Y-93750000D01*
X154453162Y-93514683D01*
X154314090Y-93298559D01*
X154101890Y-93153569D01*
X153850000Y-93102560D01*
X152150000Y-93102560D01*
X151914683Y-93146838D01*
X151698559Y-93285910D01*
X151553569Y-93498110D01*
X151502560Y-93750000D01*
X107460000Y-93750000D01*
X107460000Y-81800000D01*
X108502560Y-81800000D01*
X108502560Y-85400000D01*
X108546838Y-85635317D01*
X108685910Y-85851441D01*
X108898110Y-85996431D01*
X109150000Y-86047440D01*
X109715000Y-86047440D01*
X109715000Y-90854264D01*
X109665185Y-90887549D01*
X109332621Y-91385266D01*
X109215840Y-91972364D01*
X109215840Y-92032476D01*
X109332621Y-92619574D01*
X109665185Y-93117291D01*
X110162902Y-93449855D01*
X110750000Y-93566636D01*
X111337098Y-93449855D01*
X111834815Y-93117291D01*
X112167379Y-92619574D01*
X112284160Y-92032476D01*
X112284160Y-91972364D01*
X112167379Y-91385266D01*
X111834815Y-90887549D01*
X111785000Y-90854264D01*
X111785000Y-90100000D01*
X140602560Y-90100000D01*
X140602560Y-91400000D01*
X140646838Y-91635317D01*
X140785910Y-91851441D01*
X140990000Y-91990890D01*
X140990000Y-92124314D01*
X140964999Y-92250000D01*
X141043785Y-92646077D01*
X141268144Y-92981856D01*
X141603923Y-93206215D01*
X142000000Y-93285001D01*
X142396077Y-93206215D01*
X142731856Y-92981856D01*
X142756853Y-92956858D01*
X142756856Y-92956856D01*
X142964511Y-92646077D01*
X142981215Y-92621078D01*
X143060000Y-92225000D01*
X143060000Y-91987279D01*
X143251441Y-91864090D01*
X143396431Y-91651890D01*
X143447440Y-91400000D01*
X143447440Y-90100000D01*
X148552560Y-90100000D01*
X148552560Y-91400000D01*
X148596838Y-91635317D01*
X148735910Y-91851441D01*
X148948110Y-91996431D01*
X149200000Y-92047440D01*
X150750000Y-92047440D01*
X150985317Y-92003162D01*
X151201441Y-91864090D01*
X151346431Y-91651890D01*
X151397440Y-91400000D01*
X151397440Y-90100000D01*
X151353162Y-89864683D01*
X151279366Y-89750000D01*
X151502560Y-89750000D01*
X151502560Y-91750000D01*
X151546838Y-91985317D01*
X151685910Y-92201441D01*
X151898110Y-92346431D01*
X152150000Y-92397440D01*
X153850000Y-92397440D01*
X154085317Y-92353162D01*
X154301441Y-92214090D01*
X154446431Y-92001890D01*
X154497440Y-91750000D01*
X154497440Y-89750000D01*
X154453162Y-89514683D01*
X154314090Y-89298559D01*
X154101890Y-89153569D01*
X154035000Y-89140023D01*
X154035000Y-88886910D01*
X154151211Y-88812130D01*
X154296201Y-88599930D01*
X154347210Y-88348040D01*
X154347210Y-87149160D01*
X154302932Y-86913843D01*
X154163860Y-86697719D01*
X153951660Y-86552729D01*
X153699770Y-86501720D01*
X152300230Y-86501720D01*
X152064913Y-86545998D01*
X151848789Y-86685070D01*
X151703799Y-86897270D01*
X151652790Y-87149160D01*
X151652790Y-88348040D01*
X151697068Y-88583357D01*
X151836140Y-88799481D01*
X151965000Y-88887527D01*
X151965000Y-89137370D01*
X151914683Y-89146838D01*
X151698559Y-89285910D01*
X151553569Y-89498110D01*
X151502560Y-89750000D01*
X151279366Y-89750000D01*
X151214090Y-89648559D01*
X151001890Y-89503569D01*
X150750000Y-89452560D01*
X149200000Y-89452560D01*
X148964683Y-89496838D01*
X148748559Y-89635910D01*
X148603569Y-89848110D01*
X148552560Y-90100000D01*
X143447440Y-90100000D01*
X143403162Y-89864683D01*
X143264090Y-89648559D01*
X143051890Y-89503569D01*
X142800000Y-89452560D01*
X141250000Y-89452560D01*
X141014683Y-89496838D01*
X140798559Y-89635910D01*
X140653569Y-89848110D01*
X140602560Y-90100000D01*
X111785000Y-90100000D01*
X111785000Y-89399016D01*
X118780590Y-89399016D01*
X118836271Y-89629611D01*
X119319078Y-89797622D01*
X119829428Y-89768083D01*
X120163729Y-89629611D01*
X120219410Y-89399016D01*
X126280590Y-89399016D01*
X126336271Y-89629611D01*
X126819078Y-89797622D01*
X127329428Y-89768083D01*
X127663729Y-89629611D01*
X127719410Y-89399016D01*
X127000000Y-88679605D01*
X126280590Y-89399016D01*
X120219410Y-89399016D01*
X119500000Y-88679605D01*
X118780590Y-89399016D01*
X111785000Y-89399016D01*
X111785000Y-86047440D01*
X112350000Y-86047440D01*
X112585317Y-86003162D01*
X112801441Y-85864090D01*
X112946431Y-85651890D01*
X112997440Y-85400000D01*
X112997440Y-81800000D01*
X112953162Y-81564683D01*
X112814090Y-81348559D01*
X112601890Y-81203569D01*
X112350000Y-81152560D01*
X109150000Y-81152560D01*
X108914683Y-81196838D01*
X108698559Y-81335910D01*
X108553569Y-81548110D01*
X108502560Y-81800000D01*
X107460000Y-81800000D01*
X107460000Y-73600000D01*
X108502560Y-73600000D01*
X108502560Y-77200000D01*
X108546838Y-77435317D01*
X108685910Y-77651441D01*
X108898110Y-77796431D01*
X109150000Y-77847440D01*
X112350000Y-77847440D01*
X112585317Y-77803162D01*
X112801441Y-77664090D01*
X112946431Y-77451890D01*
X112997440Y-77200000D01*
X112997440Y-76256620D01*
X115042908Y-76256620D01*
X116215000Y-77428711D01*
X116215000Y-82499995D01*
X116214999Y-82500000D01*
X116293785Y-82896077D01*
X116518144Y-83231856D01*
X118465000Y-85178711D01*
X118465000Y-85343156D01*
X118398559Y-85385910D01*
X118253569Y-85598110D01*
X118202560Y-85850000D01*
X118202560Y-87150000D01*
X118246838Y-87385317D01*
X118385910Y-87601441D01*
X118499329Y-87678937D01*
X118600982Y-87780590D01*
X118370389Y-87836271D01*
X118202378Y-88319078D01*
X118231917Y-88829428D01*
X118370389Y-89163729D01*
X118600984Y-89219410D01*
X119320395Y-88500000D01*
X119306252Y-88485858D01*
X119485858Y-88306252D01*
X119500000Y-88320395D01*
X119514142Y-88306252D01*
X119693748Y-88485858D01*
X119679605Y-88500000D01*
X120399016Y-89219410D01*
X120629611Y-89163729D01*
X120797622Y-88680922D01*
X120768083Y-88170572D01*
X120629611Y-87836271D01*
X120399018Y-87780590D01*
X120500680Y-87678928D01*
X120601441Y-87614090D01*
X120746431Y-87401890D01*
X120797440Y-87150000D01*
X120797440Y-85850000D01*
X120753162Y-85614683D01*
X120614090Y-85398559D01*
X120535000Y-85344519D01*
X120535000Y-84750005D01*
X120535001Y-84750000D01*
X120456215Y-84353923D01*
X120414064Y-84290839D01*
X120231856Y-84018144D01*
X120231853Y-84018142D01*
X118285000Y-82071288D01*
X118285000Y-80433365D01*
X118299948Y-80512807D01*
X118439020Y-80728931D01*
X118651220Y-80873921D01*
X118903110Y-80924930D01*
X118964160Y-80924930D01*
X118970084Y-80933796D01*
X121268142Y-83231853D01*
X121268144Y-83231856D01*
X121519791Y-83400000D01*
X121603923Y-83456215D01*
X122000000Y-83535001D01*
X122000005Y-83535000D01*
X124821288Y-83535000D01*
X125965000Y-84678711D01*
X125965000Y-85343156D01*
X125898559Y-85385910D01*
X125753569Y-85598110D01*
X125702560Y-85850000D01*
X125702560Y-87150000D01*
X125746838Y-87385317D01*
X125885910Y-87601441D01*
X125999329Y-87678937D01*
X126100982Y-87780590D01*
X125870389Y-87836271D01*
X125702378Y-88319078D01*
X125731917Y-88829428D01*
X125870389Y-89163729D01*
X126100984Y-89219410D01*
X126820395Y-88500000D01*
X126806252Y-88485858D01*
X126985858Y-88306252D01*
X127000000Y-88320395D01*
X127014142Y-88306252D01*
X127193748Y-88485858D01*
X127179605Y-88500000D01*
X127899016Y-89219410D01*
X128129611Y-89163729D01*
X128261143Y-88785750D01*
X131865000Y-88785750D01*
X131865000Y-89476310D01*
X131961673Y-89709699D01*
X132140302Y-89888327D01*
X132373691Y-89985000D01*
X133214250Y-89985000D01*
X133373000Y-89826250D01*
X133373000Y-88627000D01*
X132023750Y-88627000D01*
X131865000Y-88785750D01*
X128261143Y-88785750D01*
X128297622Y-88680922D01*
X128268083Y-88170572D01*
X128129611Y-87836271D01*
X127899018Y-87780590D01*
X128000680Y-87678928D01*
X128101441Y-87614090D01*
X128163208Y-87523690D01*
X131865000Y-87523690D01*
X131865000Y-88214250D01*
X132023750Y-88373000D01*
X133373000Y-88373000D01*
X133373000Y-87173750D01*
X133214250Y-87015000D01*
X132373691Y-87015000D01*
X132140302Y-87111673D01*
X131961673Y-87290301D01*
X131865000Y-87523690D01*
X128163208Y-87523690D01*
X128246431Y-87401890D01*
X128297440Y-87150000D01*
X128297440Y-85850000D01*
X128253162Y-85614683D01*
X128114090Y-85398559D01*
X128035000Y-85344519D01*
X128035000Y-84285750D01*
X131865000Y-84285750D01*
X131865000Y-84976310D01*
X131961673Y-85209699D01*
X132140302Y-85388327D01*
X132373691Y-85485000D01*
X133214250Y-85485000D01*
X133373000Y-85326250D01*
X133373000Y-84127000D01*
X132023750Y-84127000D01*
X131865000Y-84285750D01*
X128035000Y-84285750D01*
X128035000Y-84250005D01*
X128035001Y-84250000D01*
X127956215Y-83853923D01*
X127867437Y-83721057D01*
X127731856Y-83518144D01*
X127731853Y-83518142D01*
X127237402Y-83023690D01*
X131865000Y-83023690D01*
X131865000Y-83714250D01*
X132023750Y-83873000D01*
X133373000Y-83873000D01*
X133373000Y-82673750D01*
X133214250Y-82515000D01*
X132373691Y-82515000D01*
X132140302Y-82611673D01*
X131961673Y-82790301D01*
X131865000Y-83023690D01*
X127237402Y-83023690D01*
X125981856Y-81768144D01*
X125646077Y-81543785D01*
X125250000Y-81464999D01*
X125249995Y-81465000D01*
X122428711Y-81465000D01*
X121148210Y-80184498D01*
X121148210Y-79279270D01*
X121103932Y-79043953D01*
X120964860Y-78827829D01*
X120752660Y-78682839D01*
X120500770Y-78631830D01*
X118903110Y-78631830D01*
X118667793Y-78676108D01*
X118451669Y-78815180D01*
X118306679Y-79027380D01*
X118285000Y-79134434D01*
X118285000Y-77785750D01*
X123265560Y-77785750D01*
X123265560Y-80325059D01*
X123362233Y-80558448D01*
X123540861Y-80737077D01*
X123774250Y-80833750D01*
X126713610Y-80833750D01*
X126872360Y-80675000D01*
X126872360Y-77627000D01*
X127126360Y-77627000D01*
X127126360Y-80675000D01*
X127285110Y-80833750D01*
X130224470Y-80833750D01*
X130457859Y-80737077D01*
X130636487Y-80558448D01*
X130733160Y-80325059D01*
X130733160Y-80285750D01*
X131865000Y-80285750D01*
X131865000Y-80976310D01*
X131961673Y-81209699D01*
X132140302Y-81388327D01*
X132373691Y-81485000D01*
X133214250Y-81485000D01*
X133373000Y-81326250D01*
X133373000Y-80127000D01*
X132023750Y-80127000D01*
X131865000Y-80285750D01*
X130733160Y-80285750D01*
X130733160Y-79023690D01*
X131865000Y-79023690D01*
X131865000Y-79714250D01*
X132023750Y-79873000D01*
X133373000Y-79873000D01*
X133373000Y-78673750D01*
X133214250Y-78515000D01*
X132373691Y-78515000D01*
X132140302Y-78611673D01*
X131961673Y-78790301D01*
X131865000Y-79023690D01*
X130733160Y-79023690D01*
X130733160Y-77785750D01*
X130574410Y-77627000D01*
X127126360Y-77627000D01*
X126872360Y-77627000D01*
X123424310Y-77627000D01*
X123265560Y-77785750D01*
X118285000Y-77785750D01*
X118285000Y-77000005D01*
X118285001Y-77000000D01*
X118206215Y-76603923D01*
X118168750Y-76547852D01*
X117981856Y-76268144D01*
X117981853Y-76268142D01*
X117970331Y-76256620D01*
X118562615Y-76256620D01*
X118651220Y-76317161D01*
X118903110Y-76368170D01*
X120500770Y-76368170D01*
X120736087Y-76323892D01*
X120952211Y-76184820D01*
X121097201Y-75972620D01*
X121148210Y-75720730D01*
X121148210Y-74722510D01*
X121139260Y-74674941D01*
X123265560Y-74674941D01*
X123265560Y-77214250D01*
X123424310Y-77373000D01*
X126872360Y-77373000D01*
X126872360Y-74325000D01*
X127126360Y-74325000D01*
X127126360Y-77373000D01*
X130574410Y-77373000D01*
X130733160Y-77214250D01*
X130733160Y-74674941D01*
X130636487Y-74441552D01*
X130457859Y-74262923D01*
X130224470Y-74166250D01*
X127285110Y-74166250D01*
X127126360Y-74325000D01*
X126872360Y-74325000D01*
X126713610Y-74166250D01*
X123774250Y-74166250D01*
X123540861Y-74262923D01*
X123362233Y-74441552D01*
X123265560Y-74674941D01*
X121139260Y-74674941D01*
X121103932Y-74487193D01*
X120964860Y-74271069D01*
X120752660Y-74126079D01*
X120500770Y-74075070D01*
X118903110Y-74075070D01*
X118667793Y-74119348D01*
X118563249Y-74186620D01*
X115471625Y-74186620D01*
X115471620Y-74186619D01*
X115471615Y-74186620D01*
X112997440Y-74186620D01*
X112997440Y-73600000D01*
X112953162Y-73364683D01*
X112814090Y-73148559D01*
X112601890Y-73003569D01*
X112350000Y-72952560D01*
X109150000Y-72952560D01*
X108914683Y-72996838D01*
X108698559Y-73135910D01*
X108553569Y-73348110D01*
X108502560Y-73600000D01*
X107460000Y-73600000D01*
X107460000Y-70972675D01*
X107664801Y-71199858D01*
X108156928Y-71434231D01*
X108373000Y-71312476D01*
X108373000Y-70207000D01*
X108627000Y-70207000D01*
X108627000Y-71312476D01*
X108843072Y-71434231D01*
X109335199Y-71199858D01*
X109700174Y-70794997D01*
X109854220Y-70423070D01*
X113145780Y-70423070D01*
X113299826Y-70794997D01*
X113664801Y-71199858D01*
X114156928Y-71434231D01*
X114373000Y-71312476D01*
X114373000Y-70207000D01*
X114627000Y-70207000D01*
X114627000Y-71312476D01*
X114843072Y-71434231D01*
X115335199Y-71199858D01*
X115700174Y-70794997D01*
X115854220Y-70423070D01*
X119145780Y-70423070D01*
X119299826Y-70794997D01*
X119664801Y-71199858D01*
X120156928Y-71434231D01*
X120373000Y-71312476D01*
X120373000Y-70207000D01*
X120627000Y-70207000D01*
X120627000Y-71312476D01*
X120843072Y-71434231D01*
X121335199Y-71199858D01*
X121700174Y-70794997D01*
X121854220Y-70423070D01*
X125145780Y-70423070D01*
X125299826Y-70794997D01*
X125664801Y-71199858D01*
X126156928Y-71434231D01*
X126373000Y-71312476D01*
X126373000Y-70207000D01*
X126627000Y-70207000D01*
X126627000Y-71312476D01*
X126843072Y-71434231D01*
X127335199Y-71199858D01*
X127700174Y-70794997D01*
X127854220Y-70423070D01*
X131145780Y-70423070D01*
X131299826Y-70794997D01*
X131664801Y-71199858D01*
X132156928Y-71434231D01*
X132373000Y-71312476D01*
X132373000Y-70207000D01*
X132627000Y-70207000D01*
X132627000Y-71312476D01*
X132843072Y-71434231D01*
X133335199Y-71199858D01*
X133700174Y-70794997D01*
X133854220Y-70423070D01*
X133731720Y-70207000D01*
X132627000Y-70207000D01*
X132373000Y-70207000D01*
X131268280Y-70207000D01*
X131145780Y-70423070D01*
X127854220Y-70423070D01*
X127731720Y-70207000D01*
X126627000Y-70207000D01*
X126373000Y-70207000D01*
X125268280Y-70207000D01*
X125145780Y-70423070D01*
X121854220Y-70423070D01*
X121731720Y-70207000D01*
X120627000Y-70207000D01*
X120373000Y-70207000D01*
X119268280Y-70207000D01*
X119145780Y-70423070D01*
X115854220Y-70423070D01*
X115731720Y-70207000D01*
X114627000Y-70207000D01*
X114373000Y-70207000D01*
X113268280Y-70207000D01*
X113145780Y-70423070D01*
X109854220Y-70423070D01*
X109731720Y-70207000D01*
X108627000Y-70207000D01*
X108373000Y-70207000D01*
X108353000Y-70207000D01*
X108353000Y-69953000D01*
X108373000Y-69953000D01*
X108373000Y-69933000D01*
X108627000Y-69933000D01*
X108627000Y-69953000D01*
X109731720Y-69953000D01*
X109854220Y-69736930D01*
X109700174Y-69365003D01*
X109335199Y-68960142D01*
X109062536Y-68830287D01*
X109515197Y-68527828D01*
X109818029Y-68074609D01*
X109924369Y-67540000D01*
X109818029Y-67005391D01*
X109515197Y-66552172D01*
X109092898Y-66270000D01*
X109515197Y-65987828D01*
X109818029Y-65534609D01*
X109924369Y-65000000D01*
X109818029Y-64465391D01*
X109515197Y-64012172D01*
X109260000Y-63841654D01*
X109260000Y-62814802D01*
X109314802Y-62760000D01*
X113930927Y-62760000D01*
X113797852Y-62959161D01*
X113740000Y-63250000D01*
X113740000Y-63841654D01*
X113484803Y-64012172D01*
X113181971Y-64465391D01*
X113075631Y-65000000D01*
X113181971Y-65534609D01*
X113484803Y-65987828D01*
X113907102Y-66270000D01*
X113484803Y-66552172D01*
X113181971Y-67005391D01*
X113075631Y-67540000D01*
X113181971Y-68074609D01*
X113484803Y-68527828D01*
X113937464Y-68830287D01*
X113664801Y-68960142D01*
X113299826Y-69365003D01*
X113145780Y-69736930D01*
X113268280Y-69953000D01*
X114373000Y-69953000D01*
X114373000Y-69933000D01*
X114627000Y-69933000D01*
X114627000Y-69953000D01*
X115731720Y-69953000D01*
X115854220Y-69736930D01*
X115700174Y-69365003D01*
X115335199Y-68960142D01*
X115062536Y-68830287D01*
X115515197Y-68527828D01*
X115818029Y-68074609D01*
X115924369Y-67540000D01*
X115818029Y-67005391D01*
X115515197Y-66552172D01*
X115092898Y-66270000D01*
X115515197Y-65987828D01*
X115818029Y-65534609D01*
X115924369Y-65000000D01*
X115818029Y-64465391D01*
X115515197Y-64012172D01*
X115260000Y-63841654D01*
X115260000Y-63564802D01*
X115314802Y-63510000D01*
X119787739Y-63510000D01*
X119740000Y-63750000D01*
X119740000Y-63841654D01*
X119484803Y-64012172D01*
X119181971Y-64465391D01*
X119075631Y-65000000D01*
X119181971Y-65534609D01*
X119484803Y-65987828D01*
X119907102Y-66270000D01*
X119484803Y-66552172D01*
X119181971Y-67005391D01*
X119075631Y-67540000D01*
X119181971Y-68074609D01*
X119484803Y-68527828D01*
X119937464Y-68830287D01*
X119664801Y-68960142D01*
X119299826Y-69365003D01*
X119145780Y-69736930D01*
X119268280Y-69953000D01*
X120373000Y-69953000D01*
X120373000Y-69933000D01*
X120627000Y-69933000D01*
X120627000Y-69953000D01*
X121731720Y-69953000D01*
X121854220Y-69736930D01*
X121700174Y-69365003D01*
X121335199Y-68960142D01*
X121062536Y-68830287D01*
X121515197Y-68527828D01*
X121818029Y-68074609D01*
X121924369Y-67540000D01*
X121818029Y-67005391D01*
X121515197Y-66552172D01*
X121092898Y-66270000D01*
X121515197Y-65987828D01*
X121818029Y-65534609D01*
X121924369Y-65000000D01*
X125075631Y-65000000D01*
X125181971Y-65534609D01*
X125484803Y-65987828D01*
X125907102Y-66270000D01*
X125484803Y-66552172D01*
X125181971Y-67005391D01*
X125075631Y-67540000D01*
X125181971Y-68074609D01*
X125484803Y-68527828D01*
X125937464Y-68830287D01*
X125664801Y-68960142D01*
X125299826Y-69365003D01*
X125145780Y-69736930D01*
X125268280Y-69953000D01*
X126373000Y-69953000D01*
X126373000Y-69933000D01*
X126627000Y-69933000D01*
X126627000Y-69953000D01*
X127731720Y-69953000D01*
X127854220Y-69736930D01*
X127700174Y-69365003D01*
X127335199Y-68960142D01*
X127062536Y-68830287D01*
X127515197Y-68527828D01*
X127818029Y-68074609D01*
X127924369Y-67540000D01*
X127818029Y-67005391D01*
X127515197Y-66552172D01*
X127092898Y-66270000D01*
X127515197Y-65987828D01*
X127818029Y-65534609D01*
X127924369Y-65000000D01*
X131075631Y-65000000D01*
X131181971Y-65534609D01*
X131484803Y-65987828D01*
X131907102Y-66270000D01*
X131484803Y-66552172D01*
X131181971Y-67005391D01*
X131075631Y-67540000D01*
X131181971Y-68074609D01*
X131484803Y-68527828D01*
X131937464Y-68830287D01*
X131664801Y-68960142D01*
X131299826Y-69365003D01*
X131145780Y-69736930D01*
X131268280Y-69953000D01*
X132373000Y-69953000D01*
X132373000Y-69933000D01*
X132627000Y-69933000D01*
X132627000Y-69953000D01*
X133731720Y-69953000D01*
X133854220Y-69736930D01*
X133700174Y-69365003D01*
X133335199Y-68960142D01*
X133062536Y-68830287D01*
X133515197Y-68527828D01*
X133818029Y-68074609D01*
X133924369Y-67540000D01*
X133818029Y-67005391D01*
X133515197Y-66552172D01*
X133092898Y-66270000D01*
X133515197Y-65987828D01*
X133818029Y-65534609D01*
X133924369Y-65000000D01*
X133818029Y-64465391D01*
X133515197Y-64012172D01*
X133061978Y-63709340D01*
X132527369Y-63603000D01*
X132472631Y-63603000D01*
X131938022Y-63709340D01*
X131484803Y-64012172D01*
X131181971Y-64465391D01*
X131075631Y-65000000D01*
X127924369Y-65000000D01*
X127818029Y-64465391D01*
X127515197Y-64012172D01*
X127061978Y-63709340D01*
X126527369Y-63603000D01*
X126472631Y-63603000D01*
X125938022Y-63709340D01*
X125484803Y-64012172D01*
X125181971Y-64465391D01*
X125075631Y-65000000D01*
X121924369Y-65000000D01*
X121818029Y-64465391D01*
X121515197Y-64012172D01*
X121511946Y-64010000D01*
X124500000Y-64010000D01*
X124790839Y-63952148D01*
X125037401Y-63787401D01*
X126064802Y-62760000D01*
X126835200Y-62760000D01*
X127126039Y-62702148D01*
X127372601Y-62537401D01*
X127895572Y-62014430D01*
X128031391Y-62105181D01*
X128566000Y-62211521D01*
X129100609Y-62105181D01*
X129553828Y-61802349D01*
X129836000Y-61380050D01*
X130118172Y-61802349D01*
X130571391Y-62105181D01*
X131106000Y-62211521D01*
X131640609Y-62105181D01*
X132093828Y-61802349D01*
X132396660Y-61349130D01*
X132503000Y-60814521D01*
X132503000Y-59947002D01*
X133190002Y-59260000D01*
X133865271Y-59260000D01*
X133773000Y-59723879D01*
X133773000Y-60814521D01*
X133879340Y-61349130D01*
X134182172Y-61802349D01*
X134635391Y-62105181D01*
X134740000Y-62125989D01*
X134740000Y-78562092D01*
X134626309Y-78515000D01*
X133785750Y-78515000D01*
X133627000Y-78673750D01*
X133627000Y-79873000D01*
X133647000Y-79873000D01*
X133647000Y-80127000D01*
X133627000Y-80127000D01*
X133627000Y-81326250D01*
X133785750Y-81485000D01*
X134626309Y-81485000D01*
X134740000Y-81437908D01*
X134740000Y-82562092D01*
X134626309Y-82515000D01*
X133785750Y-82515000D01*
X133627000Y-82673750D01*
X133627000Y-83873000D01*
X133647000Y-83873000D01*
X133647000Y-84127000D01*
X133627000Y-84127000D01*
X133627000Y-85326250D01*
X133785750Y-85485000D01*
X134626309Y-85485000D01*
X134740000Y-85437908D01*
X134740000Y-87062092D01*
X134626309Y-87015000D01*
X133785750Y-87015000D01*
X133627000Y-87173750D01*
X133627000Y-88373000D01*
X133647000Y-88373000D01*
X133647000Y-88627000D01*
X133627000Y-88627000D01*
X133627000Y-89826250D01*
X133785750Y-89985000D01*
X134626309Y-89985000D01*
X134859698Y-89888327D01*
X135038327Y-89709699D01*
X135135000Y-89476310D01*
X135135000Y-88785750D01*
X134976252Y-88627002D01*
X135052200Y-88627002D01*
X135462599Y-89037401D01*
X135709161Y-89202148D01*
X135852560Y-89230672D01*
X135852560Y-89350000D01*
X135896838Y-89585317D01*
X136035910Y-89801441D01*
X136248110Y-89946431D01*
X136500000Y-89997440D01*
X138500000Y-89997440D01*
X138735317Y-89953162D01*
X138951441Y-89814090D01*
X139096431Y-89601890D01*
X139147440Y-89350000D01*
X139147440Y-89260000D01*
X139250000Y-89260000D01*
X139540839Y-89202148D01*
X139787401Y-89037401D01*
X140537401Y-88287401D01*
X140702148Y-88040840D01*
X140760000Y-87750000D01*
X140760000Y-87314802D01*
X140761420Y-87313382D01*
X140785910Y-87351441D01*
X140998110Y-87496431D01*
X141250000Y-87547440D01*
X142800000Y-87547440D01*
X143035317Y-87503162D01*
X143251441Y-87364090D01*
X143396431Y-87151890D01*
X143447440Y-86900000D01*
X143447440Y-85600000D01*
X148552560Y-85600000D01*
X148552560Y-86900000D01*
X148596838Y-87135317D01*
X148735910Y-87351441D01*
X148948110Y-87496431D01*
X149200000Y-87547440D01*
X150750000Y-87547440D01*
X150985317Y-87503162D01*
X151201441Y-87364090D01*
X151346431Y-87151890D01*
X151397440Y-86900000D01*
X151397440Y-85600000D01*
X151353162Y-85364683D01*
X151214090Y-85148559D01*
X151051038Y-85037150D01*
X151665230Y-85037150D01*
X151665230Y-85477149D01*
X151761903Y-85710538D01*
X151940531Y-85889167D01*
X152173920Y-85985840D01*
X152714250Y-85985840D01*
X152873000Y-85827090D01*
X152873000Y-84878400D01*
X153127000Y-84878400D01*
X153127000Y-85827090D01*
X153285750Y-85985840D01*
X153826080Y-85985840D01*
X154059469Y-85889167D01*
X154238097Y-85710538D01*
X154334770Y-85477149D01*
X154334770Y-85037150D01*
X154176020Y-84878400D01*
X153127000Y-84878400D01*
X152873000Y-84878400D01*
X151823980Y-84878400D01*
X151665230Y-85037150D01*
X151051038Y-85037150D01*
X151001890Y-85003569D01*
X150750000Y-84952560D01*
X149200000Y-84952560D01*
X148964683Y-84996838D01*
X148748559Y-85135910D01*
X148603569Y-85348110D01*
X148552560Y-85600000D01*
X143447440Y-85600000D01*
X143403162Y-85364683D01*
X143264090Y-85148559D01*
X143051890Y-85003569D01*
X142800000Y-84952560D01*
X142759726Y-84952560D01*
X142895072Y-84750000D01*
X142981215Y-84621078D01*
X143060000Y-84225000D01*
X143060000Y-83987279D01*
X143251441Y-83864090D01*
X143396431Y-83651890D01*
X143447440Y-83400000D01*
X143447440Y-82100000D01*
X148552560Y-82100000D01*
X148552560Y-83400000D01*
X148596838Y-83635317D01*
X148735910Y-83851441D01*
X148948110Y-83996431D01*
X149200000Y-84047440D01*
X150750000Y-84047440D01*
X150865798Y-84025651D01*
X151665230Y-84025651D01*
X151665230Y-84465650D01*
X151823980Y-84624400D01*
X152873000Y-84624400D01*
X152873000Y-83675710D01*
X153127000Y-83675710D01*
X153127000Y-84624400D01*
X154176020Y-84624400D01*
X154334770Y-84465650D01*
X154334770Y-84025651D01*
X154238097Y-83792262D01*
X154059469Y-83613633D01*
X153826080Y-83516960D01*
X153285750Y-83516960D01*
X153127000Y-83675710D01*
X152873000Y-83675710D01*
X152714250Y-83516960D01*
X152173920Y-83516960D01*
X151940531Y-83613633D01*
X151761903Y-83792262D01*
X151665230Y-84025651D01*
X150865798Y-84025651D01*
X150985317Y-84003162D01*
X151201441Y-83864090D01*
X151346431Y-83651890D01*
X151397440Y-83400000D01*
X151397440Y-82100000D01*
X151353162Y-81864683D01*
X151214090Y-81648559D01*
X151001890Y-81503569D01*
X150750000Y-81452560D01*
X149200000Y-81452560D01*
X148964683Y-81496838D01*
X148748559Y-81635910D01*
X148603569Y-81848110D01*
X148552560Y-82100000D01*
X143447440Y-82100000D01*
X143403162Y-81864683D01*
X143264090Y-81648559D01*
X143051890Y-81503569D01*
X142800000Y-81452560D01*
X141250000Y-81452560D01*
X141014683Y-81496838D01*
X141010000Y-81499851D01*
X141010000Y-79498839D01*
X141250000Y-79547440D01*
X142800000Y-79547440D01*
X143035317Y-79503162D01*
X143251441Y-79364090D01*
X143396431Y-79151890D01*
X143425164Y-79010000D01*
X143500000Y-79010000D01*
X143790839Y-78952148D01*
X144037401Y-78787401D01*
X145037401Y-77787401D01*
X145162617Y-77600000D01*
X148552560Y-77600000D01*
X148552560Y-78900000D01*
X148596838Y-79135317D01*
X148735910Y-79351441D01*
X148948110Y-79496431D01*
X149200000Y-79547440D01*
X150750000Y-79547440D01*
X150985317Y-79503162D01*
X151201441Y-79364090D01*
X151346431Y-79151890D01*
X151397440Y-78900000D01*
X151397440Y-77600000D01*
X151353162Y-77364683D01*
X151214090Y-77148559D01*
X151001890Y-77003569D01*
X150750000Y-76952560D01*
X149200000Y-76952560D01*
X148964683Y-76996838D01*
X148748559Y-77135910D01*
X148603569Y-77348110D01*
X148552560Y-77600000D01*
X145162617Y-77600000D01*
X145202148Y-77540839D01*
X145260000Y-77250000D01*
X145260000Y-74100000D01*
X148552560Y-74100000D01*
X148552560Y-75400000D01*
X148596838Y-75635317D01*
X148735910Y-75851441D01*
X148948110Y-75996431D01*
X149200000Y-76047440D01*
X150750000Y-76047440D01*
X150985317Y-76003162D01*
X151201441Y-75864090D01*
X151346431Y-75651890D01*
X151397440Y-75400000D01*
X151397440Y-74100000D01*
X151353162Y-73864683D01*
X151214090Y-73648559D01*
X151001890Y-73503569D01*
X150750000Y-73452560D01*
X149200000Y-73452560D01*
X148964683Y-73496838D01*
X148748559Y-73635910D01*
X148603569Y-73848110D01*
X148552560Y-74100000D01*
X145260000Y-74100000D01*
X145260000Y-69250000D01*
X145202148Y-68959161D01*
X145037401Y-68712599D01*
X144037401Y-67712599D01*
X143790839Y-67547852D01*
X143537403Y-67497440D01*
X145000000Y-67497440D01*
X145235317Y-67453162D01*
X145240000Y-67450149D01*
X145240000Y-67500000D01*
X145297852Y-67790839D01*
X145462599Y-68037401D01*
X145962599Y-68537401D01*
X146209161Y-68702148D01*
X146500000Y-68760000D01*
X148685198Y-68760000D01*
X148938734Y-69013536D01*
X148748559Y-69135910D01*
X148603569Y-69348110D01*
X148552560Y-69600000D01*
X148552560Y-70900000D01*
X148596838Y-71135317D01*
X148735910Y-71351441D01*
X148948110Y-71496431D01*
X149200000Y-71547440D01*
X150750000Y-71547440D01*
X150985317Y-71503162D01*
X151201441Y-71364090D01*
X151346431Y-71151890D01*
X151397440Y-70900000D01*
X151397440Y-69600000D01*
X151353162Y-69364683D01*
X151214090Y-69148559D01*
X151001890Y-69003569D01*
X150750000Y-68952560D01*
X150730536Y-68952560D01*
X150697684Y-68787401D01*
X150677148Y-68684160D01*
X150512401Y-68437599D01*
X149537401Y-67462599D01*
X149382008Y-67358769D01*
X149451441Y-67314090D01*
X149471761Y-67284350D01*
X151165230Y-67284350D01*
X151165230Y-67724349D01*
X151261903Y-67957738D01*
X151440531Y-68136367D01*
X151673920Y-68233040D01*
X152214250Y-68233040D01*
X152373000Y-68074290D01*
X152373000Y-67125600D01*
X152627000Y-67125600D01*
X152627000Y-68074290D01*
X152785750Y-68233040D01*
X153326080Y-68233040D01*
X153559469Y-68136367D01*
X153738097Y-67957738D01*
X153834770Y-67724349D01*
X153834770Y-67284350D01*
X153676020Y-67125600D01*
X152627000Y-67125600D01*
X152373000Y-67125600D01*
X151323980Y-67125600D01*
X151165230Y-67284350D01*
X149471761Y-67284350D01*
X149596431Y-67101890D01*
X149647440Y-66850000D01*
X149647440Y-66272851D01*
X151165230Y-66272851D01*
X151165230Y-66712850D01*
X151323980Y-66871600D01*
X152373000Y-66871600D01*
X152373000Y-65922910D01*
X152627000Y-65922910D01*
X152627000Y-66871600D01*
X153676020Y-66871600D01*
X153834770Y-66712850D01*
X153834770Y-66272851D01*
X153738097Y-66039462D01*
X153559469Y-65860833D01*
X153326080Y-65764160D01*
X152785750Y-65764160D01*
X152627000Y-65922910D01*
X152373000Y-65922910D01*
X152214250Y-65764160D01*
X151673920Y-65764160D01*
X151440531Y-65860833D01*
X151261903Y-66039462D01*
X151165230Y-66272851D01*
X149647440Y-66272851D01*
X149647440Y-65260000D01*
X150750000Y-65260000D01*
X151040839Y-65202148D01*
X151287401Y-65037401D01*
X151311231Y-65013571D01*
X151336140Y-65052281D01*
X151548340Y-65197271D01*
X151800230Y-65248280D01*
X153199770Y-65248280D01*
X153435087Y-65204002D01*
X153651211Y-65064930D01*
X153796201Y-64852730D01*
X153847210Y-64600840D01*
X153847210Y-63401960D01*
X153802932Y-63166643D01*
X153663860Y-62950519D01*
X153451660Y-62805529D01*
X153199770Y-62754520D01*
X151800230Y-62754520D01*
X151564913Y-62798798D01*
X151348789Y-62937870D01*
X151203799Y-63150070D01*
X151182648Y-63254519D01*
X150957761Y-63299252D01*
X150711199Y-63463999D01*
X150435198Y-63740000D01*
X148500000Y-63740000D01*
X148209161Y-63797852D01*
X147962599Y-63962599D01*
X147462599Y-64462599D01*
X147435898Y-64502560D01*
X147322242Y-64502560D01*
X148407401Y-63417401D01*
X148572148Y-63170840D01*
X148630000Y-62880000D01*
X148630000Y-61954579D01*
X148857828Y-61802349D01*
X149140000Y-61380050D01*
X149422172Y-61802349D01*
X149875391Y-62105181D01*
X150410000Y-62211521D01*
X150944609Y-62105181D01*
X151397828Y-61802349D01*
X151680000Y-61380050D01*
X151962172Y-61802349D01*
X152415391Y-62105181D01*
X152950000Y-62211521D01*
X153484609Y-62105181D01*
X153937828Y-61802349D01*
X154240660Y-61349130D01*
X154347000Y-60814521D01*
X154347000Y-59723879D01*
X154240660Y-59189270D01*
X153937828Y-58736051D01*
X153898840Y-58710000D01*
X154680070Y-58710000D01*
X154759985Y-58725896D01*
G36*
X132757000Y-108402200D02*
X132777000Y-108402200D01*
X132777000Y-108656200D01*
X132757000Y-108656200D01*
X132757000Y-108676200D01*
X132503000Y-108676200D01*
X132503000Y-108656200D01*
X132483000Y-108656200D01*
X132483000Y-108402200D01*
X132503000Y-108402200D01*
X132503000Y-108382200D01*
X132757000Y-108382200D01*
X132757000Y-108402200D01*
X132757000Y-108402200D01*
G37*
X132757000Y-108402200D02*
X132777000Y-108402200D01*
X132777000Y-108656200D01*
X132757000Y-108656200D01*
X132757000Y-108676200D01*
X132503000Y-108676200D01*
X132503000Y-108656200D01*
X132483000Y-108656200D01*
X132483000Y-108402200D01*
X132503000Y-108402200D01*
X132503000Y-108382200D01*
X132757000Y-108382200D01*
X132757000Y-108402200D01*
G36*
X139262172Y-61802349D02*
X139715391Y-62105181D01*
X140250000Y-62211521D01*
X140490000Y-62163782D01*
X140490000Y-67500000D01*
X140547852Y-67790839D01*
X140712599Y-68037401D01*
X141462599Y-68787401D01*
X141709160Y-68952148D01*
X141711231Y-68952560D01*
X141250000Y-68952560D01*
X141014683Y-68996838D01*
X140798559Y-69135910D01*
X140653569Y-69348110D01*
X140602560Y-69600000D01*
X140602560Y-69619080D01*
X140462599Y-69712599D01*
X139817281Y-70357917D01*
X139731720Y-70207000D01*
X138627000Y-70207000D01*
X138627000Y-71312476D01*
X138843072Y-71434231D01*
X139019827Y-71350052D01*
X138990000Y-71500000D01*
X138990000Y-75185198D01*
X136962599Y-77212599D01*
X136797852Y-77459161D01*
X136740000Y-77750000D01*
X136740000Y-78502560D01*
X136500000Y-78502560D01*
X136264683Y-78546838D01*
X136260000Y-78549851D01*
X136260000Y-70423070D01*
X137145780Y-70423070D01*
X137299826Y-70794997D01*
X137664801Y-71199858D01*
X138156928Y-71434231D01*
X138373000Y-71312476D01*
X138373000Y-70207000D01*
X137268280Y-70207000D01*
X137145780Y-70423070D01*
X136260000Y-70423070D01*
X136260000Y-65000000D01*
X137075631Y-65000000D01*
X137181971Y-65534609D01*
X137484803Y-65987828D01*
X137907102Y-66270000D01*
X137484803Y-66552172D01*
X137181971Y-67005391D01*
X137075631Y-67540000D01*
X137181971Y-68074609D01*
X137484803Y-68527828D01*
X137937464Y-68830287D01*
X137664801Y-68960142D01*
X137299826Y-69365003D01*
X137145780Y-69736930D01*
X137268280Y-69953000D01*
X138373000Y-69953000D01*
X138373000Y-69933000D01*
X138627000Y-69933000D01*
X138627000Y-69953000D01*
X139731720Y-69953000D01*
X139854220Y-69736930D01*
X139700174Y-69365003D01*
X139335199Y-68960142D01*
X139062536Y-68830287D01*
X139515197Y-68527828D01*
X139818029Y-68074609D01*
X139924369Y-67540000D01*
X139818029Y-67005391D01*
X139515197Y-66552172D01*
X139092898Y-66270000D01*
X139515197Y-65987828D01*
X139818029Y-65534609D01*
X139924369Y-65000000D01*
X139818029Y-64465391D01*
X139515197Y-64012172D01*
X139061978Y-63709340D01*
X138527369Y-63603000D01*
X138472631Y-63603000D01*
X137938022Y-63709340D01*
X137484803Y-64012172D01*
X137181971Y-64465391D01*
X137075631Y-65000000D01*
X136260000Y-65000000D01*
X136260000Y-61649438D01*
X136440000Y-61380050D01*
X136722172Y-61802349D01*
X137175391Y-62105181D01*
X137710000Y-62211521D01*
X138244609Y-62105181D01*
X138697828Y-61802349D01*
X138980000Y-61380050D01*
X139262172Y-61802349D01*
X139262172Y-61802349D01*
G37*
X139262172Y-61802349D02*
X139715391Y-62105181D01*
X140250000Y-62211521D01*
X140490000Y-62163782D01*
X140490000Y-67500000D01*
X140547852Y-67790839D01*
X140712599Y-68037401D01*
X141462599Y-68787401D01*
X141709160Y-68952148D01*
X141711231Y-68952560D01*
X141250000Y-68952560D01*
X141014683Y-68996838D01*
X140798559Y-69135910D01*
X140653569Y-69348110D01*
X140602560Y-69600000D01*
X140602560Y-69619080D01*
X140462599Y-69712599D01*
X139817281Y-70357917D01*
X139731720Y-70207000D01*
X138627000Y-70207000D01*
X138627000Y-71312476D01*
X138843072Y-71434231D01*
X139019827Y-71350052D01*
X138990000Y-71500000D01*
X138990000Y-75185198D01*
X136962599Y-77212599D01*
X136797852Y-77459161D01*
X136740000Y-77750000D01*
X136740000Y-78502560D01*
X136500000Y-78502560D01*
X136264683Y-78546838D01*
X136260000Y-78549851D01*
X136260000Y-70423070D01*
X137145780Y-70423070D01*
X137299826Y-70794997D01*
X137664801Y-71199858D01*
X138156928Y-71434231D01*
X138373000Y-71312476D01*
X138373000Y-70207000D01*
X137268280Y-70207000D01*
X137145780Y-70423070D01*
X136260000Y-70423070D01*
X136260000Y-65000000D01*
X137075631Y-65000000D01*
X137181971Y-65534609D01*
X137484803Y-65987828D01*
X137907102Y-66270000D01*
X137484803Y-66552172D01*
X137181971Y-67005391D01*
X137075631Y-67540000D01*
X137181971Y-68074609D01*
X137484803Y-68527828D01*
X137937464Y-68830287D01*
X137664801Y-68960142D01*
X137299826Y-69365003D01*
X137145780Y-69736930D01*
X137268280Y-69953000D01*
X138373000Y-69953000D01*
X138373000Y-69933000D01*
X138627000Y-69933000D01*
X138627000Y-69953000D01*
X139731720Y-69953000D01*
X139854220Y-69736930D01*
X139700174Y-69365003D01*
X139335199Y-68960142D01*
X139062536Y-68830287D01*
X139515197Y-68527828D01*
X139818029Y-68074609D01*
X139924369Y-67540000D01*
X139818029Y-67005391D01*
X139515197Y-66552172D01*
X139092898Y-66270000D01*
X139515197Y-65987828D01*
X139818029Y-65534609D01*
X139924369Y-65000000D01*
X139818029Y-64465391D01*
X139515197Y-64012172D01*
X139061978Y-63709340D01*
X138527369Y-63603000D01*
X138472631Y-63603000D01*
X137938022Y-63709340D01*
X137484803Y-64012172D01*
X137181971Y-64465391D01*
X137075631Y-65000000D01*
X136260000Y-65000000D01*
X136260000Y-61649438D01*
X136440000Y-61380050D01*
X136722172Y-61802349D01*
X137175391Y-62105181D01*
X137710000Y-62211521D01*
X138244609Y-62105181D01*
X138697828Y-61802349D01*
X138980000Y-61380050D01*
X139262172Y-61802349D01*
M02*
